<?xml version="1.0" encoding="UTF-8"?><svg id="Capa_1" xmlns="http://www.w3.org/2000/svg" viewBox="0 0 41.37 41.37"><defs><style>.cls-1{fill:#ddd;}.cls-2,.cls-3,.cls-4{stroke-miterlimit:10;}.cls-2,.cls-3,.cls-4,.cls-5{stroke:#212121;}.cls-2,.cls-3,.cls-5{fill:none;}.cls-2,.cls-5{stroke-linecap:round;}.cls-4{fill:#72f7a2;}.cls-5{stroke-linejoin:round;}.cls-6{fill:#f9f9f9;}</style></defs><path class="cls-6" d="M37.22,12.1l-1.86,25.4c-.08,1.08-1.02,1.89-2.09,1.81l-25.08-1.84c-1.08-.08-1.89-1.02-1.81-2.09L8.68,3.83c.08-1.08,1.02-1.89,2.09-1.81l18.57,1.36c.45,.03,.87,.24,1.17,.57l6.25,6.84c.33,.36,.49,.83,.46,1.31Z"/><path class="cls-1" d="M6.81,25.31L4.98,7.27c-.11-1.07,.67-2.03,1.75-2.14l1.55-.16"/><path class="cls-3" d="M5.98,24.3L4.14,6.26c-.11-1.07,.67-2.03,1.75-2.14l1.55-.16"/><path class="cls-3" d="M36.07,10.99l-1.86,25.4c-.08,1.08-1.02,1.89-2.09,1.81l-25.08-1.84c-1.08-.08-1.89-1.02-1.81-2.09L7.53,2.72c.08-1.08,1.02-1.89,2.09-1.81l18.57,1.36c.45,.03,.87,.24,1.17,.57l6.25,6.84c.33,.36,.49,.83,.46,1.31Z"/><path class="cls-3" d="M28.76,2.23l-.5,6.82c-.02,.29,.2,.55,.49,.57l7.38,.54"/><circle class="cls-4" cx="14.41" cy="8.56" r="4.26"/><polyline class="cls-5" points="12.21 8.4 13.6 10.01 16.78 7.27"/><line class="cls-2" x1="21.19" y1="6.34" x2="28.11" y2="6.85"/><line class="cls-2" x1="21.03" y1="8.55" x2="26.17" y2="8.93"/><line class="cls-2" x1="20.86" y1="10.76" x2="30.43" y2="11.46"/><line class="cls-5" x1="9.3" y1="15.89" x2="32.49" y2="17.59"/><line class="cls-5" x1="9.1" y1="18.69" x2="22.61" y2="19.68"/><line class="cls-5" x1="8.89" y1="21.49" x2="31.51" y2="23.15"/><line class="cls-5" x1="8.69" y1="24.3" x2="29.38" y2="25.81"/><line class="cls-5" x1="8.28" y1="29.9" x2="31.46" y2="31.6"/><line class="cls-5" x1="8.07" y1="32.7" x2="31.26" y2="34.4"/><path class="cls-1" d="M27.28,38.74l-16.82,1.71c-1.07,.11-2.03-.67-2.14-1.75l-.14-1.36"/><path class="cls-1" d="M36.08,25.11l1.15,10.66c.11,1.07-.67,2.03-1.75,2.14l-.45,.07"/><path class="cls-3" d="M26.31,37.77l-16.82,1.71c-1.07,.11-2.03-.67-2.14-1.75l-.14-1.36"/><path class="cls-3" d="M35.11,24.14l1.15,10.66c.11,1.07-.67,2.03-1.75,2.14l-.45,.07"/></svg>