<?xml version="1.0" encoding="UTF-8"?><svg id="Capa_2" xmlns="http://www.w3.org/2000/svg" viewBox="0 0 100 100"><defs><style>.cls-1{fill:#f9f9f9;}</style></defs><path class="cls-1" d="M59,54.33c-.99,.17-3.22,4.3-4.63,4.63-1.4,.33-4.67-1.82-7.52-4.09-2.85-2.27-6.36-7.1-5.99-8.26,.37-1.16,2.77-2.73,2.85-4.09,.08-1.36-3.51-9.38-3.84-9.62s-1.45-.17-4.21-.17c-6.77,5.04-5.87,16.03,4.63,25.03,10.49,9,18.13,10.66,22.39,9.33,4.25-1.32,6.03-7.23,5.2-8.55s-7.89-4.38-8.88-4.21Z"/><path class="cls-1" d="M50,12.63C29.5,12.63,12.87,29.25,12.87,49.76c0,6.54,1.7,12.68,4.66,18.02-1.49,5.81-4.66,19.59-4.66,19.59l19.69-4.83c5.2,2.77,11.13,4.35,17.43,4.35,20.5,0,37.13-16.62,37.13-37.13S70.5,12.63,50,12.63Zm0,67.2c-4.99,0-9.74-1.18-14.12-3.52l-2.38-1.27-2.62,.64-8.52,2.09c.74-3.11,1.49-6.2,2.01-8.24l.7-2.73-1.37-2.46c-2.47-4.44-3.78-9.48-3.78-14.59,0-16.58,13.49-30.07,30.07-30.07s30.07,13.49,30.07,30.07-13.49,30.07-30.07,30.07Z"/></svg>