<?xml version="1.0" encoding="UTF-8"?><svg xmlns="http://www.w3.org/2000/svg" viewBox="0 0 100 100"><defs><style>.cls-1{fill:#f9f9f9;}.cls-2{fill:none;}</style></defs><g id="impulsora"><g><path class="cls-1" d="M46.7,24.4h-11.79c-1.79,0-3.24,1.45-3.24,3.24v2.53h20.82l-5.79-5.77Z"/><path class="cls-1" d="M34.9,46.14h13.01l-8.06-8.1h27.99v-10.4c0-1.79-1.45-3.24-3.24-3.24h-13.86l8.31,8.35H31.66v10.16c0,1.79,1.45,3.24,3.24,3.24Z"/><path class="cls-1" d="M64.6,46.14c1.79,0,3.24-1.45,3.24-3.24v-2.28h-21.43l5.55,5.52h12.64Z"/><rect class="cls-1" x="5.05" y="51.21" width="2.49" height="10.74"/><polygon class="cls-1" points="14.7 56.86 11.56 51.21 9.07 51.21 9.07 61.95 11.56 61.95 11.56 56.45 14.52 61.13 17.97 56.66 17.97 61.95 20.46 61.95 20.46 51.21 17.97 51.21 14.7 56.86"/><path class="cls-1" d="M29.31,51.21h-5.33s-2.49,0-2.49,0v10.74h2.49v-3.93h5.33c.78,0,1.4-.63,1.4-1.4v-4.01c0-.78-.63-1.4-1.4-1.4Zm-.85,4.46h-4.48v-1.96h4.48v1.96Z"/><path class="cls-1" d="M38.82,59.47h-4.67v-8.26h-2.49v8.94c0,1,.81,1.8,1.8,1.8h6.05c1,0,1.8-.81,1.8-1.8v-8.94h-2.49v8.26Z"/><polygon class="cls-1" points="44.87 59.45 44.87 51.21 42.38 51.21 42.38 61.95 44.87 61.95 48.62 61.95 50.97 59.45 44.87 59.45"/><path class="cls-1" d="M58.43,53.75l2.39-2.67-8.57,.11c-.89,.01-1.6,.73-1.6,1.62v3.13c0,.89,.72,1.62,1.62,1.62h5.56v1.93h-5.31l-2.38,2.7h8.24c.89,0,1.62-.72,1.62-1.62v-3.59c0-.89-.72-1.62-1.62-1.62h-5.53v-1.6h5.58Z"/><path class="cls-1" d="M69.64,51.28h-6.83c-1.01,0-1.82,.81-1.82,1.82v7.04c0,1.01,.81,1.82,1.82,1.82h6.83c1.01,0,1.82-.81,1.82-1.82v-7.04c0-1.01-.81-1.82-1.82-1.82Zm-.71,7.4c0,.46-.37,.83-.83,.83h-3.89c-.46,0-.83-.37-.83-.83v-4.21c0-.46,.37-.83,.83-.83h3.89c.46,0,.83,.37,.83,.83v4.21Z"/><path class="cls-1" d="M80.4,58.48c.74,0,1.34-.62,1.34-1.38v-4.45c0-.76-.6-1.38-1.34-1.38h-8.04v10.77h2.51v-3.56h1.84l2.81,3.56h3.22l-2.82-3.56h.48Zm-1.14-2.53h-4.41v-2.31h4.41v2.31Z"/><path class="cls-1" d="M90.1,51.28h-2.12l-4.85,10.77h2.67l1.15-2.43h3.98l1.21,2.43h2.81l-4.85-10.77Zm-2.55,6.1l1.35-2.85,1.11,2.85h-2.45Z"/></g></g><g id="grid"><rect class="cls-2" width="4.92" height="4.92"/><rect class="cls-2" x="94.94" width="5.06" height="5.06"/></g></svg>