<?xml version="1.0" encoding="UTF-8"?><svg xmlns="http://www.w3.org/2000/svg" viewBox="0 0 100 100"><defs><style>.cls-1{fill:#f9f9f9;}.cls-2{fill:none;}</style></defs><g id="catehua"><g><path class="cls-1" d="M79.65,62.42c-.53,0-.96,.43-.96,.96v7.65c0,1.18-.96,2.15-2.15,2.15h-1.57c-1.18,0-2.15-.96-2.15-2.15v-7.65c0-.53-.43-.96-.96-.96s-.96,.43-.96,.96v7.65c0,2.25,1.83,4.08,4.08,4.08h1.57c2.25,0,4.08-1.83,4.08-4.08v-7.65c0-.53-.43-.96-.96-.96Z"/><path class="cls-1" d="M65.09,62.62c-.53,0-.96,.43-.96,.96v3.99h-5.69v-3.99c0-.53-.43-.96-.96-.96s-.96,.43-.96,.96v10.32c0,.53,.43,.96,.96,.96s.96-.43,.96-.96v-4.4h5.69v4.4c0,.53,.43,.96,.96,.96s.96-.43,.96-.96v-10.32c0-.53-.43-.96-.96-.96Z"/><path class="cls-1" d="M50.97,64.38c.53,0,.96-.43,.96-.96s-.43-.96-.96-.96h-5.37c-.53,0-.96,.43-.96,.96v10.26c0,.53,.43,.96,.96,.96h5.37c.53,0,.96-.43,.96-.96s-.43-.96-.96-.96h-4.4v-3.2h3.72c.53,0,.96-.43,.96-.96s-.43-.96-.96-.96h-3.72v-3.2h4.4Z"/><path class="cls-1" d="M40.17,62.45h-9.02c-.53,0-.96,.43-.96,.96s.43,.96,.96,.96h3.55v9.53c0,.53,.43,.96,.96,.96s.96-.43,.96-.96v-9.53h3.55c.53,0,.96-.43,.96-.96s-.43-.96-.96-.96Z"/><path class="cls-1" d="M94.87,74.06l-4.48-11.01c-.15-.36-.5-.6-.89-.6h0c-.39,0-.75,.24-.89,.6l-4.34,10.77c-.2,.49,.04,1.06,.53,1.26,.49,.2,1.06-.04,1.26-.53l1.02-2.54h4.87l1.13,2.78c.15,.37,.51,.6,.89,.6,.12,0,.24-.02,.36-.07,.49-.2,.73-.76,.53-1.26Zm-7.02-3.99l1.65-4.09,1.66,4.09h-3.31Z"/><path class="cls-1" d="M24.93,63.05c-.15-.36-.5-.6-.89-.6h0c-.39,0-.75,.24-.89,.6l-4.34,10.77c-.2,.49,.04,1.06,.53,1.26,.49,.2,1.06-.04,1.26-.53l1.02-2.54h4.87l1.13,2.78c.15,.37,.51,.6,.89,.6,.12,0,.24-.02,.36-.07,.49-.2,.73-.76,.53-1.26l-4.48-11.01Zm-2.54,7.02l1.65-4.09,1.66,4.09h-3.31Z"/><path class="cls-1" d="M48.66,47.79l-.02,.5-.4,.02-.05,1.38h-4.22v1h8.09c1.14,.08,1.78-2.06,1.78-2.06h-2.39l-.68-.84h-2.1Z"/><path class="cls-1" d="M49.5,43.71v2.9h.96v-2.89c5.1-.2,9.18-4.39,9.18-9.54s-4.28-9.56-9.56-9.56-9.56,4.28-9.56,9.56,3.97,9.23,8.98,9.53Zm.38-12.94c0-1.36,.38-2.22,.61-2.49,.23,.27,.61,1.13,.61,2.49s-.38,2.22-.61,2.49c-.23-.27-.61-1.13-.61-2.49Zm.21-4.71c4.47,0,8.11,3.64,8.11,8.11s-3.44,7.89-7.73,8.09v-5.98c.65,.35,1.64,.57,2.74,.57,1.97,0,3.57-.7,3.57-1.57s-1.6-1.57-3.57-1.57c-.8,0-1.54,.12-2.13,.31,.57-.52,.98-1.78,.98-3.25,0-1.94-.7-3.51-1.57-3.51s-1.57,1.57-1.57,3.51c0,.87,.14,1.67,.38,2.28-.56-.23-1.33-.37-2.19-.37-.18,0-.37,0-.56,.02-1.99,.14-3.56,.95-3.5,1.81,.05,.78,1.42,1.34,3.15,1.34,.18,0,.37,0,.56-.02,1.12-.08,2.11-.37,2.75-.76v7.18c-4.2-.3-7.53-3.81-7.53-8.08s3.64-8.11,8.11-8.11Zm.59,9.22c.28-.23,1.16-.61,2.53-.61s2.25,.37,2.53,.61c-.28,.23-1.16,.61-2.53,.61s-2.25-.37-2.53-.61Zm-1.46-1.18c-.28,.25-1.14,.69-2.53,.78-.17,.01-.34,.02-.5,.02-1.17,0-1.86-.27-2.11-.45,.28-.25,1.14-.69,2.53-.78,.17-.01,.33-.02,.5-.02,1.17,0,1.86,.27,2.11,.45Z"/><path class="cls-1" d="M59.64,47.48c0-2.37-.87-4.54-2.3-6.21-.34,.35-.7,.66-1.09,.96,1.21,1.42,1.95,3.25,1.95,5.26,0,1.38-.35,2.68-.96,3.82h-11.63v1.07h10.94c-.2,.26-.41,.52-.64,.75h-11.64c-1.42-1.46-2.29-3.45-2.29-5.64,0-2.01,.74-3.84,1.95-5.26-.38-.29-.75-.61-1.09-.96-1.43,1.67-2.3,3.84-2.3,6.21,0,5.28,4.28,9.56,9.56,9.56s9.56-4.28,9.56-9.56Zm-5.49,7.01c-1.2,.7-2.59,1.11-4.07,1.11s-2.87-.41-4.07-1.11h8.14Z"/><path class="cls-1" d="M14.46,63.02c-.88-.44-1.88-.69-2.93-.69-3.57,0-6.46,2.82-6.46,6.3s2.89,6.3,6.46,6.3c.87,0,1.69-.17,2.44-.47,.74-.3,.98-1.24,.47-1.86l-.02-.03c-.33-.4-.87-.54-1.35-.35-.47,.19-.99,.29-1.53,.29-2.23,0-4.05-1.74-4.05-3.89s1.82-3.89,4.05-3.89c.67,0,1.31,.16,1.86,.44,.5,.25,1.11,.09,1.47-.34,.48-.59,.29-1.48-.4-1.82Z"/></g></g><g id="grid"><rect class="cls-2" width="4.92" height="4.92"/><rect class="cls-2" x="94.94" width="5.06" height="5.06"/></g></svg>