<?xml version="1.0" encoding="UTF-8"?><svg xmlns="http://www.w3.org/2000/svg" viewBox="0 0 100 100"><defs><style>.cls-1{fill:#f9f9f9;}.cls-2{fill:none;}</style></defs><g id="torre411"><g><polygon class="cls-1" points="5.05 45.83 8.24 45.83 8.24 54.74 8.87 54.74 8.87 45.83 12.04 45.83 12.04 45.13 5.05 45.13 5.05 45.83"/><path class="cls-1" d="M21.47,44.97c-2.52,0-4.57,2.25-4.57,5.03s2.05,5.03,4.57,5.03,4.57-2.25,4.57-5.03-2.05-5.03-4.57-5.03Zm0,9.23c-2.06,0-3.74-1.88-3.74-4.2s1.68-4.2,3.74-4.2,3.74,1.88,3.74,4.2-1.68,4.2-3.74,4.2Z"/><path class="cls-1" d="M36.58,45.16h-4.37v9.63h.7v-4.01h2.89l2.72,4.01h.93l-2.72-4.01c1.51-.01,2.72-1.24,2.72-2.75h0c0-1.59-1.29-2.88-2.88-2.88Zm.13,4.8h-3.67v-3.97h3.54c1.13,0,2.05,.92,2.05,2.05,0,1.06-.86,1.92-1.92,1.92Z"/><path class="cls-1" d="M49.8,45.16h-4.37v9.63h.7v-4.01h2.89l2.72,4.01h.93l-2.72-4.01c1.51-.01,2.72-1.24,2.72-2.75h0c0-1.59-1.29-2.88-2.88-2.88Zm.13,4.8h-3.67v-3.97h3.54c1.13,0,2.05,.92,2.05,2.05,0,1.06-.86,1.92-1.92,1.92Z"/><polygon class="cls-1" points="58.67 45.52 58.67 45.88 58.67 49.6 58.67 50.32 58.67 54.08 58.67 54.79 59.44 54.79 65.16 54.79 65.16 54.08 59.44 54.08 59.44 50.32 64.66 50.32 64.66 49.6 59.44 49.6 59.44 45.88 65.16 45.88 65.16 45.16 58.67 45.16 58.67 45.52"/><path class="cls-1" d="M76.83,45.16h-1.38l-4.95,6.19,.33,1.24h4.62v2.2h1.38v-2.2h1.34v-1.5h-1.34v-5.93Zm-1.38,5.93h-2.98l2.98-3.64v3.64Z"/><polygon class="cls-1" points="83.04 46.8 84.87 46.8 84.87 54.79 86.37 54.79 86.37 45.16 83.04 45.16 83.04 46.8"/><polygon class="cls-1" points="91.62 45.16 91.62 46.8 93.45 46.8 93.45 54.79 94.95 54.79 94.95 45.16 91.62 45.16"/></g></g><g id="grid"><rect class="cls-2" width="4.92" height="4.92"/><rect class="cls-2" x="94.94" width="5.06" height="5.06"/></g></svg>