<?xml version="1.0" encoding="UTF-8"?><svg xmlns="http://www.w3.org/2000/svg" viewBox="0 0 100 100"><defs><style>.cls-1{fill:#f9f9f9;}.cls-2{fill:none;}.cls-3{fill:#cecece;}</style></defs><g id="GRed"><g><path class="cls-3" d="M37.53,61.01c0-3.47-1.49-4.67-3.17-5.08-2.06,3.59-5.94,6.02-10.37,6.02-6.59,0-11.95-5.36-11.95-11.95s5.36-11.95,11.95-11.95c.43,0,.85,.02,1.27,.07v-2.04h11.64c-3.39-3.14-7.92-5.06-12.91-5.06-10.49,0-18.99,8.5-18.99,18.99s8.5,18.99,18.99,18.99c5.3,0,10.1-2.18,13.54-5.68v-2.3Z"/><path class="cls-1" d="M25.25,43.52v-7.44h15.04c7.44,0,7.83,6.83,7.83,8.75s-1.38,6.98-6.45,7.6c0,0,4.83,1.3,4.83,5.99v10.51h-8.98v-7.9c0-5.45-3.68-5.3-5.99-5.3h-10.28s2.61-5.22,3.15-7.44h12.43s2.07,.08,2.07-2.69c0-2.23-2.15-2.15-2.15-2.15l-11.51,.08Z"/><g><path class="cls-1" d="M92.81,35.46v9.28c-.86-.62-1.92-.99-3.07-.99-1.33,0-2.4,1.08-2.4,2.4v14.8c0,1.39,1.13,2.52,2.52,2.52,1.1,0,2.12-.35,2.95-.93v.93h2.2v-28.01h-2.2Zm-.1,24.99c0,.61-.49,1.1-1.1,1.1h-.82c-.61,0-1.1-.49-1.1-1.1v-13.61c0-.61,.49-1.1,1.1-1.1h.82c.61,0,1.1,.49,1.1,1.1v13.61Z"/><path class="cls-1" d="M58.25,35.46h-3.15c-1.53,0-2.76,1.24-2.76,2.76v22.48c0,1.53,1.24,2.76,2.76,2.76h3.15c1.53,0,2.76-1.24,2.76-2.76v-11.24h-4.63v2.31h1.92v8.93s-.02,.06-.06,.06h-3.15s-.06-.02-.06-.06v-22.48s.02-.06,.06-.06h3.15s.06,.02,.06,.06v4.99h2.71v-4.99c0-1.53-1.24-2.76-2.76-2.76Z"/><path class="cls-1" d="M70.03,35.46h-5.1v28.01h2.38v-13.37h2.07c.89,0,1.61,.73,1.61,1.63v11.74h2.23v-13.28c0-.87-.7-1.57-1.55-1.57h-.66c1.28-.41,2.21-1.61,2.21-3.03v-6.94c0-1.76-1.43-3.18-3.18-3.18Zm.46,10.65c0,.9-.73,1.63-1.63,1.63h-1.55v-9.98h1.55c.9,0,1.63,.73,1.63,1.63v6.71Z"/><path class="cls-1" d="M80.93,43.75h-1c-1.84,0-3.34,1.49-3.34,3.34v13.05c0,1.84,1.49,3.34,3.34,3.34h1c1.84,0,3.34-1.49,3.34-3.34v-3.18h-2.71v3.18c0,.35-.28,.63-.63,.63h-1c-.35,0-.63-.28-.63-.63v-5.64h4.97v-7.41c0-1.84-1.49-3.34-3.34-3.34Zm.63,9.11h-2.26v-5.77c0-.35,.28-.63,.63-.63h1c.35,0,.63,.28,.63,.63v5.77Z"/></g></g></g><g id="grid"><rect class="cls-2" width="4.92" height="4.92"/><rect class="cls-2" x="94.94" width="5.06" height="5.06"/></g></svg>