<?xml version="1.0" encoding="UTF-8"?><svg xmlns="http://www.w3.org/2000/svg" viewBox="0 0 100 100"><defs><style>.cls-1{fill:#f9f9f9;}.cls-2{fill:none;}.cls-3{fill:#cecece;}</style></defs><g id="rise-capital"><g><path class="cls-3" d="M67.52,59.97v-22.83c-2.27-.08-5.75-.08-10.07,.32v21.14c-1.02-.08-2.05-.14-3.08-.18v-20.62c-3.23,.42-6.83,1.06-10.65,2.04v18.65c-1,.06-2,.13-3,.22v-18.04c-3.32,.97-6.79,2.21-10.32,3.76v15.76c-3.72,.74-7.4,1.68-10.99,2.87,17.53-3.3,35.61-4.13,53.22-1.1,1.75,.38,3.7,.77,5.46,1.1-1.68-.6-3.59-1.23-5.3-1.79-1.08-.29-4-.98-5.28-1.29Z"/><g><path class="cls-1" d="M67.52,37.14v-1.97l-10.07-6.16v8.46c4.32-.4,7.8-.41,10.07-.32Z"/><path class="cls-1" d="M40.72,40.67v-13.24l-10.32,6.41v10.59c3.53-1.55,7-2.78,10.32-3.76Z"/><path class="cls-1" d="M54.37,37.81V19.77l-10.65,7.66v12.42c3.83-.98,7.42-1.62,10.65-2.04Z"/></g><g><path class="cls-1" d="M7.01,69.32c.71,0,1.25-.22,1.66-.58v-1.48h-1.88v.54h1.07v.69c-.17,.14-.48,.27-.85,.27-.73,0-1.22-.54-1.22-1.38s.49-1.38,1.22-1.38c.45,0,.75,.21,.94,.48l.69-.24c-.29-.44-.8-.8-1.63-.8-1.26,0-2.09,.77-2.09,1.93s.83,1.94,2.09,1.94Z"/><path class="cls-1" d="M12.78,66.66c0-.69-.61-1.15-1.49-1.15h-1.76v3.74h.85v-1.41h.63l.87,1.41h.95l-.99-1.52c.45-.09,.94-.41,.94-1.06Zm-1.61,.62h-.79v-1.23h.79c.45,0,.74,.25,.74,.62s-.29,.62-.74,.62Z"/><path class="cls-1" d="M16.33,67.99c0,.5-.34,.77-.93,.77s-.93-.27-.93-.77v-2.49h-.85v2.48c0,.85,.68,1.32,1.78,1.32s1.78-.48,1.78-1.32v-2.48h-.85v2.49Z"/><path class="cls-1" d="M19.01,67.83h.89c1,0,1.51-.54,1.51-1.16s-.51-1.16-1.51-1.16h-1.74v3.74h.85v-1.41Zm0-1.78h.79c.45,0,.74,.25,.74,.62s-.29,.62-.74,.62h-.79v-1.23Z"/><path class="cls-1" d="M23.95,65.45c-1.3,0-2.05,.83-2.05,1.93s.75,1.93,2.05,1.93,2.05-.83,2.05-1.93-.75-1.93-2.05-1.93Zm0,3.31c-.77,0-1.18-.61-1.18-1.38s.41-1.38,1.18-1.38,1.18,.6,1.18,1.38-.42,1.38-1.18,1.38Z"/><path class="cls-1" d="M12.56,73.55c0-1.72-1.47-2.8-3.53-2.8h-3.94v9.39h1.74v-3.76h1.26l2.47,3.76h2.14l-2.7-3.93c1.27-.17,2.57-.99,2.57-2.66Zm-3.71,1.26h-2.03v-2.85h2.03c1.11,0,1.4,.82,1.4,1.42s-.32,1.42-1.4,1.42Z"/><rect class="cls-1" x="14.42" y="70.74" width="1.8" height="9.39"/><path class="cls-1" d="M22,74.58c-1.22-.43-2.31-.82-2.31-1.67s.87-1.35,2-1.35c.98,0,1.89,.26,2.55,.8l.78-.81c-.81-.61-1.92-.95-3.29-.95-2.05,0-3.53,.99-3.53,2.36,0,1.58,1.65,2.12,3.13,2.63,1.28,.45,2.44,.86,2.44,1.89,0,.77-.7,1.47-2.26,1.47-1.2,0-1.78-.47-2.41-1.02l-.81,.82c.83,.69,1.62,1.15,3.23,1.15,2.55,0,3.76-1.18,3.76-2.5,0-1.69-1.72-2.3-3.26-2.84Z"/><polygon class="cls-1" points="27.4 80.11 33.81 80.11 33.81 78.57 29.15 78.57 29.15 76.01 33.26 76.01 33.26 74.67 29.15 74.67 29.15 71.91 33.81 71.91 33.81 70.74 27.4 70.74 27.4 80.11"/><path class="cls-1" d="M82.02,70.74l-3.26,9.01h1.77l.54-1.43h3.35s.6,1.43,.6,1.43h1.82l-3.26-9.01h-1.55Zm-.61,6.26l1.38-3.9,1.33,3.9h-2.71Z"/><path class="cls-1" d="M51.47,70.74l-3.26,9.01h1.77l.54-1.43h3.35s.6,1.43,.6,1.43h1.82l-3.26-9.01h-1.55Zm-.61,6.26l1.38-3.9,1.33,3.9h-2.71Z"/><path class="cls-1" d="M62.07,70.74h-4.16v9.01h1.88v-3.61h2.28c2.24,0,2.97-1.24,2.97-2.7s-.71-2.7-2.97-2.7Zm-.15,4.09h-2.13v-2.95h2.13c1.28,0,1.37,1.05,1.37,1.57s-.09,1.38-1.37,1.38Z"/><rect class="cls-1" x="66.84" y="70.74" width="2.16" height="9.01"/><polygon class="cls-1" points="70.85 72.28 73.41 72.28 73.41 79.75 74.97 79.75 74.97 72.28 77.78 72.28 77.78 70.74 70.85 70.74 70.85 72.28"/><polygon class="cls-1" points="90.48 78.79 90.48 70.74 88.41 70.74 88.41 80.05 94.94 80.05 94.94 78.79 90.48 78.79"/><path class="cls-1" d="M45.09,77.21c0,.92-.75,1.67-1.67,1.67h-.31c-.92,0-1.67-.75-1.67-1.67v-3.61c0-.92,.75-1.67,1.67-1.67h.31c.89,0,1.61,.7,1.66,1.58h1.84c-.09-1.54-1.36-2.77-2.93-2.77h-1.34c-1.63,0-2.94,1.32-2.94,2.94v3.48c0,1.63,1.32,2.94,2.94,2.94h1.34c1.63,0,2.94-1.32,2.94-2.94v-.02h-1.85v.06Z"/></g></g></g><g id="grid"><rect class="cls-2" width="4.92" height="4.92"/><rect class="cls-2" x="94.94" width="5.06" height="5.06"/></g></svg>