<?xml version="1.0" encoding="UTF-8"?><svg xmlns="http://www.w3.org/2000/svg" viewBox="0 0 100 100"><defs><style>.cls-1{fill:#f9f9f9;}.cls-2{fill:none;}.cls-3{fill:#cecece;}</style></defs><g id="elmol"><path class="cls-1" d="M32.94,4.39c11.01-3.5,27.12,7.06,34.72,14.26,7.6,7.2,29.06,17.38,27.16,34.08-1.9,16.7-39.31,49.97-61.88,42.5-22.58-7.47-19.18-56.08-19.18-56.08,0,0,11.49-32.32,19.18-34.76Z"/><g><path class="cls-3" d="M44.44,59.05c-.4,0-.72,.14-.97,.43-.25,.29-.37,.66-.37,1.13s.12,.84,.36,1.13,.56,.43,.95,.43c.42,0,.74-.14,.98-.41,.24-.27,.36-.65,.36-1.14s-.12-.89-.35-1.16-.55-.41-.96-.41Z"/><path class="cls-3" d="M71.08,59.12h-.59v2.99h.57c.5,0,.88-.13,1.16-.4,.28-.27,.42-.64,.42-1.13s-.13-.85-.39-1.09-.65-.36-1.16-.36Z"/><circle class="cls-3" cx="62.81" cy="49.96" r="3.46"/><path class="cls-3" d="M60.88,59.05c-.4,0-.72,.14-.97,.43-.25,.29-.37,.66-.37,1.13s.12,.84,.36,1.13,.56,.43,.95,.43c.42,0,.74-.14,.98-.41,.24-.27,.36-.65,.36-1.14s-.12-.89-.35-1.16-.55-.41-.96-.41Z"/><path class="cls-3" d="M88.03,28.69c-3.12-5.7-13.71-16.16-41.28-16.16-14.39,0-41.76,7.15-41.69,23.76,.14,30.14,35.71,56.08,43.72,57.17,8.01,1.09,18.13-8.53,25.53-16.43,20.62-22.03,16.84-42.64,13.71-48.34ZM24.51,46.5h-3.87v2.24h3.41v2.85h-3.41v2.24h3.87v2.34h-7.23v-12.02h7.23v2.34Zm10.22-16.89h18.41l-5.13-4.92c-.72-.69-.74-1.82-.05-2.54,.69-.72,1.82-.74,2.54-.05l8.35,8.01s.02,.02,.03,.03c0,0,.02,.01,.03,.02,.03,.03,.06,.07,.09,.11,.04,.05,.08,.1,.12,.15,.03,.05,.06,.1,.08,.15,.03,.05,.06,.11,.08,.16,.02,.05,.04,.11,.05,.16,.02,.06,.03,.11,.05,.17,.01,.06,.01,.11,.02,.17,0,.06,.01,.11,.01,.17,0,.06,0,.11-.01,.17,0,.06,0,.12-.02,.17-.01,.06-.03,.11-.04,.16-.02,.06-.03,.11-.05,.17-.02,.05-.05,.1-.08,.15-.03,.05-.05,.11-.09,.16-.03,.05-.07,.09-.11,.14-.03,.04-.06,.08-.09,.12,0,0-.02,.02-.03,.02s-.01,.02-.02,.03l-8.35,8.01c-.35,.33-.8,.5-1.24,.5-.47,0-.94-.18-1.3-.55-.69-.72-.66-1.85,.05-2.54l5.13-4.92h-18.41c-.99,0-1.8-.8-1.8-1.8s.8-1.8,1.8-1.8Zm.53,26.56h-7.08v-12.02h3.36v9.42h3.72v2.6Zm4.85,6.34c-.17,.04-.36,.06-.57,.06-.57,0-1.02-.17-1.34-.52-.32-.35-.48-.8-.48-1.37,0-.62,.18-1.11,.53-1.48,.36-.37,.82-.55,1.39-.55,.18,0,.34,.02,.5,.05,.16,.03,.32,.09,.49,.16l-.16,.36c-.14-.06-.27-.11-.4-.13-.13-.03-.27-.04-.42-.04-.44,0-.8,.14-1.06,.43-.26,.29-.39,.68-.39,1.17,0,.46,.13,.83,.38,1.11,.25,.27,.58,.41,1,.41,.15,0,.3-.02,.45-.05,.15-.03,.3-.09,.45-.16l.18,.36c-.18,.09-.36,.15-.54,.19Zm5.62-.48c-.33,.36-.77,.54-1.32,.54s-.97-.18-1.29-.53-.49-.82-.49-1.38c0-.61,.16-1.1,.49-1.46,.33-.36,.78-.54,1.35-.54,.52,0,.95,.18,1.27,.53s.48,.81,.48,1.38c0,.62-.16,1.11-.49,1.47Zm5.99,.48h-.54l-1.95-3.02s-.05-.08-.07-.12-.04-.08-.05-.12h-.02s.01,.1,.02,.19,0,.2,0,.33v2.74h-.44v-3.79h.58l1.9,2.97c.04,.06,.07,.11,.1,.16s.04,.08,.05,.1h.01c0-.05-.02-.13-.02-.22s0-.21,0-.34v-2.67h.44v3.79Zm-1.75-6.33l-.97-6.62-3.67,6.62-3.51-6.62-1.05,6.62h-2.97l1.73-12.02h3.31l2.55,6.01,2.29-6.01h3.67l2.09,12.02h-3.46Zm6.57,6.34c-.17,.04-.36,.06-.57,.06-.57,0-1.02-.17-1.34-.52-.32-.35-.48-.8-.48-1.37,0-.62,.18-1.11,.53-1.48,.36-.37,.82-.55,1.39-.55,.18,0,.34,.02,.5,.05,.16,.03,.32,.09,.49,.16l-.16,.36c-.14-.06-.27-.11-.4-.13-.13-.03-.27-.04-.42-.04-.44,0-.8,.14-1.06,.43-.26,.29-.39,.68-.39,1.17,0,.46,.13,.83,.38,1.11,.25,.27,.58,.41,1,.41,.15,0,.3-.02,.45-.05,.15-.03,.3-.09,.45-.16l.18,.36c-.18,.09-.36,.15-.54,.19Zm5.62-.48c-.33,.36-.77,.54-1.32,.54s-.97-.18-1.29-.53-.49-.82-.49-1.38c0-.61,.16-1.1,.49-1.46,.33-.36,.78-.54,1.35-.54,.52,0,.95,.18,1.27,.53s.48,.81,.48,1.38c0,.62-.16,1.11-.49,1.47Zm5.1,.48l-.65-1.08c-.12-.2-.23-.33-.31-.39s-.19-.09-.31-.09h-.44v1.55h-.44v-3.79h1.13c.33,0,.6,.09,.82,.26,.22,.17,.33,.43,.33,.77,0,.27-.07,.49-.21,.67-.14,.18-.33,.31-.57,.39h0c.08,.06,.15,.11,.21,.17,.06,.06,.12,.14,.19,.25l.79,1.27h-.53Zm-4.46-5.52c-3.88,0-7.03-3.15-7.03-7.03s3.15-7.03,7.03-7.03,7.03,3.15,7.03,7.03-3.15,7.03-7.03,7.03Zm9.73,4.99c-.37,.36-.87,.53-1.49,.53h-1v-3.79h1.05c.67,0,1.17,.15,1.5,.46,.33,.31,.5,.77,.5,1.39s-.19,1.06-.56,1.41Zm3.45,.53h-.44v-3.79h.44v3.79Zm-1.77-6.33h-.46v-12.02h3.36v9.42h3.72v2.6h-6.62Zm6.91,6.33l-.38-1.02h-1.64l-.36,1.02h-.49l1.45-3.79h.46l1.46,3.79h-.49Z"/><path class="cls-3" d="M79.95,59.33s-.02-.09-.03-.15h-.01c0,.05-.02,.1-.03,.14,0,.04-.02,.08-.03,.11l-.61,1.66h1.35l-.61-1.66s-.02-.06-.03-.1Z"/><path class="cls-3" d="M66.92,59.79c0-.2-.07-.36-.2-.49s-.32-.18-.57-.18h-.61v1.44h.6c.22,0,.4-.07,.55-.21,.15-.14,.22-.33,.22-.56Z"/></g></g><g id="grid"><rect class="cls-2" width="4.92" height="4.92"/><rect class="cls-2" x="94.94" width="5.06" height="5.06"/></g></svg>