<?xml version="1.0" encoding="UTF-8"?><svg xmlns="http://www.w3.org/2000/svg" viewBox="0 0 100 100"><defs><style>.cls-1{fill:#f9f9f9;}.cls-2{fill:none;}</style></defs><g id="uanl"><g><path class="cls-1" d="M50.01,4.98c8.67,.13,16.23,3.07,22.56,9.01,4.85,4.56,7.99,10.12,9.47,16.62,.72,3.18,.94,6.4,.67,9.65-.57,7.02-3.14,13.24-7.71,18.59-4.73,5.53-10.67,9.11-17.76,10.74-2.83,.65-5.69,.91-8.59,.77-7.15-.33-13.56-2.7-19.15-7.18-5.1-4.08-8.67-9.24-10.71-15.45-.9-2.73-1.41-5.53-1.54-8.4-.26-5.51,.78-10.75,3.16-15.73,1.69-3.52,3.94-6.64,6.75-9.35,4.46-4.3,9.71-7.14,15.76-8.49,2.18-.49,4.4-.74,6.63-.76,.16,0,.32-.01,.48-.02ZM30.81,53.8c-8.53-10.07-7.77-24.97,1.74-34.14,9.12-8.79,23.36-9.48,33.24-1.44,5.11,4.15,8.19,9.53,9.07,16.07,.97,7.25-1,13.71-5.58,19.42,1.73,1.66,3.46,3.33,5.19,4.99,.04-.02,.05-.02,.06-.04,.22-.26,.45-.52,.67-.79,4.21-5.22,6.59-11.16,7.1-17.85,.23-3.02,.03-6.03-.61-9-1.49-6.83-4.83-12.61-10.03-17.27-5.46-4.89-11.87-7.63-19.19-8.21-3.01-.24-5.99-.06-8.94,.56-6.59,1.38-12.23,4.51-16.9,9.36-2.2,2.28-4.03,4.84-5.45,7.67-3.11,6.16-4.15,12.66-3.11,19.47,.83,5.47,3,10.38,6.38,14.77,.38,.5,.79,.98,1.2,1.48,1.74-1.7,3.45-3.37,5.17-5.05Zm3.59-33.93v.38c0,8.89,0,17.77,0,26.66,0,.1,0,.19,0,.29-.03,.78,.07,1.55,.3,2.3,.61,2.05,1.87,3.59,3.67,4.71,3.78,2.36,7.57,4.72,11.35,7.09,.15,.1,.25,.09,.4,0,3.79-2.36,7.59-4.72,11.38-7.08,.68-.43,1.31-.92,1.86-1.52,1.38-1.52,2.12-3.29,2.12-5.35,0-9.03,0-18.06,0-27.08v-.4h-2.63c0-.43-.01-.81,0-1.2,.01-.22-.06-.3-.27-.36-4.17-1.19-8.33-2.39-12.5-3.57-.13-.04-.3-.02-.43,.02-3.25,.93-6.5,1.86-9.75,2.79-.98,.28-1.96,.57-2.96,.85v1.48h-2.54Zm19.78,49.7c-.24-2.4-.48-4.77-.72-7.16-2.35,.32-4.66,.31-7,0-.24,2.41-.48,4.8-.72,7.19,2.82,.34,5.61,.43,8.45-.03Zm4.69-.84c-.59-2.4-1.17-4.72-1.73-7.01-1.14,.26-2.25,.51-3.38,.77,.24,2.35,.48,4.72,.72,7.15,1.47-.31,2.91-.61,4.39-.92Zm8.73-3.97c1.17-.88,2.31-1.74,3.46-2.61-1.54-1.93-3.03-3.79-4.51-5.64-.89,.69-1.77,1.36-2.66,2.04,1.22,2.04,2.44,4.09,3.7,6.2Zm-35.08,.08c1.27-2.12,2.49-4.18,3.71-6.22-.9-.68-1.77-1.34-2.65-2-1.51,1.87-3.01,3.73-4.55,5.64,1.17,.86,2.32,1.71,3.49,2.58Zm8.66,3.87c1.4,.37,2.78,.69,4.22,.88,.24-2.42,.48-4.8,.72-7.15-1.08-.25-2.12-.48-3.18-.72-.58,2.32-1.17,4.64-1.76,7Zm16.29-7.14c.57,2.32,1.15,4.63,1.74,7.02,1.4-.52,2.76-1.03,4.14-1.54-.99-2.25-1.95-4.43-2.9-6.61-1,.37-1.97,.74-2.98,1.12Zm-20.68,5.48c1.34,.61,2.68,1.13,4.1,1.52,.58-2.35,1.15-4.66,1.72-6.96-.99-.38-1.95-.75-2.94-1.12-.96,2.18-1.92,4.37-2.88,6.56Zm-10.99-7.98c1,.98,1.98,1.95,2.98,2.93,1.55-1.92,3.05-3.78,4.49-5.57-.79-.79-1.55-1.55-2.33-2.34-1.66,1.61-3.38,3.27-5.14,4.98Zm10.72-.27c-1.23,2.02-2.47,4.06-3.74,6.16,1.24,.67,2.46,1.33,3.7,2.01,.99-2.25,1.95-4.44,2.9-6.6-.97-.53-1.9-1.04-2.85-1.57Zm30.27-2.53c1.5,1.87,2.99,3.74,4.53,5.66,1-.99,1.98-1.95,2.97-2.94-1.77-1.72-3.49-3.38-5.11-4.95-.8,.75-1.58,1.48-2.38,2.23Zm-3.19,10.65c1.23-.67,2.43-1.32,3.65-1.97-1.26-2.11-2.48-4.15-3.7-6.2-.96,.53-1.9,1.04-2.85,1.57,.96,2.18,1.91,4.36,2.9,6.61Z"/><path class="cls-1" d="M64.8,94.67c-.1,.01-.17,.02-.24,.03-.4,.05-.68-.06-.94-.41-3.13-4.23-6.28-8.45-9.42-12.68-.06-.08-.12-.17-.22-.31-.01,.13-.02,.2-.02,.27,0,3.54,0,7.08,0,10.62,0,.26,.06,.53,.13,.78,.14,.5,.51,.79,1.04,.82,.28,.02,.56,.04,.86,.06v.83h-5.21v-.83c.18,0,.35,0,.53,0,.96,0,1.46-.51,1.47-1.48,0-.65,0-1.31,0-1.96,0-3.23,0-6.46,0-9.69,0-.18-.02-.35-.05-.53-.08-.43-.33-.74-.76-.86-.39-.11-.78-.19-1.18-.29,0,0-.01-.01-.01-.02-.08-.74-.08-.75,.66-.74,.78,0,1.57,.02,2.35,.04,.84,.02,1.45,.44,1.93,1.09,1.87,2.55,3.73,5.09,5.6,7.64,.7,.95,1.4,1.9,2.1,2.86,.06,.08,.12,.14,.22,.25,.01-.18,.03-.31,.03-.44,0-2.95,0-5.89,0-8.84,0-.24-.03-.49-.08-.73-.13-.62-.56-.99-1.2-1.04-.25-.02-.49-.04-.76-.06v-.82h5.09v.74c-.26,.02-.52,.03-.77,.07-.75,.12-1.14,.58-1.14,1.35,0,1.23,0,2.45,0,3.68,0,3.42,0,6.85,0,10.27,0,.1,0,.21,0,.34Z"/><path class="cls-1" d="M29.93,79.05v-.8h4.82v.79c-.24,.04-.49,.06-.74,.11-.74,.15-1.08,.51-1.18,1.26-.02,.17-.03,.35-.03,.53,0,1.87,0,3.74,0,5.61,0,1.11,.05,2.23-.04,3.33-.16,1.86-.94,3.4-2.63,4.37-.82,.47-1.73,.64-2.66,.72-1.39,.13-2.75-.03-4.05-.55-1.62-.65-2.51-1.88-2.77-3.58-.05-.32-.06-.65-.06-.98,0-2.96,0-5.91,0-8.87,0-.21-.01-.42-.04-.63-.08-.7-.46-1.1-1.16-1.2-.17-.02-.34-.06-.5-.05-.3,.03-.36-.12-.33-.37,.02-.15,0-.3,0-.46h6.52v.76c-.14,.02-.3,.04-.45,.05-1.1,.09-1.53,.57-1.54,1.67,0,1.57,0,3.14,0,4.71,0,1.41-.02,2.82,.01,4.24,.01,.54,.09,1.09,.23,1.62,.41,1.5,1.55,2.4,3.15,2.54,.83,.08,1.64,0,2.43-.22,1.55-.44,2.34-1.54,2.57-3.07,.11-.74,.16-1.49,.16-2.24,.02-2.52,0-5.05,0-7.57,0-.25-.02-.49-.07-.74-.1-.58-.46-.88-1.08-.94-.18-.02-.37-.04-.58-.06Z"/><path class="cls-1" d="M50.07,93.83v.8h-6.82v-.79c.31-.04,.63-.06,.94-.12,.91-.17,1.27-.78,.96-1.65-.27-.75-.58-1.49-.87-2.24-.07-.18-.18-.27-.38-.27-1.8,0-3.6,0-5.4,0-.19,0-.31,.08-.38,.27-.36,.94-.72,1.87-1.07,2.81-.23,.62,0,.99,.65,1.09,.29,.04,.58,.09,.87,.1,.24,.01,.36,.08,.32,.34-.02,.14,0,.28,0,.45h-4.99v-.84c.17,0,.34,0,.5,0,.5,0,.89-.2,1.17-.6,.15-.22,.28-.45,.37-.7,1.82-4.63,3.64-9.26,5.46-13.89,.09-.23,.21-.37,.48-.36,.48,.01,.56,.05,.7,.41,1.07,2.83,2.14,5.67,3.21,8.5,.63,1.66,1.25,3.33,1.87,5,.09,.24,.2,.47,.33,.69,.39,.65,.97,.98,1.73,1,.11,0,.23,0,.36,0Zm-6.33-5.21c-.85-2.24-1.7-4.46-2.57-6.74-.88,2.29-1.74,4.5-2.6,6.74h5.17Z"/><path class="cls-1" d="M74.28,78.24v.82c-.11,0-.22,0-.32,0-1.02,.02-1.62,.62-1.64,1.64,0,.53,0,1.06,0,1.59,0,3.38,0,6.76,0,10.14,0,.17,.01,.33,.04,.5,.07,.54,.37,.85,.91,.85,1.56,.01,3.12,0,4.68-.02,.88,0,1.42-.5,1.74-1.27,.35-.83,.42-1.72,.49-2.61,0-.05,.01-.1,.02-.18h.9c0,.09,.01,.18,.01,.27,0,1.22,0,2.44,0,3.65,0,.02,0,.04,0,.05,0,.81-.26,1.06-1.07,1.06-2.46,0-4.92,0-7.38,0-1.51,0-3.02,0-4.53,0h-.31v-.85c.2-.03,.4-.06,.61-.09,.99-.17,1.34-.58,1.34-1.57,0-3.78,0-7.55,0-11.33,0-.36-.09-.73-.19-1.09-.1-.38-.4-.59-.78-.68-.19-.04-.38-.06-.58-.07-.37-.02-.38-.03-.39-.4q0-.41,.4-.41c1.9,0,3.79,0,5.69,0h.35Z"/><path class="cls-1" d="M60.36,9.86c-.37,.6-.75,1.19-1.12,1.79-.2,.31-.4,.62-.59,.94-.07,.12-.14,.16-.28,.1-.18-.07-.36-.13-.56-.2,.1-1.15,.2-2.29,.3-3.43-.01,0-.03,0-.04-.01-.35,1.04-.69,2.09-1.05,3.16-.3-.09-.59-.18-.9-.28,.49-1.43,.97-2.84,1.45-4.29,.43,.14,.85,.27,1.26,.42,.05,.02,.1,.16,.09,.23-.07,.85-.16,1.7-.24,2.55-.01,.11-.02,.23,.01,.36,.04-.07,.08-.13,.12-.2,.45-.76,.89-1.52,1.33-2.28,.08-.15,.16-.2,.33-.13,.39,.15,.79,.28,1.21,.42-.49,1.44-.97,2.85-1.46,4.28-.3-.1-.56-.19-.86-.29,.35-1.05,.69-2.09,1.03-3.14-.02,0-.03-.02-.05-.03Z"/><path class="cls-1" d="M75.31,55.06c-.17,.27-.33,.52-.49,.78-1.27-.83-2.53-1.64-3.8-2.47,.2-.3,.38-.59,.59-.86,.05-.06,.2-.08,.29-.06,.9,.19,1.81,.39,2.71,.59,.05,.01,.1,.01,.18-.03-.82-.53-1.64-1.07-2.48-1.62,.18-.25,.35-.48,.53-.74,1.26,.83,2.5,1.64,3.76,2.47-.19,.29-.36,.57-.55,.83-.04,.05-.16,.08-.24,.07-.91-.18-1.83-.38-2.74-.57-.06-.01-.11-.02-.19,.01,.8,.53,1.6,1.05,2.42,1.59Z"/><path class="cls-1" d="M75.39,20.1c.19,.26,.35,.49,.53,.74-1.22,.87-2.44,1.74-3.68,2.63-.2-.28-.41-.54-.59-.82-.03-.05,0-.18,.05-.25,.47-.73,.95-1.46,1.43-2.19,.07-.1,.13-.2,.16-.34-.8,.58-1.61,1.15-2.43,1.74-.18-.25-.35-.48-.53-.74,1.23-.89,2.44-1.77,3.68-2.67,.21,.3,.41,.57,.59,.86,.03,.05,0,.18-.05,.25-.5,.78-1.01,1.55-1.51,2.33-.04,.06-.08,.13-.1,.23,.81-.59,1.62-1.17,2.44-1.77Z"/><path class="cls-1" d="M24.23,48.34c-.9,.41-1.8,.82-2.73,1.25-.12-.28-.24-.55-.37-.86,1.38-.61,2.74-1.21,4.12-1.82,.15,.32,.31,.61,.43,.92,.03,.06-.04,.19-.1,.25-.63,.63-1.27,1.25-1.91,1.87-.07,.07-.16,.14-.24,.2,.01,.02,.03,.04,.04,.06,.91-.4,1.82-.8,2.74-1.21,.13,.28,.24,.53,.37,.82-1.37,.62-2.73,1.23-4.12,1.86-.14-.32-.29-.63-.41-.95-.02-.06,.06-.17,.11-.23,.65-.67,1.31-1.34,1.96-2,.04-.04,.08-.09,.12-.13,0-.01-.01-.02-.02-.03Z"/><path class="cls-1" d="M50.44,9.7v-2.92h.89v4.5c-.32,0-.67,0-1.02,0-.06,0-.13-.12-.17-.2-.34-.88-.68-1.76-1.02-2.64-.03-.07-.06-.14-.12-.2v3.04h-.88V6.8c.33,0,.67-.01,1.01,.01,.07,0,.15,.13,.18,.22,.34,.84,.67,1.69,1,2.53,.02,.05,.04,.09,.06,.14,.02,0,.04,0,.05,0Z"/><path class="cls-1" d="M69.06,13.33c.47,.42,.95,.81,1.39,1.24,.49,.47,.57,1,.25,1.59-.4,.74-.95,1.36-1.64,1.83-.53,.37-1.04,.34-1.57-.04-.06-.05-.13-.1-.19-.15-.41-.35-.81-.7-1.24-1.07,1-1.14,1.99-2.26,3-3.4Zm-1.81,3.53c.16,.13,.3,.26,.45,.37,.23,.17,.48,.18,.71,.01,.6-.43,1.07-.99,1.43-1.64,.15-.26,.09-.52-.11-.73-.13-.14-.28-.25-.43-.38-.23,.28-.45,.53-.67,.79,.19,.16,.35,.31,.52,.45-.2,.24-.38,.46-.57,.69-.18-.15-.35-.28-.53-.43-.26,.29-.51,.56-.79,.87Z"/><path class="cls-1" d="M21.53,34.49c.12-.48,.48-.59,.93-.57,.22,0,.44,.03,.66,.02,.22-.01,.44-.06,.68-.09-.02,.27-.03,.59-.08,.91,0,.06-.14,.13-.22,.14-.37,0-.74,0-1.11,0-.47,0-.62,.13-.65,.6,0,.13-.02,.26-.03,.43,.55,.03,1.08,.08,1.61,.09,.24,0,.35,.06,.3,.33-.05,.25-.04,.51-.06,.8-1.5-.12-2.98-.24-4.5-.36,.06-.74,.07-1.46,.2-2.16,.15-.86,1.29-1.2,1.94-.6,.14,.13,.22,.31,.33,.48Zm-.42,1.38c0-.39,.16-.77-.2-1.03-.23-.17-.51-.18-.75-.04-.38,.22-.29,.62-.33,.99,.43,.03,.84,.05,1.28,.08Z"/><path class="cls-1" d="M25.55,27.59c-1.38-.67-2.73-1.32-4.12-2,.33-.63,.62-1.26,.98-1.85,.3-.48,.81-.59,1.33-.48,.83,.19,1.58,.54,2.24,1.09,.44,.36,.61,.84,.41,1.37-.24,.63-.55,1.23-.83,1.87Zm-.22-1.2c.1-.2,.18-.36,.25-.53,.11-.26,.08-.52-.14-.7-.61-.48-1.29-.82-2.05-.98-.23-.05-.44,.04-.58,.24-.11,.17-.2,.36-.31,.56,.95,.48,1.87,.94,2.82,1.41Z"/><path class="cls-1" d="M26.45,17.61c.44-.46,.84-.93,1.29-1.35,.48-.46,1.03-.53,1.6-.19,.72,.42,1.31,.98,1.75,1.69,.31,.51,.3,1.04-.07,1.5-.4,.5-.84,.97-1.29,1.47-1.1-1.05-2.18-2.08-3.28-3.12Zm3.43,1.88c.08-.08,.14-.15,.21-.22,.44-.49,.45-.72,.01-1.2-.33-.36-.68-.7-1.05-1-.56-.46-1.04-.34-1.42,.29,.75,.71,1.49,1.41,2.25,2.13Z"/><path class="cls-1" d="M43.6,8.76c.03-.21,.04-.42,.08-.63,.02-.09,.05-.19,.1-.27,.33-.67,.96-.77,1.61-.81,.57-.04,1.02,.21,1.25,.74,.37,.84,.53,1.74,.45,2.65-.07,.79-.55,1.19-1.42,1.3-.93,.11-1.45-.19-1.72-1.09-.18-.61-.27-1.25-.39-1.88,.02,0,.03-.01,.05-.02Zm2.55,1.34c-.03-.18-.05-.52-.12-.84-.08-.39-.17-.77-.31-1.14-.11-.29-.34-.39-.64-.33-.29,.06-.45,.22-.46,.53,0,.31,0,.64,.06,.94,.09,.49,.2,.98,.35,1.46,.1,.32,.35,.42,.65,.35,.33-.08,.47-.32,.47-.96Z"/><path class="cls-1" d="M78.3,49.74c-.06,.47-.26,.98-.68,1.38-.29,.27-.66,.35-1.04,.28-.91-.17-1.73-.56-2.45-1.12-.49-.38-.63-.89-.44-1.49,.04-.12,.08-.23,.13-.35,.39-.85,.96-1.13,1.86-.88,.73,.2,1.4,.52,2.01,.97,.37,.27,.62,.62,.61,1.21Zm-1.36,.73c.29,.03,.46-.13,.57-.38,.1-.25,.04-.46-.16-.61-.71-.51-1.49-.86-2.34-1.05-.23-.05-.41,.06-.53,.27-.18,.31-.14,.58,.18,.8,.64,.44,1.36,.73,2.1,.95,.06,.02,.12,.01,.18,.02Z"/><path class="cls-1" d="M78.87,34.37c.33,.05,.7,.07,1.05,.16,.41,.1,.7,.37,.79,.78,.08,.35,.13,.73,.11,1.09-.03,.58-.37,.96-.93,1.13-.75,.23-1.53,.27-2.3,.2-1.05-.09-1.51-.68-1.43-1.88,.05-.78,.47-1.18,1.3-1.32,.45-.08,.91-.1,1.41-.16Zm-.85,2.39v-.02c.34-.02,.67-.02,1-.06,.27-.03,.54-.08,.8-.17,.27-.09,.39-.35,.35-.64-.04-.28-.22-.42-.48-.45-.31-.03-.62-.06-.92-.04-.51,.04-1.02,.1-1.51,.2-.32,.07-.44,.28-.42,.58,.02,.31,.16,.46,.49,.52,.22,.04,.45,.05,.68,.07Z"/><path class="cls-1" d="M77.65,23.98c.15,.3,.29,.59,.45,.89-.77,.4-1.53,.8-2.28,1.19-.28,.14-.56,.3-.86,.4-.18,.06-.41,.09-.6,.06-.8-.15-1.07-.8-1.28-1.46-.17-.55,.01-1.04,.53-1.34,1-.57,2.03-1.09,3.06-1.64,.15,.31,.3,.59,.46,.9-.37,.2-.74,.39-1.11,.59-.55,.29-1.11,.58-1.66,.87-.1,.05-.2,.11-.29,.18-.24,.18-.29,.4-.16,.65,.13,.26,.35,.38,.63,.29,.18-.05,.34-.13,.51-.22,.83-.43,1.65-.86,2.48-1.3,.04-.02,.08-.03,.13-.06Z"/><path class="cls-1" d="M55.85,8.72c-.1,.57-.16,1.15-.3,1.71-.27,1.06-.9,1.42-1.98,1.2-.81-.17-1.22-.64-1.19-1.46,.02-.59,.09-1.18,.21-1.75,.27-1.24,.92-1.59,2.19-1.29,.66,.15,.99,.6,1.02,1.27,0,.11,0,.21,0,.32,.02,0,.03,0,.05,0Zm-.97-.2c-.04-.45-.15-.69-.4-.8-.39-.17-.73-.03-.84,.44-.15,.69-.23,1.4-.33,2.1-.01,.09,.02,.19,.04,.29,.05,.24,.2,.36,.43,.4,.38,.07,.63-.06,.73-.47,.15-.65,.25-1.31,.37-1.96Z"/><path class="cls-1" d="M37.25,9.47c.31-.14,.59-.27,.9-.41,.09,.19,.18,.37,.26,.55,.37,.78,.74,1.56,1.1,2.34,.37,.79,.16,1.41-.61,1.82-.17,.09-.35,.18-.53,.24-.66,.23-1.22,.1-1.55-.52-.55-1-1.01-2.05-1.52-3.09,.32-.15,.6-.28,.91-.42,.25,.54,.5,1.05,.74,1.57,.19,.4,.37,.8,.57,1.19,.06,.12,.12,.24,.2,.34,.19,.26,.39,.3,.67,.16,.29-.14,.41-.35,.3-.64-.12-.34-.28-.66-.43-.99-.33-.71-.67-1.42-1.01-2.15Z"/><path class="cls-1" d="M23.72,53.78c-.18-.28-.35-.53-.52-.8,.05-.04,.09-.08,.14-.12,.82-.53,1.64-1.07,2.46-1.59,.51-.32,1.05-.45,1.58-.08,.58,.41,.94,.96,.88,1.7-.03,.32-.21,.57-.47,.74-.94,.63-1.89,1.25-2.86,1.88-.18-.28-.35-.53-.53-.81,.08-.06,.16-.11,.23-.16,.78-.5,1.55-1,2.33-1.51,.12-.08,.23-.16,.33-.26,.18-.19,.2-.4,.06-.63-.14-.23-.36-.32-.61-.23-.15,.05-.29,.13-.42,.22-.86,.54-1.71,1.09-2.6,1.65Z"/><path class="cls-1" d="M29.31,21.15c-.18,.27-.36,.54-.55,.82-.25-.1-.49-.18-.72-.28-.14-.06-.23-.06-.33,.09-.18,.29-.39,.57-.6,.87,.17,.19,.33,.39,.51,.57,.1,.1,.13,.19,.04,.32-.16,.23-.31,.47-.48,.74-.32-.39-.63-.76-.93-1.13-.64-.78-1.27-1.56-1.92-2.33-.11-.13-.13-.22-.02-.36,.17-.22,.31-.47,.49-.69,.04-.06,.17-.11,.23-.09,1.42,.47,2.83,.95,4.25,1.43,0,0,.01,.01,.04,.04Zm-2.22,.17c-.62-.24-1.19-.47-1.76-.69-.01,.02-.02,.04-.03,.05,.42,.47,.84,.94,1.28,1.43,.18-.27,.33-.51,.51-.79Z"/><path class="cls-1" d="M63.98,10.15c.33,.17,.65,.33,.97,.5,.06,.03,.11,.14,.1,.2-.31,1.45-.63,2.89-.96,4.33,0,.02-.03,.04-.06,.08-.28-.15-.55-.3-.86-.47,.06-.23,.12-.47,.19-.7,.05-.16,.03-.26-.14-.33-.31-.15-.61-.32-.93-.49-.17,.19-.35,.37-.51,.57-.1,.13-.2,.13-.33,.06-.23-.14-.48-.26-.75-.4,1.1-1.13,2.18-2.24,3.27-3.35Zm.12,1.11l-.04-.02c-.42,.48-.84,.96-1.27,1.46,.28,.15,.54,.29,.83,.43,.17-.64,.33-1.26,.49-1.87Z"/><path class="cls-1" d="M33.31,11.64c1.2,1.01,2.39,2.01,3.6,3.03-.3,.2-.56,.38-.86,.57-.24-.22-.47-.44-.73-.68-.35,.23-.71,.47-1.07,.71,.09,.27,.19,.52,.26,.78,.02,.07-.02,.19-.07,.23-.21,.18-.43,.33-.67,.51-.03-.08-.07-.13-.09-.19-.44-1.36-.87-2.71-1.32-4.07-.05-.16-.04-.25,.11-.34,.28-.17,.55-.37,.84-.57Zm.65,2.9c.28-.18,.52-.34,.79-.52-.49-.45-.96-.88-1.42-1.3-.01,0-.03,.02-.04,.03,.22,.58,.44,1.16,.67,1.79Z"/><path class="cls-1" d="M21.34,29.53c-.06,.3-.13,.59-.19,.89-.08,0-.15,0-.21,0-.25-.01-.45,.07-.54,.33-.09,.26,0,.51,.21,.65,.26,.16,.5,.16,.7-.05,.16-.17,.3-.37,.44-.56,.13-.17,.25-.34,.38-.51,.37-.46,.83-.54,1.38-.36,.53,.18,.82,.51,.86,1.08,.04,.52-.06,1.02-.3,1.48-.3,.58-.9,.76-1.55,.48,.06-.31,.13-.61,.19-.92,.17,0,.32,.03,.46,.02,.3-.03,.52-.37,.49-.71-.03-.28-.29-.52-.57-.46-.18,.04-.37,.17-.49,.31-.23,.26-.4,.58-.62,.85-.46,.56-1.11,.65-1.73,.27-.48-.29-.68-.83-.54-1.51,.04-.2,.1-.39,.19-.58,.28-.64,.72-.85,1.45-.7Z"/><path class="cls-1" d="M79.91,45.06c-.26,.89-.51,1.74-.77,2.63-.25-.08-.48-.16-.74-.24,.16-.55,.31-1.09,.48-1.65-.33-.09-.65-.18-.99-.28-.15,.51-.3,1.01-.45,1.53-.26-.07-.49-.14-.73-.21,.15-.52,.29-1.03,.44-1.57-.37-.11-.73-.21-1.11-.32-.18,.58-.35,1.14-.53,1.73-.25-.08-.48-.16-.74-.24,.27-.9,.54-1.77,.81-2.67,1.45,.43,2.87,.86,4.33,1.29Z"/><path class="cls-1" d="M77.81,29.27c-.25,.08-.48,.16-.73,.24-.18-.53-.35-1.04-.53-1.57-.37,.13-.73,.26-1.11,.4,.2,.56,.39,1.11,.6,1.69-.25,.1-.48,.19-.73,.29-.31-.89-.62-1.77-.93-2.67,1.42-.48,2.83-.96,4.28-1.46,.3,.84,.59,1.68,.89,2.55-.23,.08-.45,.16-.69,.25-.19-.54-.38-1.06-.57-1.61-.33,.11-.65,.21-.99,.31,.18,.53,.34,1.04,.52,1.57Z"/><path class="cls-1" d="M20.01,45.35c-.07-.35-.14-.68-.2-1.02,1.03-.44,2.05-.87,3.07-1.3,0-.02,0-.04,0-.06h-3.33c-.07-.37-.14-.69-.2-.99,.51,0,1.01-.01,1.51,0,.99,.03,1.97,.08,2.96,.12,.15,0,.22,.05,.24,.2,.04,.29,.09,.58,.17,.85,.05,.18,0,.25-.16,.32-1.21,.56-2.42,1.13-3.64,1.69-.13,.06-.25,.12-.41,.19Z"/><path class="cls-1" d="M77.07,32.19c1,0,2,0,3,0,.23,0,.31,.08,.34,.29,.03,.22,.08,.45,.13,.71-1.57-.07-3.12-.13-4.68-.2-.07-.37-.15-.73-.21-1.09,0-.05,.04-.16,.09-.18,1.36-.66,2.72-1.31,4.12-1.97,.06,.33,.14,.63,.17,.93,0,.07-.1,.19-.18,.22-.85,.37-1.7,.73-2.55,1.09-.08,.03-.16,.07-.24,.11,0,.04,0,.08,0,.11Z"/><path class="cls-1" d="M19.9,39.73c.35-.03,.68-.05,1.03-.08-.02-.53-.05-1.05-.07-1.6,.24-.02,.47-.03,.73-.05,.04,.53,.09,1.05,.13,1.61,.4-.03,.78-.05,1.19-.08-.04-.6-.07-1.17-.11-1.77,.23-.01,.43-.04,.64-.03,.05,0,.13,.09,.13,.14,.06,.85,.11,1.7,.16,2.59-1.51,.09-2.99,.19-4.52,.28-.05-.9-.11-1.79-.17-2.71,.25-.01,.48-.03,.73-.04,.04,.58,.09,1.13,.13,1.73Z"/><path class="cls-1" d="M40.52,9.04c-.34,.11-.66,.2-1,.31-.08-.24-.16-.47-.25-.73,1-.3,1.98-.59,2.99-.89,.07,.23,.14,.44,.21,.69-.33,.11-.65,.22-1,.34,.37,1.19,.74,2.37,1.12,3.58-.33,.1-.64,.19-.98,.29-.37-1.2-.73-2.38-1.09-3.58Z"/><path class="cls-1" d="M76.77,41.57c-.1,.58-.19,1.15-.29,1.73-.24-.04-.47-.07-.73-.12,.13-.9,.27-1.79,.4-2.71,1.5,.24,2.98,.48,4.49,.73-.06,.33-.11,.64-.17,.98-1.24-.2-2.45-.4-3.7-.6Z"/><path class="cls-1" d="M24.69,45.06c.1,.33,.19,.62,.29,.94-1.44,.46-2.87,.91-4.32,1.37-.1-.34-.19-.64-.29-.98,1.44-.45,2.87-.89,4.32-1.34Z"/><path class="cls-1" d="M20.61,27.94c.11-.32,.21-.62,.32-.94,1.43,.48,2.84,.96,4.28,1.45-.11,.32-.21,.62-.32,.94-1.43-.49-2.84-.97-4.28-1.45Z"/><path class="cls-1" d="M37.5,25.64c.12,0,.2-.01,.31-.02v-4.53h1.25v4.52h21.6v-4.52h1.27v4.53c.12,0,.21,.02,.33,.03v.35c0,7.03-.02,14.05,.01,21.08,.01,2.06-.91,3.47-2.63,4.45-3.17,1.82-6.35,3.62-9.53,5.44-.17,.1-.3,.1-.47,0-3.23-1.86-6.47-3.7-9.7-5.57-1.27-.73-2.12-1.8-2.38-3.27-.07-.39-.06-.79-.06-1.18,0-6.97,0-13.94,0-20.92v-.39Zm.72,.79v.35c0,6.79,0,13.57,0,20.36,0,1.59,.69,2.75,2.03,3.52,3.14,1.81,6.29,3.59,9.44,5.38,.14,.08,.24,.08,.38,0,1.43-.82,2.86-1.64,4.29-2.46,1.68-.96,3.37-1.91,5.05-2.89,1.23-.72,2.02-1.75,2.03-3.22,.01-6.92,0-13.84,0-20.75,0-.09,0-.19,0-.29h-23.21Z"/><path class="cls-1" d="M37.26,19.45c0-.25-.02-.48,.01-.7,0-.07,.13-.17,.22-.2,1.53-.45,3.06-.88,4.6-1.32,2.52-.72,5.04-1.45,7.57-2.16,.17-.05,.37-.05,.53,0,4.03,1.15,8.06,2.31,12.09,3.45,.24,.07,.34,.16,.3,.41-.02,.16,0,.33,0,.52h-25.31Zm11.07-1.98l.37,.36c0-.15-.05-.27-.12-.36-.04-.05-.14-.04-.21-.06,.03-.26-.1-.45-.25-.6-.11,.08-.21,.16-.33,.25-.03-.08-.04-.13-.06-.19-.05,.04-.08,.07-.11,.09,.22,.18,.43,.35,.64,.52,.01,0,.05-.01,.07-.02Zm1.43,1.02c-.14-.23-.28-.46-.44-.72-.14,0-.26,.06-.19,.29,.05,.18,.1,.36,.14,.53,.02,.07,.04,.15,.05,.22,.03,0,.05,0,.08-.01v-.55s.03,0,.05,0c.05,.18,.1,.36,.15,.54,.08-.05,.13-.08,.19-.11-.02-.07-.04-.13-.06-.2,.16-.2,.31-.41,.46-.6-.19-.14-.21,.22-.38,.25-.06-.51,.02-.7,.3-.83-.05-.11-.11-.22-.17-.34-.12,.15-.25,.31-.39,.48,.04-.12,.08-.25,.12-.37-.06,0-.11,.02-.17,.02,0-.02-.02-.03-.02-.05,.19-.16,.38-.33,.56-.49,.02,.02,.04,.04,.06,.06,0-.13,.02-.25,.03-.42,.12,.04,.21,.07,.31,.1-.05,.14-.09,.26-.14,.39,.15,0,.26,0,.37,0,.1,0,.26-.05,.29,0,.07,.09,.07,.23,.08,.35,.01,.14,0,.28,0,.5,.18-.21,.31-.35,.43-.49-.08-.08-.15-.15-.26-.27,.14,0,.2,0,.27,0,.08-.01,.15-.04,.22-.06,.14,.21,.14,.31,.04,.58-.03,.09-.05,.18-.06,.27-.04,.38,.33,.4,.53,.62,.03-.13,.06-.22,.08-.3h.25c-.11,.32-.22,.62-.32,.92-.02,0-.03,0-.05-.01v-.27s-.07,0-.1,0c-.03,.16-.05,.33-.08,.55,.11,.04,.26,.13,.42,.13,3.11,0,6.23,0,9.34,0,.09,0,.17,0,.24-.01,.11-.29,0-.39-.26-.46-3.88-1.06-7.76-2.13-11.64-3.19-.13-.04-.28-.05-.41-.01-3.91,1.07-7.81,2.14-11.72,3.22-.31,.08-.32,.11-.22,.44h13.19c-.17-.05-.34-.08-.5-.09-.72-.03-1.44-.05-2.16-.06-.34,0-.68,.04-1.01,.05-.07,0-.15-.04-.22-.07,0-.02,.02-.05,.02-.07,.07,0,.14,.01,.18,.02-.08-.19-.15-.37-.24-.57-.1,.12-.16,.18-.2,.22,.03,.09,.05,.16,.07,.23-.12-.04-.21-.07-.29-.1,0,.03-.02,.06-.03,.08,.14,.06,.28,.12,.43,.18-.01,.02-.02,.04-.03,.07h-4.19c-.06-.19-.11-.34-.16-.47-.11,.01-.2,.02-.3,.03h0c.14-.24,.43-.23,.62-.41-.08,.03-.15,.06-.24,.1-.15-.17-.11-.27,.12-.33-.09-.07-.15-.13-.25-.21,.1-.03,.17-.05,.23-.07,0,.02-.01,.04-.02,.07,.16,.11,.33,.22,.52,.36,.06-.14,.12-.29,.18-.43-.02-.02-.04-.05-.05-.07,.09,0,.23,0,.24,.02,.03,.09,.01,.2,.01,.27,.05,.08,.11,.17,.17,.26,.08-.09,.12-.15,.17-.21,.06-.14,.06-.32,.07-.51,0-.03,.07-.08,.09-.07,.04,0,.08,.05,.09,.09,.02,.06,.03,.13,.05,.2,.06-.03,.12-.06,.16-.08,.25,.2,0,.51,.18,.76,.03-.37,.19-.5,.53-.28,0-.11,0-.18-.01-.29-.21,.31-.34,.04-.55-.01,.14-.12,.24-.2,.34-.29,.01-.06,.02-.14,.04-.21,0-.02,.13,0,.14,0,.01,.07,0,.14,0,.22,.06,.05,.13,.1,.19,.14-.01,.27-.03,.53-.04,.78,0,.04,.05,.1,.09,.11,.03,0,.11-.03,.12-.06,.06-.15,.1-.31,.15-.5,.18-.07,.42-.16,.66-.25,0-.03-.02-.05-.02-.08-.18,.02-.36,.03-.54,.05,0-.02,0-.04,0-.06,.18-.17,.36-.34,.55-.52-.05-.28-.04-.3,.24-.22,0,.09-.02,.18-.03,.27,.13,.07,.26,.13,.36,.19-.11,.05-.22,.06-.26,.12-.11,.19,0,.49,.2,.64,.13-.08,.24-.16,.36-.22,.18-.09,.25-.22,.17-.41-.03-.09-.07-.18-.12-.26-.1-.16-.03-.26,.08-.39,.18-.22,.4-.03,.58-.08,0-.11,.01-.21,.02-.31,.02,0,.05,0,.07-.01,.14,.23,.28,.46,.41,.69,.09-.12,.14-.22,.22-.3,.09-.09,.14-.16,.02-.27-.02-.02,.04-.18,.1-.21,.14-.08,.3-.1,.45-.17,.2-.09,.39-.18,.61,.03-.31,.19,.22,.19,.06,.34-.21,.18-.41,.41-.72,.21-.03,.46,.06,.65,.38,.73,.03,.06,.07,.11,.08,.17,0,.1-.04,.2-.02,.3,.04,.19,.1,.37,.15,.55Zm.86-1.13c.03-.19,.06-.38,.09-.57-.33,.13-.19,.41-.27,.66,.09-.05,.14-.07,.19-.1-.05,.12-.1,.24-.15,.36,.02,0,.04,0,.06-.01,.01,.25,.03,.49,.04,.78,.09-.11,.16-.2,.24-.29,.23,.2,.03,.42,.08,.64,.06,0,.12,0,.19-.01-.03,.06-.05,.09-.06,.12l.08,.03c.07-.2,.13-.41,.2-.61,.02-.07,.06-.13,.09-.19,.05,.07,.13,.15,.13,.22,0,.18-.02,.36-.04,.54,.39-.05,.39-.05,.33-.44-.01-.08,0-.17-.01-.23-.25-.18-.48-.34-.71-.51-.02,.01-.04,.03-.06,.04,.03,.13,.07,.26,.1,.39-.02,0-.04,.01-.05,.02-.07-.15-.15-.29-.22-.43-.06,.03-.12,.06-.23,.11,.03-.17,.05-.3,.06-.42,0-.03-.06-.06-.09-.09Zm-2.73,1.45c.07-.18,.12-.32,.18-.45,.07,.13,.07,.25,.12,.35,.02,.06,.15,.12,.18,.1,.06-.04,.12-.13,.12-.2,0-.24-.01-.48-.03-.71,0-.05-.04-.11-.06-.16-.05,.02-.1,.04-.15,.07-.1,.06-.19,.13-.29,.2-.05,.04-.12,.08-.12,.12,0,.21,.03,.43,.05,.68Zm1-.07c.1-.29,.07-.67-.07-.8q-.06,.69,.07,.8Zm-1.27,.17c-.02-.26-.03-.45-.04-.64-.02,0-.04-.02-.06-.03-.08,.16-.17,.32-.27,.51,.11,.05,.22,.09,.37,.16Zm-1.26-.05s.03-.05,.04-.07c-.15-.21-.18-.51-.53-.67,.05,.18,.08,.29,.12,.41,.26-.13,.21,.11,.32,.23h-.26s0,.04,0,.06c.1,.01,.21,.03,.31,.04Zm4.38-.37c-.33,.15-.34,.18-.11,.49,.04-.17,.07-.31,.11-.49Z"/><path class="cls-1" d="M54.88,22.53h-.33v-2.19s.06-.03,.1-.03q.43-.03,.5,.39c.06,.33,.12,.67,.22,1.01,.06-.33,.12-.67,.19-1,.08-.44,.14-.47,.63-.35v2.18c-.11,0-.21,0-.33,.02v-1.48s-.04,0-.06,0c-.09,.48-.18,.97-.28,1.47h-.29c-.1-.47-.2-.95-.3-1.42-.02,0-.03,0-.05,0v1.42Z"/><path class="cls-1" d="M59.69,22.53h-.29v-1.47s-.04,0-.06,0c-.09,.49-.19,.97-.28,1.46-.25,.09-.35,.01-.39-.25-.05-.37-.13-.74-.24-1.11v1.36h-.34v-2.22c.13,0,.24,0,.35,0,.17-.02,.23,.06,.25,.22,.05,.39,.12,.78,.22,1.17,.06-.32,.11-.63,.17-.95,.09-.47,.09-.47,.59-.42v2.21Z"/><path class="cls-1" d="M52.82,21.12v1.41h-.35v-2.22c.12,0,.26-.02,.38,0,.08,.02,.18,.1,.19,.17,.08,.44,.15,.88,.26,1.33,.06-.4,.14-.8,.18-1.21,.03-.25,.12-.34,.37-.3,.08,.01,.15,.01,.24,.02v2.2h-.35v-1.42s-.03,0-.05,0c-.07,.4-.14,.81-.23,1.21-.02,.09-.1,.21-.18,.23-.18,.05-.17-.12-.19-.24-.07-.4-.15-.79-.22-1.19-.02,0-.03,0-.05,.01Z"/><path class="cls-1" d="M46.83,23.01c.2,0,.38,0,.56,0,.22,0,.43,.03,.53,.26,.1,.24,.1,.48-.05,.71-.03,.04-.07,.08-.11,.12,.3,.32,.11,.72,.22,1.09h-.41c0-.19,0-.37,0-.55-.02-.3-.1-.37-.41-.34v.93h-.34v-2.22Zm.29,.98c.15-.07,.33-.09,.36-.18,.05-.12,.04-.3-.02-.41-.04-.07-.21-.07-.34-.11v.7Z"/><path class="cls-1" d="M45.57,22.52q-.46,.05-.46-.35c0-.07,0-.14,0-.21,0-.32-.06-.37-.43-.34v.9h-.31v-2.22c.2,0,.4,0,.59,0,.22,0,.43,.05,.52,.28,.09,.24,.1,.48-.07,.7-.03,.03-.06,.06-.1,.1,.33,.32,.06,.76,.26,1.13Zm-.88-1.19c.15-.07,.32-.09,.35-.17,.04-.12,.02-.3-.03-.42-.03-.07-.2-.07-.31-.1v.7Z"/><path class="cls-1" d="M57.91,22.51c-.51,.2-.38-.25-.49-.45h-.44c-.04,.16-.07,.31-.1,.47h-.4c.13-.56,.26-1.12,.39-1.67,.02-.1,.06-.2,.07-.31,.02-.17,.09-.26,.28-.26,.2,0,.25,.08,.28,.25,.12,.59,.26,1.18,.39,1.78,.01,.06,0,.12,.01,.18Zm-.85-.81h.34c-.06-.28-.11-.54-.17-.8-.02,0-.03,0-.05,.01-.04,.26-.08,.51-.12,.79Z"/><path class="cls-1" d="M41.22,22.52q-.33,.06-.48-.45h-.45c-.03,.15-.06,.3-.1,.46h-.4c.12-.51,.23-1,.35-1.49,.05-.2,.08-.4,.15-.59,.03-.07,.15-.13,.23-.14,.09,0,.25,.06,.27,.12,.16,.68,.3,1.36,.45,2.04,0,.01-.01,.03-.02,.05Zm-.67-1.63s-.03,0-.04,0c-.04,.27-.08,.54-.13,.83,.14,0,.23-.01,.34-.02-.06-.29-.12-.55-.17-.82Z"/><path class="cls-1" d="M52.17,22.51c-.39,.06-.4,.06-.46-.29-.03-.2-.16-.17-.29-.18-.13,0-.25,0-.25,.18,0,.09-.04,.19-.06,.3h-.41c.15-.7,.3-1.39,.46-2.07,.02-.06,.14-.13,.22-.14,.11-.02,.25-.05,.29,.13,.16,.68,.32,1.37,.49,2.07Zm-.74-1.61s-.03,0-.05,0c-.04,.25-.08,.5-.12,.77h.3c-.04-.27-.08-.52-.12-.76Z"/><path class="cls-1" d="M55.52,23.61h-.34s-.02-.07-.04-.09c-.06-.07-.13-.15-.21-.21-.02-.01-.15,.09-.15,.14,0,.1,.02,.24,.09,.3,.11,.1,.27,.16,.41,.24,.31,.18,.42,.59,.25,.94-.13,.27-.56,.4-.85,.25-.27-.13-.29-.39-.29-.67h.31s.02,.06,.03,.09c.05,.1,.09,.23,.18,.27,.06,.03,.24-.08,.25-.14,.01-.12-.04-.26-.1-.37-.04-.07-.17-.09-.25-.13-.22-.12-.37-.28-.41-.55-.06-.42,.14-.72,.5-.76,.39-.04,.62,.19,.64,.68Z"/><path class="cls-1" d="M51.94,25.19h-.41c-.03-.15-.06-.29-.09-.46h-.45c-.02,.14-.04,.28-.07,.45h-.4c.16-.73,.32-1.46,.48-2.2h.46c.16,.72,.32,1.44,.49,2.2Zm-.72-1.64s-.03,0-.04,0c-.04,.27-.08,.54-.12,.81h.32c-.04-.2-.07-.38-.1-.56-.02-.08-.04-.17-.06-.25Z"/><path class="cls-1" d="M46.31,24.24h-.55v.59h.65v.36h-1.03v-2.19h.98v.35h-.6v.5c.18,0,.35,.02,.55,.03v.37Z"/><path class="cls-1" d="M43.71,22.99c.4-.04,.4-.04,.46,.3,.06,.42,.13,.83,.24,1.25,.08-.51,.15-1.02,.23-1.55h.41c-.15,.74-.29,1.46-.44,2.2h-.46c-.15-.72-.29-1.45-.44-2.2Z"/><path class="cls-1" d="M43.91,21.18v.38c-.21,.01-.4,.02-.62,.03v.57h.65v.37h-1.01v-2.19h1.01v.35h-.65v.49h.62Z"/><path class="cls-1" d="M45.94,22.53v-2.2h.99v.35h-.62v.49c.19,0,.38,.02,.58,.03v.37h-.58v.58h.65v.38h-1.02Z"/><path class="cls-1" d="M48.51,21.59v.94h-.39v-2.2h.98c.11,.32,.08,.36-.25,.36-.1,0-.19,0-.31,0v.5h.56v.37c-.18,.01-.36,.02-.59,.04Z"/><path class="cls-1" d="M53.29,23.34c-.12,0-.23,.01-.38,.02v1.83h-.42v-1.83c-.14,0-.26-.01-.39-.02v-.35h1.18v.35Z"/><path class="cls-1" d="M49.88,23.36v1.82h-.37v-1.83h-.38v-.36h1.15v.34c-.12,0-.25,.02-.39,.03Z"/><path class="cls-1" d="M41.55,20.32h.35v1.83h.67v.37h-1.02v-2.2Z"/><path class="cls-1" d="M49.49,22.51v-2.19h.35v1.83h.68c0,.13,.01,.23,.02,.36h-1.04Z"/><path class="cls-1" d="M48.4,22.98h.33v2.21h-.33v-2.21Z"/><path class="cls-1" d="M53.64,22.98h.34v2.2h-.34v-2.2Z"/><path class="cls-1" d="M39.64,19.81v.25h-2.37c0-.08,0-.15-.01-.25h2.38Z"/><path class="cls-1" d="M62.48,19.81v.24h-2.34c0-.07-.02-.15-.03-.24h2.37Z"/><path class="cls-1" d="M38.48,20.44c.22,0,.44-.01,.66,0,.08,0,.15,.1,.22,.16-.07,.05-.15,.15-.23,.15-.44,.01-.88,.01-1.31,0-.08,0-.16-.09-.23-.14,.08-.06,.15-.16,.24-.17,.22-.02,.44,0,.66,0Z"/><path class="cls-1" d="M61.35,20.44c.22,0,.44-.01,.66,0,.07,0,.13,.1,.2,.16-.06,.05-.13,.15-.19,.15-.46,.01-.92,.01-1.37,0-.07,0-.13-.1-.2-.15,.07-.05,.13-.15,.2-.16,.24-.02,.48,0,.71,0Z"/><path class="cls-1" d="M49.83,68.3c-.54,.17-.96-.18-1.42-.59-.4-.36-.51-.72-.54-1.25-.03-.7,.17-1.2,.69-1.67,.39-.35,.74-.51,1.26-.53,.64-.02,1.09,.17,1.54,.63,.42,.43,.6,.85,.6,1.45,0,.58-.17,.99-.59,1.37-.61,.56-.59,.58-1.55,.58Zm-.01-.35c.87,0,.85-.02,1.37-.51,.34-.31,.42-.64,.41-1.09,0-.52-.18-.89-.55-1.26-.35-.34-.68-.49-1.17-.48-.46,0-.77,.14-1.11,.45-.42,.39-.6,.8-.57,1.37,.02,.42,.12,.71,.43,1,.38,.36,.73,.67,1.19,.51Z"/><path class="cls-1" d="M45.79,17.68c-.06,.05-.11,.14-.17,.14-.07,0-.2-.07-.2-.1,0-.11,.03-.23,.09-.32,.05-.06,.19-.05,.11-.2,0-.01,.06-.09,.1-.09,.05,0,.14,.03,.15,.07,.02,.08,0,.23-.01,.23-.21,.02-.01,.15-.06,.2,0,.02,0,.04,0,.06Z"/><path class="cls-1" d="M48.04,43.87c.08,.23,0,.35-.17,.47-1.24,.9-2.5,1.75-3.95,2.28-.54,.2-1.1,.33-1.68,.3-.9-.04-1.43-.59-1.45-1.48-.01-.73,.17-1.43,.48-2.07,.44-.9,.95-1.77,1.43-2.65,.05-.09,.11-.18,.16-.26-.57-.23-1.13-.44-1.67-.68-.53-.24-1.03-.54-1.43-.98-.48-.54-.49-1.14-.04-1.7,.34-.41,.78-.69,1.27-.89,.64-.26,1.3-.47,1.98-.72-.03-.05-.08-.13-.13-.21-.69-1.08-1.36-2.17-1.73-3.41-.14-.47-.23-.96-.24-1.45-.02-.88,.5-1.41,1.39-1.47,.68-.04,1.31,.15,1.92,.4,.37,.15,.74,.33,1.13,.5,.13-.76,.32-1.47,1.21-1.68,.59-.14,1.04,.11,1.46,.48,0,.02-.01,.05-.02,.07-.09-.02-.18-.04-.26-.07-.22-.1-.42-.23-.64-.3-.46-.13-.9,.07-1.05,.51-.13,.38-.17,.79-.22,1.19,0,.06,.08,.17,.15,.21,.28,.18,.57,.35,.85,.53,0,.03,0,.05,0,.08-.09,0-.19,.03-.26,0-.24-.12-.47-.27-.74-.43,0,1.59,.14,3.12,.51,4.63,.27-.02,.53-.04,.79-.06,0,.03,.01,.06,.02,.09-.21,.19-.51,.06-.75,.18-.03,.17,.03,.26,.22,.23,.17-.03,.35-.03,.52-.06,.09-.02,.18-.08,.24-.11-.04-.13-.12-.24-.09-.31,.03-.08,.16-.18,.23-.17,.36,.05,.52-.2,.7-.39-.34-.73-.53-1.46-.19-2.24,.19-.43,.4-.86,.57-1.31,.09-.22,.13-.46,.16-.69,.06-.48-.11-.74-.56-.95-.08-.04-.1-.17-.15-.26,.09-.03,.19-.11,.26-.08,.14,.05,.27,.13,.37,.23,.51,.5,.9,1.08,1.21,1.72,.07,.14,.18,.25,.28,.38,.25,.34,.5,.67,.78,1.05,0-.1,.04-.21,0-.26-.57-.68-1.06-1.42-1.48-2.2-.05-.08-.11-.16-.19-.22-.24-.18-.23-.39-.07-.61,.41-.57,.82-1.15,1.24-1.71,.08-.1,.24-.13,.36-.2-.02,.15,.01,.34-.06,.46-.13,.2-.32,.37-.49,.55-.61,.62-.65,1.05-.13,1.74,.21,.28,.47,.52,.72,.77,.17,.17,.35,.32,.49,.44-.09,.33-.16,.61-.23,.89,.04,.02,.08,.03,.12,.05,.05-.1,.14-.19,.16-.3,.11-.61,.59-.93,1.2-.78,.08,.02,.2-.02,.28-.07,.91-.57,1.83-1.1,2.85-1.44,.46-.15,.94-.25,1.41-.3,.97-.1,1.62,.48,1.69,1.46,.07,.95-.2,1.84-.63,2.67-.37,.74-.82,1.44-1.24,2.15-.04,.07-.09,.15-.14,.25,.34,.11,.67,.2,.99,.31,.68,.24,1.35,.51,1.88,1.04,.52,.52,.55,1.13,.09,1.7-.45,.55-1.05,.89-1.68,1.17-.43,.19-.88,.35-1.35,.54,.05,.08,.09,.16,.14,.24,.69,1.07,1.3,2.18,1.63,3.42,.16,.58,.24,1.18,.09,1.78-.16,.64-.59,.99-1.24,1.03-.86,.06-1.65-.22-2.42-.55-.26-.11-.52-.25-.78-.37-.11,.33-.19,.65-.32,.96-.35,.81-.99,1.06-1.76,.64-.37-.2-.72-.48-1.02-.78-.36-.35-.65-.77-.98-1.14-.09-.1-.24-.14-.36-.22-.35-.24-.69-.49-1.03-.74-.07-.05-.12-.15-.13-.23-.02-.18-.03-.37-.02-.55,.01-.6-.15-1.16-.45-1.68-.12-.2-.23-.42-.3-.65-.09-.3-.28-.36-.55-.4-1.16-.18-2.31-.38-3.46-.58-.17-.03-.28-.03-.39,.13-.75,1.06-1.46,2.14-1.9,3.38-.17,.49-.31,1-.21,1.53,.11,.61,.54,1.01,1.16,.98,.48-.03,.98-.12,1.44-.29,1.33-.48,2.49-1.27,3.64-2.07,.19-.13,.37-.26,.58-.41Zm2.35-9.51c.39-.45,.57-.91,.5-1.44-.06,.06-.1,.13-.12,.2-.04,.17-.07,.35-.11,.52-.15,.54-.44,.76-.99,.76-.09,0-.18,0-.26,0-.28,0-.49,.15-.6,.44,.97,0,1.94,0,2.91,0,.22,0,.47-.09,.61,.18,.01,.02,.08,.01,.13,.01,1.3,.09,2.59,.25,3.87,.55,.14,.03,.22,.02,.3-.11,.43-.76,.9-1.5,1.3-2.27,.36-.68,.62-1.41,.62-2.19-.01-1.05-.7-1.65-1.72-1.5-1.44,.22-2.63,1-3.82,1.76,.05,.23,.12,.44-.09,.61-.09-.13-.17-.25-.25-.37-.27,.13-.52,.26-.35,.62-.06-.08-.12-.17-.18-.25-.04,.08-.04,.14-.01,.19,.12,.22,.24,.43,.37,.64,.34,.56,.24,1.02-.16,1.59-.04,.05-.11,.08-.18,.09-.51,.07-.81-.25-.73-.76,.06-.36,0-.69-.24-.99-.02,.05-.02,.1-.01,.15,.03,.35,.12,.71,.09,1.06-.03,.44-.15,.5-.59,.5-.08,0-.15,0-.3,0Zm4.16,3.84c-.54-.61-1.07-1.2-1.6-1.79,.01-.03,.02-.05,.04-.08,.09,.04,.2,.05,.28,.11,.13,.1,.24,.23,.35,.36,.36,.39,.72,.78,1.11,1.2,.57-.75,1.11-1.48,1.68-2.22-.1-.03-.15-.05-.21-.06-1.37-.24-2.7-.59-4.13-.46-1.16,.1-2.34,.02-3.52,.03-.12,0-.23,.06-.34,.1l.03,.07c.71,0,1.42,0,2.14,0,1.13,0,2.26-.08,3.37,.14,.18,.04,.36,.09,.54,.14v.07c-.63,0-1.24,0-1.85,0-1.49,0-2.98,0-4.47,0-.12,0-.23,.06-.35,.1,0,.03,.02,.07,.02,.1h5.1c-.58,.37-.97,.86-1.21,1.48-.03,.07-.16,.13-.24,.13-1.05,0-2.1,0-3.15,0-.15,0-.21-.05-.26-.19-.14-.42-.38-.77-.74-1.05-.06,.06-.11,.12-.18,.16-.25,.16-.26,.37-.16,.63,.36,1,.71,2.01,1.07,3.01,.05,.15,.2,.26,.3,.38,.03-.02,.05-.03,.08-.05-.02-.42-.05-.83-.07-1.26h3.08v1.29c.17-.01,.34-.05,.5-.03,.55,.05,.96-.14,1.29-.59,.15-.19,.2-.33,.13-.56-.24-.76-.47-1.53-.7-2.3-.05-.16-.09-.31,.17-.37,.27,.89,.55,1.79,.83,2.71,.36-.41,.7-.8,1.07-1.22Zm-.62,3.04s0,.07,0,.12c.2,1.33,.37,2.67,.27,4.02,0,.07,.07,.18,.14,.21,.35,.19,.69,.38,1.05,.55,.56,.25,1.13,.44,1.76,.41,.57-.03,.98-.35,1.13-.9,.13-.46,.07-.91-.05-1.36-.33-1.28-1.01-2.4-1.73-3.48-.04-.06-.2-.09-.29-.07-.76,.16-1.51,.33-2.3,.5Zm-8.31-6.07c-.05-.33-.13-.64-.15-.96-.08-1.28-.14-2.57-.22-3.85,0-.08-.04-.19-.09-.21-.71-.37-1.43-.73-2.23-.85-1.02-.15-1.69,.49-1.58,1.51,.02,.23,.07,.45,.13,.67,.43,1.46,1.28,2.7,2.15,3.92,.04,.05,.14,.09,.2,.08,.59-.09,1.18-.2,1.79-.31Zm-.87,2.85c-.51-.7-1.02-1.38-1.51-2.07-.08-.11-.15-.15-.28-.11-.63,.24-1.28,.46-1.9,.72-.43,.19-.81,.47-1.09,.86-.33,.48-.29,.88,.15,1.26,.18,.15,.38,.29,.59,.4,.77,.41,1.61,.62,2.45,.82,.06,.01,.16-.02,.2-.07,.47-.6,.93-1.22,1.39-1.82Zm10.2,.21c.42,.55,.83,1.09,1.26,1.63,.04,.05,.15,.1,.21,.08,.79-.17,1.58-.36,2.29-.76,.32-.18,.62-.41,.86-.68,.3-.33,.29-.74,.02-1.09-.19-.24-.42-.45-.68-.62-.64-.43-1.38-.66-2.12-.86-.06-.02-.18,.02-.21,.07-.55,.73-1.08,1.48-1.63,2.23Zm-3.76,3.19c-.04,.6-.07,1.16-.09,1.71,0,.08,.07,.18,.14,.23,.84,.63,1.69,1.26,2.54,1.89,.05,.04,.12,.06,.2,.1,.12-1.41-.07-2.76-.37-4.1-.41,.05-.79,.1-1.18,.15-.29,.04-.57,.09-.84,.13-.12-.03-.25-.06-.41-.1Zm2.77,4.69c-1-.66-1.93-1.28-2.84-1.88-.05,.2-.05,.44-.16,.6-.12,.18-.35,.28-.54,.43,.08,.11,.14,.2,.21,.3,.14-.08,.26-.15,.38-.23,0,.21,0,.4,0,.58,0,.09,0,.21,.06,.27,.39,.4,.77,.83,1.21,1.17,.44,.34,.87,.24,1.17-.24,.21-.32,.34-.69,.49-1.01Zm-7.05-5.59s.02-.04,.03-.07c-.58-.64-1.16-1.28-1.74-1.93-.42,.53-.83,1.03-1.28,1.6,1.05,.14,2.02,.27,3,.4Zm9.15-.45c-.45-.58-.86-1.11-1.29-1.66-.38,.42-.74,.81-1.09,1.2-.04,.05-.06,.15-.05,.21,.03,.18,.08,.35,.13,.56,.76-.11,1.5-.21,2.31-.33Zm-10.37-4.44c.03-.28-.07-.33-.31-.28-.51,.1-1.03,.18-1.6,.28,.53,.65,1.01,1.24,1.5,1.84,.14-.16,.24-.31,.37-.42,.26-.23,.33-.46,.21-.81-.14-.41-.11-.42-.54-.46,0,0-.02-.02-.03-.05,.14-.04,.27-.07,.41-.11Zm2.78-1.49c.24-.13,.35-.28,.32-.56-.02-.21,.07-.44,.13-.66,.07-.3,.19-.59,.23-.89,.06-.46,.04-.93-.17-1.36,.16,.85-.03,1.62-.47,2.35-.2,.34-.16,.73-.05,1.13Zm.69-.66s.05,.02,.08,.04c.25-.21,.5-.41,.74-.62,.25-.21,.25-.59,.01-.81-.18-.16-.3-.14-.4,.09-.11,.26-.22,.52-.31,.78-.06,.17-.08,.35-.12,.52Zm-2.67,5.32s.02-.02,.03-.03c-.12-.43-.24-.86-.36-1.32-.16,.17-.31,.32-.46,.48,.27,.3,.53,.58,.79,.87Zm6.89,1.13c-.16,.18-.29,.32-.45,.5,.22-.02,.37-.03,.55-.04-.03-.15-.06-.27-.1-.46Z"/><path class="cls-1" d="M49.78,49.77c.59,0,1.05,.49,1.03,1.08-.01,.58-.51,1.05-1.08,1.03-.56-.01-1.03-.5-1.02-1.06,0-.57,.5-1.05,1.07-1.04Z"/><path class="cls-1" d="M46.68,32.55c-.43-.55-.26-1.37,.32-1.66,.43-.22,1.04,.15,1.06,.63,0,.05-.03,.12-.06,.17-.55,.89-.64,1.79-.04,2.72-.26,.07-.44,.01-.59-.22-.24-.38-.34-.76-.14-1.2,.08-.18,.13-.38,.18-.58,.02-.08,.03-.18,0-.26-.04-.21-.15-.42-.38-.42-.24,0-.32,.22-.35,.43-.02,.12,0,.24,0,.39Z"/><path class="cls-1" d="M50.72,48.3c-.51,.49-.54,.91-.05,1.29h-1.72c.07-.19,.23-.42,.21-.64-.01-.23-.19-.44-.29-.65h1.86Z"/><path class="cls-1" d="M51.61,30.81c-.05,.04-.1,.09-.15,.13-.03,0-.05,0-.06-.02-.41-.4-.84-.78-1.22-1.21-.44-.5-.36-1.09,.15-1.46-.15,1.15,.61,1.81,1.28,2.56Z"/><path class="cls-1" d="M48.53,46.99c.42-.29,.78-.54,1.14-.78,.04-.03,.14-.01,.18,.02,.33,.24,.65,.48,1.02,.76h-2.35Z"/><path class="cls-1" d="M49.45,45.91c-.3,.2-.55,.37-.86,.57v-1.2c.27,.2,.55,.4,.86,.63Z"/><path class="cls-1" d="M50.98,48.04h-2.44c.03-.22,.03-.23,.21-.23,.69,0,1.37,0,2.06,0,.08,0,.15,.09,.23,.14-.02,.03-.04,.06-.06,.09Z"/><path class="cls-1" d="M48.65,47.4h2.25c.05,.13,.03,.21-.14,.21-.66,0-1.32,0-1.98,0-.06,0-.12-.09-.18-.13,.02-.02,.03-.04,.05-.07Z"/><path class="cls-1" d="M53.06,17.8s-.08,.07-.11,.1c-.06-.08-.12-.17-.19-.26-.08,.03-.15,.07-.22,.1-.03-.08-.07-.17-.1-.26-.02-.07-.05-.16-.03-.21,.1-.16,.22-.32,.35-.46,.02-.03,.19,.02,.21,.06,.06,.16,.09,.33,.14,.54,.14-.03,.29-.06,.44-.1,0-.08,0-.16-.01-.25h.29c0,.09,0,.17-.01,.25,.16,.07,.32,.13,.48,.2-.39,.28,.08,.49,.09,.78,.08-.08,.14-.14,.2-.2-.05-.09-.09-.16-.16-.28,.13,.05,.21,.09,.3,.13v-.32c-.11-.08-.31,.14-.37-.06,.13-.04,.25-.11,.36-.11,.19,0,.39,.01,.58,.06,.04,0,.07,.17,.06,.26,0,.07-.08,.13-.12,.2,.08,.24,.44-.1,.47,.23,.13-.06,.25-.13,.37-.19,0-.02-.01-.03-.02-.05-.1,0-.19,.01-.36,.03,.14-.16,.25-.28,.36-.38,0,0,.13,.12,.22,.2,.02-.02,.07-.06,.15-.13,.06,.11,.1,.25,.19,.32,.08,.06,.21,.05,.33,.12-.09,0-.18,0-.27,.03-.07,.02-.13,.07-.19,.11,.01,.02,.02,.04,.04,.06,.13,.02,.27,.03,.43,.05-.26,.36-.26,.38-.02,.59-.45,.02-.89,.04-1.31,.07-.04-.12-.06-.19-.09-.27-.03,0-.05,0-.08,.01-.01,.09-.03,.18-.05,.27h-1.18c-.05-.23-.09-.44-.13-.64-.26,.07-.14,.16-.08,.26,.06,.1,.09,.22,.14,.37h-.48c0-.1,0-.2,0-.3-.01-.11-.03-.21-.06-.39-.01,.11-.01,.16-.02,.2,0,.03-.06,.08-.05,.09,.12,.2,0,.26-.17,.29,.03,.03,.06,.05,.08,.08-.02,.01-.03,.03-.04,.03-.17,0-.34,.03-.49-.02-.25-.08-.34-.36-.15-.56,.19-.2,.18-.43,.26-.65,.21,.12,.41,.13,.67-.11-.15,0-.23,0-.31,0-.02,0-.05-.01-.06-.02-.18-.16-.23-.14-.3,.15Zm1.53,.68s-.06,0-.08,0c-.08,.13-.16,.27-.25,.4,.03,.03,.05,.05,.08,.08,.1-.09,.21-.18,.3-.29,.02-.03-.03-.12-.05-.19Z"/><path class="cls-1" d="M42.32,18.62s.1,.09,.11,.15c.01,.07-.02,.14-.04,.21-.05-.03-.1-.06-.15-.08-.07-.03-.13-.06-.2-.06-.02,0-.05,.08-.09,.15-.38,.06-1.69-.03-1.84-.13,.1-.09,.2-.18,.32-.26,.08-.06,.16-.11,.25-.13,.22-.06,.45-.09,.67-.14,.05-.01,.08-.08,.13-.11,.06-.03,.13-.05,.2-.08,.01,.03,.03,.05,.04,.08-.05,.06-.1,.11-.16,.18,.24,.08,.1,.17-.05,.26,.03,.02,.06,.04,.09,.06,.05-.03,.13-.05,.15-.09,.1-.17,.17-.36,.29-.53,.07-.09,.19-.15,.32-.25,.03,.39-.24,.5-.41,.64,.15,.06,.27,.1,.39,.15,0,0,0,0,0,0Z"/><path class="cls-1" d="M57.73,18.87c-.04,.05-.07,.09-.1,.13-.02,0-.04-.02-.06-.03,.05-.09,.07-.21,.14-.27,.22-.18,.45-.34,.68-.49,.04-.03,.18,.02,.18,.04,0,.22,.17,.19,.3,.19,.16,0,.28,.04,.36,.2,.06,.1,.18,.17,.27,.26-.25,.12-.36-.09-.49-.26-.07,.06-.13,.12-.2,.18,.08,.04,.15,.07,.23,.11,0,.02-.02,.05-.03,.07-.39,.03-.76-.03-1.03-.39q-.08,.22,.19,.38c-.31,.11-.38,.09-.46-.1Z"/><path class="cls-1" d="M57.24,18.45c-.06-.02-.11-.03-.15-.04,0-.02,0-.04-.01-.06,.24-.08,.48-.17,.79-.27-.06,.16-.09,.22-.12,.31-.06-.03-.11-.05-.16-.08-.07,.12-.14,.24-.21,.36,.06,.07,.11,.13,.17,.2-.12,.18-.24,.12-.37,.03-.24-.18-.06-.3,.07-.43Z"/><path class="cls-1" d="M51.41,38.1c-.02,.22-.03,.41-.05,.63h-3.18c-.02-.21-.04-.42-.06-.63h3.3Z"/></g></g><g id="grid"><rect class="cls-2" width="4.92" height="4.92"/><rect class="cls-2" x="94.94" width="5.06" height="5.06"/></g></svg>