<?xml version="1.0" encoding="UTF-8"?><svg xmlns="http://www.w3.org/2000/svg" viewBox="0 0 100 100"><defs><style>.cls-1{fill:#f9f9f9;}.cls-2{fill:none;}</style></defs><g id="consorcio-juridico"><g><rect class="cls-1" x="4.99" y="59.16" width="90.02" height="1.29"/><rect class="cls-1" x="4.99" y="78.63" width="90.02" height="1.29"/><path class="cls-1" d="M38.94,70.3c-.5,0-.8,.21-.96,.38-.24,.26-.35,.62-.32,1.03,.03,.47,.19,.9,.4,1.3-.62,.53-1.19,1.13-1.18,1.9,0,.65,.19,1.13,.54,1.43,.26,.22,.6,.34,1.02,.34,.13,0,.26-.01,.4-.03,.36-.05,.93-.17,1.35-.46h0s.02,0,.02-.02c0,0,.01,0,.02-.01,.03-.02,.06-.05,.11-.09l.39,.55,.77-.56-.53-.73c.14-.22,.27-.47,.36-.78l-.91-.28c-.02,.05-.04,.1-.06,.15-.12-.16-.27-.32-.44-.51-.2-.21-.41-.45-.61-.7,.4-.33,.76-.65,.93-1,.3-.63,.13-1.07,0-1.28-.25-.39-.73-.63-1.31-.63Zm.83,4.97s0,0,0,0c0,.01-.02,.03-.04,.04-.05,.04-.08,.06-.08,.07h0c-.17,.12-.51,.24-.95,.3-.33,.04-.56,.02-.67-.08-.16-.14-.2-.47-.2-.72,0-.34,.35-.73,.76-1.08,.21,.27,.44,.52,.64,.74,.02,.03,.05,.06,.08,.08l.47,.65Zm-.38-3.48c-.08,.16-.32,.38-.58,.6-.11-.24-.19-.49-.2-.75,0-.13,.02-.25,.07-.31,.06-.06,.18-.08,.26-.08,.25,0,.44,.09,.5,.18,.06,.1,0,.26-.05,.35Z"/><path class="cls-1" d="M10.32,72.93c.15-.25,.22-.54,.22-.88s-.07-.63-.22-.88-.36-.44-.62-.58c-.27-.14-.58-.21-.94-.21h-2.44v5.78h.86v-2.44h1.29l1.31,2.44h1.02l-1.42-2.54c.11-.03,.22-.06,.32-.11,.27-.14,.47-.33,.62-.58Zm-.92-.22c-.15,.16-.35,.25-.61,.25h-1.61v-1.8h1.61c.25,0,.45,.08,.61,.25,.15,.16,.23,.38,.23,.65s-.08,.49-.23,.65Z"/><path class="cls-1" d="M15.16,70.6c-.32-.18-.7-.26-1.14-.26s-.81,.09-1.14,.26-.58,.42-.76,.74-.27,.69-.27,1.12v1.64c0,.43,.09,.8,.27,1.12s.43,.57,.76,.74c.32,.18,.7,.26,1.14,.26s.81-.09,1.14-.26c.32-.18,.58-.42,.76-.74s.27-.69,.27-1.12v-1.64c0-.43-.09-.8-.27-1.12s-.43-.57-.76-.74Zm.14,3.53c0,.39-.12,.71-.35,.95-.23,.24-.54,.36-.93,.36s-.69-.12-.93-.36c-.23-.24-.35-.55-.35-.95v-1.69c0-.39,.12-.71,.35-.95,.23-.24,.54-.36,.93-.36s.7,.12,.93,.36c.23,.24,.35,.55,.35,.95v1.69Z"/><path class="cls-1" d="M17.63,76.04c.28,.12,.58,.19,.9,.19,.61,0,1.09-.17,1.42-.5,.33-.33,.5-.8,.5-1.4v-3.94h-.86v3.94c0,.35-.09,.63-.28,.83s-.45,.29-.78,.29c-.2,0-.37-.04-.52-.11s-.26-.17-.34-.3l-.71,.48c.17,.23,.4,.4,.67,.52Z"/><path class="cls-1" d="M22.28,76.17l.46-1.27h2.48l.46,1.27h.93l-2.27-5.77h-.74l-2.27,5.77h.93Zm1.71-4.66l.96,2.62h-1.92l.96-2.62Z"/><path class="cls-1" d="M27.31,72.02h0c0,.34,.06,.61,.18,.81,.12,.2,.28,.36,.48,.46s.41,.19,.65,.24c.24,.05,.47,.09,.7,.13,.24,.04,.46,.08,.66,.14,.2,.06,.36,.14,.49,.26s.19,.28,.19,.5h0c0,.28-.12,.5-.37,.66-.25,.16-.59,.23-1.04,.23-.33,0-.64-.05-.92-.14s-.54-.24-.77-.43l-.54,.62c.2,.16,.42,.29,.65,.4,.23,.11,.48,.19,.74,.24,.26,.05,.55,.08,.84,.08,.72,0,1.27-.15,1.67-.44,.4-.29,.59-.7,.59-1.24h0c0-.32-.06-.58-.17-.77-.11-.2-.26-.35-.44-.46s-.39-.2-.62-.26c-.23-.06-.45-.11-.68-.15-.25-.05-.49-.1-.7-.15-.22-.05-.4-.14-.53-.25-.14-.11-.2-.28-.2-.5h0c0-.29,.12-.52,.35-.67s.56-.24,.98-.24c.23,0,.47,.04,.7,.12s.47,.2,.7,.37l.49-.64c-.3-.2-.61-.36-.92-.45s-.64-.15-.97-.15c-.69,0-1.23,.15-1.61,.44s-.57,.71-.57,1.25Z"/><path class="cls-1" d="M48.32,76.17l.46-1.27h2.48l.46,1.27h.93l-2.27-5.77h-.74l-2.27,5.77h.93Zm1.71-4.66l.96,2.62h-1.92l.96-2.62Z"/><path class="cls-1" d="M56.33,75.23c-.25,.16-.59,.23-1.04,.23-.33,0-.64-.05-.92-.14s-.54-.24-.77-.43l-.54,.62c.2,.16,.42,.29,.65,.4,.23,.11,.48,.19,.74,.24,.26,.05,.55,.08,.84,.08,.72,0,1.27-.15,1.67-.44,.4-.29,.59-.7,.59-1.24h0c0-.32-.06-.58-.17-.77-.11-.2-.26-.35-.44-.46s-.39-.2-.62-.26c-.23-.06-.45-.11-.68-.15-.25-.05-.49-.1-.7-.15-.22-.05-.4-.14-.53-.25-.14-.11-.2-.28-.2-.5h0c0-.29,.12-.52,.35-.67s.56-.24,.98-.24c.23,0,.47,.04,.7,.12s.47,.2,.7,.37l.49-.64c-.3-.2-.61-.36-.92-.45s-.64-.15-.97-.15c-.69,0-1.23,.15-1.61,.44s-.57,.71-.57,1.25h0c0,.34,.06,.61,.18,.81,.12,.2,.28,.36,.48,.46s.41,.19,.65,.24c.24,.05,.47,.09,.7,.13,.24,.04,.46,.08,.66,.14,.2,.06,.36,.14,.49,.26s.19,.28,.19,.5h0c0,.28-.12,.5-.37,.66Z"/><path class="cls-1" d="M59.69,70.6c-.32,.18-.58,.42-.76,.74s-.27,.69-.27,1.12v1.64c0,.43,.09,.8,.27,1.12s.43,.57,.76,.74c.32,.18,.7,.26,1.14,.26s.81-.09,1.14-.26c.32-.18,.58-.42,.76-.74s.27-.69,.27-1.12v-1.64c0-.43-.09-.8-.27-1.12s-.43-.57-.76-.74c-.32-.18-.7-.26-1.14-.26s-.81,.09-1.14,.26Zm2.42,1.84v1.69c0,.39-.12,.71-.35,.95-.23,.24-.54,.36-.93,.36s-.69-.12-.93-.36c-.23-.24-.35-.55-.35-.95v-1.69c0-.39,.12-.71,.35-.95,.23-.24,.54-.36,.93-.36s.7,.12,.93,.36c.23,.24,.35,.55,.35,.95Z"/><path class="cls-1" d="M65.29,70.6c-.32,.18-.57,.43-.75,.75-.18,.32-.27,.7-.27,1.14v1.58c0,.43,.09,.81,.27,1.13s.43,.57,.75,.75c.32,.18,.7,.27,1.13,.27,.36,0,.68-.07,.97-.21,.29-.14,.54-.34,.74-.6s.34-.56,.41-.9h-.88c-.08,.3-.24,.53-.48,.69-.24,.16-.49,.24-.76,.24-.38,0-.68-.12-.91-.37s-.34-.58-.34-.99v-1.58c0-.41,.11-.74,.34-.99,.23-.25,.53-.38,.91-.38,.18,0,.36,.04,.53,.12,.17,.08,.32,.18,.44,.32,.13,.14,.22,.3,.27,.49h.88c-.07-.34-.21-.64-.4-.9-.2-.26-.45-.46-.74-.6-.29-.14-.62-.21-.98-.21-.43,0-.8,.09-1.13,.27Z"/><rect class="cls-1" x="69.87" y="70.39" width=".86" height="5.77"/><path class="cls-1" d="M72.69,76.17l.46-1.27h2.48l.46,1.27h.93l-2.27-5.77h-.74l-2.27,5.77h.93Zm1.71-4.66l.96,2.62h-1.92l.96-2.62Z"/><path class="cls-1" d="M79.01,70.39h-.86v5.77h1.95c.5,0,.92-.08,1.27-.24s.62-.4,.8-.71c.18-.31,.27-.68,.27-1.12v-1.64c0-.66-.2-1.17-.61-1.53-.41-.36-.98-.54-1.73-.54h-1.09Zm2.17,1.1c.25,.22,.37,.53,.37,.94v1.7c0,.4-.12,.71-.37,.94-.25,.22-.6,.33-1.06,.33h-1.11v-4.23h1.11c.45,0,.81,.11,1.06,.33Z"/><path class="cls-1" d="M87.02,70.6c-.32-.18-.7-.26-1.14-.26s-.81,.09-1.14,.26-.58,.42-.76,.74-.27,.69-.27,1.12v1.64c0,.43,.09,.8,.27,1.12s.43,.57,.76,.74c.32,.18,.7,.26,1.14,.26s.81-.09,1.14-.26c.32-.18,.58-.42,.76-.74s.27-.69,.27-1.12v-1.64c0-.43-.09-.8-.27-1.12s-.43-.57-.76-.74Zm.14,3.53c0,.39-.12,.71-.35,.95-.23,.24-.54,.36-.93,.36s-.69-.12-.93-.36c-.23-.24-.35-.55-.35-.95v-1.69c0-.39,.12-.71,.35-.95,.23-.24,.54-.36,.93-.36s.7,.12,.93,.36c.23,.24,.35,.55,.35,.95v1.69Z"/><path class="cls-1" d="M90.57,71.33c.23-.16,.56-.24,.98-.24,.23,0,.47,.04,.7,.12s.47,.2,.7,.37l.49-.64c-.3-.2-.61-.36-.92-.45s-.64-.15-.97-.15c-.69,0-1.23,.15-1.61,.44s-.57,.71-.57,1.25h0c0,.34,.06,.61,.18,.81,.12,.2,.28,.36,.48,.46s.41,.19,.65,.24c.24,.05,.47,.09,.7,.13,.24,.04,.46,.08,.66,.14,.2,.06,.36,.14,.49,.26s.19,.28,.19,.5h0c0,.28-.12,.5-.37,.66-.25,.16-.59,.23-1.04,.23-.33,0-.64-.05-.92-.14s-.54-.24-.77-.43l-.54,.62c.2,.16,.42,.29,.65,.4,.23,.11,.48,.19,.74,.24,.26,.05,.55,.08,.84,.08,.72,0,1.27-.15,1.67-.44,.4-.29,.59-.7,.59-1.24h0c0-.32-.06-.58-.17-.77-.11-.2-.26-.35-.44-.46s-.39-.2-.62-.26c-.23-.06-.45-.11-.68-.15-.25-.05-.49-.1-.7-.15-.22-.05-.4-.14-.53-.25-.14-.11-.2-.28-.2-.5h0c0-.29,.12-.52,.35-.67Z"/><path class="cls-1" d="M7.42,64.1c.23-.25,.53-.38,.91-.38,.18,0,.36,.04,.53,.12,.17,.08,.32,.18,.44,.32,.13,.14,.22,.3,.27,.49h.88c-.07-.34-.21-.64-.4-.9-.2-.26-.45-.46-.74-.6-.29-.14-.62-.21-.98-.21-.43,0-.8,.09-1.13,.27-.32,.18-.57,.43-.75,.75-.18,.32-.27,.7-.27,1.14v1.58c0,.43,.09,.81,.27,1.13s.43,.57,.75,.75c.32,.18,.7,.27,1.13,.27,.36,0,.68-.07,.97-.21,.29-.14,.54-.34,.74-.6s.34-.56,.41-.9h-.88c-.08,.3-.24,.53-.48,.69-.24,.16-.49,.24-.76,.24-.38,0-.68-.12-.91-.37s-.34-.58-.34-.99v-1.58c0-.41,.11-.74,.34-.99Z"/><path class="cls-1" d="M14.87,63.2c-.32-.18-.7-.26-1.14-.26s-.81,.09-1.14,.26-.58,.42-.76,.74-.27,.69-.27,1.12v1.64c0,.43,.09,.8,.27,1.12s.43,.57,.76,.74c.32,.18,.7,.26,1.14,.26s.81-.09,1.14-.26c.32-.18,.58-.42,.76-.74s.27-.69,.27-1.12v-1.64c0-.43-.09-.8-.27-1.12s-.43-.57-.76-.74Zm.14,3.53c0,.39-.12,.71-.35,.95-.23,.24-.54,.36-.93,.36s-.69-.12-.93-.36c-.23-.24-.35-.55-.35-.95v-1.69c0-.39,.12-.71,.35-.95,.23-.24,.54-.36,.93-.36s.7,.12,.93,.36c.23,.24,.35,.55,.35,.95v1.69Z"/><polygon class="cls-1" points="21.08 67.31 18.17 63 17.39 63 17.39 68.77 18.24 68.77 18.24 64.52 21.14 68.77 21.94 68.77 21.94 63 21.08 63 21.08 67.31"/><path class="cls-1" d="M26.53,67.83c-.25,.16-.59,.23-1.04,.23-.33,0-.64-.05-.92-.14s-.54-.24-.77-.43l-.54,.62c.2,.16,.42,.29,.65,.4,.23,.11,.48,.19,.74,.24,.26,.05,.55,.08,.84,.08,.72,0,1.27-.15,1.67-.44,.4-.29,.59-.7,.59-1.24h0c0-.32-.06-.58-.17-.77-.11-.2-.26-.35-.44-.46s-.39-.2-.62-.26c-.23-.06-.45-.11-.68-.15-.25-.05-.49-.1-.7-.15-.22-.05-.4-.14-.53-.25-.14-.11-.2-.28-.2-.5h0c0-.29,.12-.52,.35-.67s.56-.24,.98-.24c.23,0,.47,.04,.7,.12s.47,.2,.7,.37l.49-.64c-.3-.2-.61-.36-.92-.45s-.64-.15-.97-.15c-.69,0-1.23,.15-1.61,.44s-.57,.71-.57,1.25h0c0,.34,.06,.61,.18,.81,.12,.2,.28,.36,.48,.46s.41,.19,.65,.24c.24,.05,.47,.09,.7,.13,.24,.04,.46,.08,.66,.14,.2,.06,.36,.14,.49,.26s.19,.28,.19,.5h0c0,.28-.12,.5-.37,.66Z"/><path class="cls-1" d="M29.89,68.57c.32,.18,.7,.26,1.14,.26s.81-.09,1.14-.26c.32-.18,.58-.42,.76-.74s.27-.69,.27-1.12v-1.64c0-.43-.09-.8-.27-1.12s-.43-.57-.76-.74c-.32-.18-.7-.26-1.14-.26s-.81,.09-1.14,.26-.58,.42-.76,.74-.27,.69-.27,1.12v1.64c0,.43,.09,.8,.27,1.12s.43,.57,.76,.74Zm-.14-3.53c0-.39,.12-.71,.35-.95,.23-.24,.54-.36,.93-.36s.7,.12,.93,.36c.23,.24,.35,.55,.35,.95v1.69c0,.39-.12,.71-.35,.95-.23,.24-.54,.36-.93,.36s-.69-.12-.93-.36c-.23-.24-.35-.55-.35-.95v-1.69Z"/><path class="cls-1" d="M38.69,65.54c.15-.25,.22-.54,.22-.88s-.07-.63-.22-.88-.36-.44-.62-.58c-.27-.14-.58-.21-.94-.21h-2.44v5.78h.86v-2.44h1.29l1.31,2.44h1.02l-1.42-2.54c.11-.03,.22-.06,.32-.11,.27-.14,.47-.33,.62-.58Zm-.92-.22c-.15,.16-.35,.25-.61,.25h-1.61v-1.8h1.61c.25,0,.45,.08,.61,.25,.15,.16,.23,.38,.23,.65s-.08,.49-.23,.65Z"/><path class="cls-1" d="M41.46,64.1c.23-.25,.53-.38,.91-.38,.18,0,.36,.04,.53,.12,.17,.08,.32,.18,.44,.32,.13,.14,.22,.3,.27,.49h.88c-.07-.34-.21-.64-.4-.9-.2-.26-.45-.46-.74-.6-.29-.14-.62-.21-.98-.21-.43,0-.8,.09-1.13,.27-.32,.18-.57,.43-.75,.75-.18,.32-.27,.7-.27,1.14v1.58c0,.43,.09,.81,.27,1.13s.43,.57,.75,.75c.32,.18,.7,.27,1.13,.27,.36,0,.68-.07,.97-.21,.29-.14,.54-.34,.74-.6s.34-.56,.41-.9h-.88c-.08,.3-.24,.53-.48,.69-.24,.16-.49,.24-.76,.24-.38,0-.68-.12-.91-.37s-.34-.58-.34-.99v-1.58c0-.41,.11-.74,.34-.99Z"/><rect class="cls-1" x="45.81" y="63" width=".86" height="5.77"/><path class="cls-1" d="M49.28,68.57c.32,.18,.7,.26,1.14,.26s.81-.09,1.14-.26c.32-.18,.58-.42,.76-.74s.27-.69,.27-1.12v-1.64c0-.43-.09-.8-.27-1.12s-.43-.57-.76-.74c-.32-.18-.7-.26-1.14-.26s-.81,.09-1.14,.26-.58,.42-.76,.74-.27,.69-.27,1.12v1.64c0,.43,.09,.8,.27,1.12s.43,.57,.76,.74Zm-.14-3.53c0-.39,.12-.71,.35-.95,.23-.24,.54-.36,.93-.36s.7,.12,.93,.36c.23,.24,.35,.55,.35,.95v1.69c0,.39-.12,.71-.35,.95-.23,.24-.54,.36-.93,.36s-.69-.12-.93-.36c-.23-.24-.35-.55-.35-.95v-1.69Z"/><path class="cls-1" d="M58.67,66.93c0,.35-.09,.63-.28,.83s-.45,.29-.78,.29c-.2,0-.37-.04-.52-.11s-.26-.17-.34-.3l-.71,.48c.17,.23,.4,.4,.67,.52,.28,.12,.58,.19,.9,.19,.61,0,1.09-.17,1.42-.5,.33-.33,.5-.8,.5-1.4v-3.94h-.86v3.94Z"/><path class="cls-1" d="M61.15,63v3.69c0,.68,.19,1.21,.57,1.59,.38,.37,.91,.56,1.59,.56s1.22-.19,1.6-.56c.38-.37,.57-.9,.57-1.59v-3.69h-.86v3.71c0,.42-.11,.75-.34,.98-.23,.23-.55,.35-.96,.35s-.73-.12-.96-.35c-.23-.23-.34-.56-.34-.98v-3.71h-.86Z"/><path class="cls-1" d="M71.02,65.54c.15-.25,.22-.54,.22-.88s-.07-.63-.22-.88-.36-.44-.62-.58c-.27-.14-.58-.21-.94-.21h-2.44v5.78h.86v-2.44h1.29l1.31,2.44h1.02l-1.42-2.54c.11-.03,.22-.06,.32-.11,.27-.14,.47-.33,.62-.58Zm-.92-.22c-.15,.16-.35,.25-.61,.25h-1.61v-1.8h1.61c.25,0,.45,.08,.61,.25,.15,.16,.23,.38,.23,.65s-.08,.49-.23,.65Z"/><rect class="cls-1" x="72.85" y="63" width=".86" height="5.77"/><path class="cls-1" d="M77.37,63h-1.95v5.77h1.95c.5,0,.92-.08,1.27-.24s.62-.4,.8-.71c.18-.31,.27-.68,.27-1.12v-1.64c0-.66-.2-1.17-.61-1.53-.41-.36-.98-.54-1.73-.54Zm1.46,3.74c0,.4-.12,.71-.37,.94-.25,.22-.6,.33-1.06,.33h-1.11v-4.23h1.11c.45,0,.81,.11,1.06,.33,.25,.22,.37,.53,.37,.94v1.7Z"/><rect class="cls-1" x="81.21" y="63" width=".86" height="5.77"/><path class="cls-1" d="M84.88,64.1c.23-.25,.53-.38,.91-.38,.18,0,.36,.04,.53,.12,.17,.08,.32,.18,.44,.32,.13,.14,.22,.3,.27,.49h.88c-.07-.34-.21-.64-.4-.9-.2-.26-.45-.46-.74-.6-.29-.14-.62-.21-.98-.21-.43,0-.8,.09-1.13,.27-.32,.18-.57,.43-.75,.75-.18,.32-.27,.7-.27,1.14v1.58c0,.43,.09,.81,.27,1.13s.43,.57,.75,.75c.32,.18,.7,.27,1.13,.27,.36,0,.68-.07,.97-.21,.29-.14,.54-.34,.74-.6s.34-.56,.41-.9h-.88c-.08,.3-.24,.53-.48,.69-.24,.16-.49,.24-.76,.24-.38,0-.68-.12-.91-.37s-.34-.58-.34-.99v-1.58c0-.41,.11-.74,.34-.99Z"/><path class="cls-1" d="M92.33,63.2c-.32-.18-.7-.26-1.14-.26s-.81,.09-1.14,.26-.58,.42-.76,.74-.27,.69-.27,1.12v1.64c0,.43,.09,.8,.27,1.12s.43,.57,.76,.74c.32,.18,.7,.26,1.14,.26s.81-.09,1.14-.26c.32-.18,.58-.42,.76-.74s.27-.69,.27-1.12v-1.64c0-.43-.09-.8-.27-1.12s-.43-.57-.76-.74Zm.14,3.53c0,.39-.12,.71-.35,.95-.23,.24-.54,.36-.93,.36s-.69-.12-.93-.36c-.23-.24-.35-.55-.35-.95v-1.69c0-.39,.12-.71,.35-.95,.23-.24,.54-.36,.93-.36s.7,.12,.93,.36c.23,.24,.35,.55,.35,.95v1.69Z"/><path class="cls-1" d="M39.75,48.83c5.38,0,7-6.16,7-6.16,.12-.38-4.71-10.7-5.82-13.07,1.6-.77,2.78-2.12,4.1-2.01,1.62,.14,3.15,1.66,3.48,2.5,.28,.69,.28,1.4,.27,1.63-.32,.29-.75,.72-.75,1.06,0,.31,.4,.68,.74,.94v10.4s-2.2,4.19-2.2,4.67v2.57s-3.15,2.41-3.15,3.59,4.66,1.72,6.74,1.72h.02c2.09,0,6.74-.54,6.74-1.72s-3.15-3.59-3.15-3.59v-2.57c0-.47-2.2-4.67-2.2-4.67v-10.24c.34-.29,.96-.86,.95-1.13-.02-.29-.47-.76-.95-1.09,0-.29,.02-.94,.28-1.57,.34-.85,1.86-2.37,3.48-2.5,1.31-.11,2.49,1.24,4.1,2.01-1.12,2.38-5.94,12.69-5.82,13.07,0,0,1.62,6.16,7,6.16s6.7-6.16,6.7-6.16c.09-.35-4.78-9.9-6.12-12.59,1.93,.06,3.03-1.8,2.97-3.1-.07-1.42-1.73-2.47-1.29-1.25,.44,1.22-.03,2-1.62,2.27s-1.69-.34-2.81-1.12c-1.12-.78-3.08-2.27-4.7-2.16-1.09,.07-2.33,1.03-3.02,1.65v-1.64c.82-.35,1.79-1.35,1.79-2.19,0-1.03-1.52-2.45-2.33-2.45s-2.33,1.42-2.33,2.45c0,.83,.97,1.83,1.79,2.19v1.66c-.69-.62-1.94-1.6-3.04-1.67-1.62-.1-3.59,1.39-4.7,2.16-1.12,.78-1.22,1.39-2.81,1.12s-2.06-1.05-1.62-2.27c.44-1.22-1.22-.17-1.29,1.25-.06,1.3,1.04,3.17,2.97,3.1-1.34,2.69-6.21,12.24-6.12,12.59,0,0,1.32,6.16,6.7,6.16Zm26.6-6.16h-11.7c.66-1.63,4.31-9.66,5.62-12.54l6.09,12.54Zm-26.23-12.54c1.31,2.87,4.96,10.91,5.62,12.54h-11.7l6.09-12.54Z"/></g></g><g id="grid"><rect class="cls-2" width="4.92" height="4.92"/><rect class="cls-2" x="94.94" width="5.06" height="5.06"/></g></svg>