<?xml version="1.0" encoding="UTF-8"?><svg xmlns="http://www.w3.org/2000/svg" viewBox="0 0 100 100"><defs><style>.cls-1{fill:#f9f9f9;}.cls-2{fill:none;}</style></defs><g id="yinlu"><g><path class="cls-1" d="M58.1,69.75h-3.27l-.15,.88h-7.93v.81h3.24c-.07,.73-.37,2.25-1.56,2.73-1.58,.64-3.3,.61-3.17,.91,.13,.3,3.43,.47,5.45-1.11,1.44-1.13,2.01-2.07,2.21-2.53h1.6l-.72,4.11h3.33l.67-4.11h1.86c-.04,.61,.03,2.06,1.41,2.88,1.78,1.06,3.97,1.46,4.14,.96,.17-.5-1.99-.57-2.32-1.78-.24-.85-.13-1.65-.04-2.05h2.74v-.81h-7.66l.14-.88Z"/><path class="cls-1" d="M60.86,60.96c-.17-1.35-2.76-1.32-3.17-1.17-.72,.28,.17,.67,.34,1.44,.01,.05,.01,.11,0,.2h-3.69c.6-.84,1.35-1.3,1.12-1.64,0,0-.88-.42-2.74,.42s-5.07,4.48-4.9,5.08,2.22,.08,2.22,.08c-.07,.78-1.25,3.73-1.14,4.27s2.93,.67,3.31,.17c.1-.13,.22-.51,.36-1.04h13.05v-.72h-5.98c.06-.28,.15-.65,.25-1.08h5.74v-.98h-5.52c.08-.35,.15-.72,.23-1.09h5.86v-1.06h-5.65c.08-.43,.15-.84,.21-1.22h5.96v-1.19h-5.83c0-.19,0-.35,0-.47Zm-4.73,7.09h-3.39c.08-.34,.15-.7,.23-1.08h3.52c-.15,.45-.27,.82-.36,1.08Zm.67-2.06h-3.64c.07-.37,.14-.74,.2-1.09h3.78c-.11,.37-.23,.74-.34,1.09Zm.66-2.15h-3.91c.06-.36,.12-.69,.16-.95,.02-.09,.04-.18,.06-.27h4.02c-.09,.37-.21,.79-.34,1.22Z"/><path class="cls-1" d="M39.18,63.65c-1.93,.03-3.1,1.02-2.94,2.3,.04,.34,.15,.53,.33,.64-3.35-.02-7.16,.12-7.76,.4-1.08,.51-1.45,1.55-1.21,3.1,.24,1.55,4.88,1.48,7.14,1.48s5.76-.44,5.65,.24c-.38,2.32-2.92,3.03-4.2,3.03s-1.21,.47-.54,.61c6.6,1.32,7.44-2.56,7.54-3.33s-.27-1.9-2.08-1.86c-.3,0-.76,.03-1.3,.06,1.35-.55,2.48-2.8,2.03-3.31-.18-.2-1.75-.33-3.75-.38,.58-.05,1.33-.11,2.29-.08,3.02,.1,3.59-1.04,2.99-2.31-.49-1.06-2.27-.6-4.2-.57Zm-1.01,3.98c.57,.4,.64,1.85-.24,2.12s-.59-.32-2.29-.94c-2.55-.94-3.94,.34-3.94,.34,0,0,.83-.4,3,.54,1.05,.46,1.81,.67,2.48,.75-2.52,.12-5.33,.18-6.02-.18-1.15-.61-.2-2.12,.54-2.63,.74-.51,5.89-.4,6.47,0Zm1.74-2.33c-.82,0-1.4,.05-1.4-.2s.66-.58,1.48-.58,1.48,.34,1.48,.58-.75,.2-1.56,.2Z"/><path class="cls-1" d="M39.09,72.38s-2,1.1-3.45,.85c-1.27-.22-1.72-1.32-5.17-1.41-3.46-.09-5.39,1.93-4.96,2.07,.43,.13,1.68-.47,3.82-.76,2.13-.29,2.72,.52,5.16,.94s4-.74,4.6-1.68Z"/><path class="cls-1" d="M42.23,62.46c1.76-.69,2.89-1.65,2.89-2.68h-7.74c-.4,.97-1.73,2.41-1.73,2.41,1.17-.08,1.96-.37,2.47-.65,.3,.31,.65,.58,1.03,.81-1.94,.64-4,1.16-4,1.16,1.95,.08,3.83-.13,5.42-.53,2.22,.74,4.71,.64,4.71,.64-.32-.01-1.64-.56-3.04-1.17Zm-3.35-1.51s.02-.03,.02-.03h3.43c-.27,.27-.88,.57-1.62,.87-.77-.35-1.44-.65-1.84-.84Z"/><path class="cls-1" d="M23.6,45.51c1.98-3.91,1.91-4.77,2.74-6.54,1.43-3.08,2.85-5.1,5.3-7.55,3.86-3.86,13.74-6.91,13.74-6.91-10.77,.52-13.74,3.37-13.74,3.37,.94-.36,2.69-.49,2.69-.49-12.66,7.05-10.82,12.95-15.26,19.31-3.78,5.41-14.14,6.73-14.14,6.73,9.92,.36,16.7-4,18.68-7.9Z"/><path class="cls-1" d="M15.58,35.55c.52,.94-1.28,5.48-.7,7.63,.58,2.16,3.32,2.92,3.32,2.92,0,0-.4-.18-1.48-1.62-1.08-1.44,1.26-6.69,.81-8.75-.45-2.07-4.58-2.6-4.58-2.6,1.71,.72,2.11,1.48,2.63,2.42Z"/><path class="cls-1" d="M9.86,34.87c.18,1.08-1.21,6.33,0,9.16,1.76,4.11,6.64,3.05,6.64,3.05,0,0-1.98-.99-2.96-3.05s.9-7.41,.63-7.95c-1.23-2.47-5.21-2.96-5.21-2.96,0,0,.72,.67,.9,1.75Z"/><path class="cls-1" d="M40.97,27.96c-11.67,3.97-12.32,10.24-14.64,17.11-2.31,6.87-14.23,9.25-14.23,9.25,11.94,.09,16.34-5.52,18.27-14.15,1.93-8.63,10.6-12.2,10.6-12.2Z"/><path class="cls-1" d="M32.67,38.97c-.63,1.9-3.19,14.47-3.19,14.47h4.98l3.97-16.91c-3.03-.53-5.14,.55-5.77,2.44Z"/><path class="cls-1" d="M41.29,39.61c-1.36,1.92-3.95,12.03-3.95,13.83h4.13s2.24-11.11,2.74-12.3,2.33-2.81,5.66-2.49c3.32,.31,2.87,2.56,2.47,4.22-.4,1.66-2.15,8.26-1.57,9.61,.58,1.35,3.5,1.07,4.67,.96,0,0,.31-4.22,.76-6.23,.45-2.01,1.84-6.07,.72-8.6-1.25-2.81-11.54-4.76-15.62,1.01Z"/><path class="cls-1" d="M63.87,53.77h9.83s.22-1.26-.58-1.98c-.81-.72-3.5-.4-5.52-.45-2.02-.04-3.24-.79-3.28-2.11-.13-4.53,2.47-9.52,1.75-11.13-1.11-2.51-4.4-1.93-4.4-1.93,.13,1.12-1.98,6.33-2.42,11.04-.45,4.71,2.6,6.55,4.62,6.55Z"/><path class="cls-1" d="M90.81,36.53c-.45,.81-2.15,10.06-2.65,11.58-.49,1.53-1.8,3.23-5.12,3.23-2.02,0-3.24-.79-3.28-2.11-.13-4.53,2.47-9.52,1.75-11.13-1.11-2.51-4.4-1.93-4.4-1.93,.13,1.12-1.98,6.33-2.42,11.04-.45,4.71,2.6,6.55,4.62,6.55,0,0,1.8,.48,6.29-.24,7.03-1.13,7.59-9.05,7.86-10.27,.27-1.21,1.26-6.73,1.26-6.73h-3.91Z"/><path class="cls-1" d="M86.05,60.38c-2.86-.2-14.82-.17-14.82-.17l-3.43,14.75h14.85c1.68,0,3.91-1.28,4.61-7.37,.71-6.09,1.65-7-1.21-7.21Zm-1.24,3.57h-2.02c.16-1.21,.27-2.09,.27-2.09h-2.96s-.09,.9-.22,2.09h-5.94v1.08h2.05c-.04,1.27-.4,5.4-3.47,6.36,0,0-.27,.37,.37,.34,.63-.03,4.57,.25,5.6-6.7h1.27c-.19,1.73-.66,3.68-.81,4.44-.64,3.27-4.11,2.63-4.11,2.63,.51,.57,.94,.98,3.24,1.08,2.3,.1,3.15-1.68,3.39-2.73,.13-.59,.87-3.19,1.17-5.42h2.05c-.47,3.72-1.86,8.98-2.95,9.16-1.68,.27-10.44,0-10.44,0l2.86-13.03s8.97,.03,10.3,.24c.38,.06,.46,1.1,.34,2.56Z"/><path class="cls-1" d="M9.99,68.52h2.11v-.81h-1.92c.3-1.25,.54-2.18,.54-2.18h2.01v-.94h-3.39l1.27-1.8h2.54v-.76h-2l1.58-2.22c-.55-.3-2.48-.34-3.32,.24-.84,.57-4.49,5.79-4.49,5.79h2.77s-.16,.82-.37,1.87h-2.29v.81h2.14c-.23,1.22-.48,2.56-.59,3.31-.24,1.62-.17,3,1.21,3.17s3.23-.34,3.14-.51c-.09-.17-.72-.17-1.59-.3-.53-.08,.08-3.2,.65-5.67Z"/><path class="cls-1" d="M21.49,67.96c2.33-.09,3.14-4.22,3.12-5.54-.02-1.32-.92-2.04-2.22-2.04h-7.72s-3.19,12.32-2.67,13.58c.52,1.26,1.26,1.14,2.42,1.19,1.17,.04,2.27-.7,2.72-1.26s.31-.94,.72-.83,.72,1.48,1.89,1.8c1.17,.31,2.4,.18,2.4,.18,0,0,.36-.18,0-.36-.36-.18-2.31-1.37-2.33-2.81s.34-1.84,1.44-2.36c1.1-.52,1.77-.49,1.77-.7s-3.25-.76-4.49,.45c-1.23,1.21-2.07,2.85-2.22,3.52-.16,.67-.92,2.07-1.48,1.57-.28-.24,.26-3.29,.93-6.39,1.2,.02,3.95,.06,5.74-.01Zm-4.01-6.73s.01-.03,.02-.05c1.41-.03,3.94-.03,4.02,.29,.05,.18-.06,1.18-.31,2.3h-4.47c.35-1.38,.64-2.38,.75-2.55Zm-.98,3.5h4.47c-.37,1.3-.92,2.49-1.63,2.49h-3.42c.19-.86,.39-1.71,.58-2.49Z"/><path class="cls-1" d="M34.51,62.64c.25-.02,.61-.31,.85-1.08,.25-.76-.07-1.77-.67-1.77h-5.86c-.05,.95-.59,2.82-.59,2.82,0,0,1.31,.07,2.35,.17,0,.27-.38,2.63-.7,2.67s-.7-.02-.94-.04c-.25-.02,.74-1.41,.54-1.73-.2-.31-1.39-.31-1.5,.1s-1.1,2.08-1.1,2.08c0,0,4.47,.2,5.01,.12,.1-.01,.2-.14,.3-.33h2.1v-.55h-1.87c.07-.21,.14-.43,.21-.66h2.51v-.8h-2.31c.13-.56,.22-1,.22-1,0,0,1.21,.02,1.46,0Zm-3.88-1.08s-.02-.79,.13-.84,2.29-.08,2.39,0,.05,.88,0,.98-2.34,.2-2.53-.13Z"/></g></g><g id="grid"><rect class="cls-2" width="4.92" height="4.92"/><rect class="cls-2" x="94.94" width="5.06" height="5.06"/></g></svg>