<?xml version="1.0" encoding="UTF-8"?><svg xmlns="http://www.w3.org/2000/svg" viewBox="0 0 100 100"><defs><style>.cls-1{fill:#f9f9f9;}.cls-2{fill:none;}</style></defs><g id="rivero"><g><path class="cls-1" d="M79.25,49.29c0-.99-.8-1.79-1.79-1.79s-1.79,.8-1.79,1.79c0,.58,.28,1.1,.71,1.43-.66,.28-2.6,1.45-4.83,1.43s-3.64,.04-3.98-.39c6.01-2.14,11.06-5.7,11.06-9.19,0-6.43-12.87-11.65-28.75-11.65s-28.75,5.22-28.75,11.65c0,4.94,7.57,9.15,18.27,10.85,.27,.04,.39-.33,.14-.45-1.29-.6-2.33-1.27-2.18-1.93,0,0,0,0,0,0-.07-.37,0-.76,.22-1.11l10.09-15.68s9.74-.79,10,3.4c.26,4.19-9.6,3.8-9.6,3.8,0,0,0,.65,.2,.72,.2,.07,1.7-.2,2.55,.39,.85,.59,11.33,7.79,12.07,9.2l.25,.51c-.52,.79-1.46,.44-2.14,.5-.72,.07-.35,.41,.78,.64,1.13,.23,2-.8,3.09-.73,1.09,.07,4.29,.5,6.93,.2,2.23-.26,4.13-1.7,4.66-2.13,.29,.2,.64,.32,1.02,.32,.99,0,1.79-.8,1.79-1.79Zm-14.11,.55c-1.07-.85-6.57-6.15-9.63-7.27-.72-.26-1.31-.46-.13-.79,1.18-.33,7.52-.46,7.62-4.06,.09-3.6-8.7-5.1-21.66-3.99,0,0,1.57,1.05,1.31,1.9-.23,.76-6.84,11.22-8.28,13.5-.18,.28-.47,.46-.79,.51l-.33,.04c-.67,.09-1.35-.06-1.92-.42-2.98-1.86-4.75-4.18-4.75-6.7,0-6.11,10.44-11.07,23.33-11.07s23.33,4.96,23.33,11.07c0,3.08-2.64,5.86-6.91,7.86-.38-.12-.8-.3-1.17-.6Z"/><path class="cls-1" d="M19.5,58.8H5.29v9.75h2.85v-7.46h9.97c.46,0,.83,.37,.83,.83v.55c0,.46-.37,.83-.83,.83h-7.71l6.03,5.39h4.33l-3.35-3.13h1.68c1.79,0,3.24-1.45,3.24-3.25v-.66c0-1.57-1.27-2.85-2.84-2.85Z"/><path class="cls-1" d="M74.12,58.8h-14.21v9.75h2.85v-7.46h9.97c.46,0,.83,.37,.83,.83v.55c0,.46-.37,.83-.83,.83h-7.71l6.03,5.39h4.33l-3.35-3.13h1.68c1.79,0,3.24-1.45,3.24-3.25v-.66c0-1.57-1.27-2.85-2.84-2.85Z"/><rect class="cls-1" x="23.39" y="58.65" width="3.07" height="10.04"/><polygon class="cls-1" points="35.23 66.4 30.29 58.65 27.22 58.65 33.62 68.69 33.77 68.69 36.69 68.69 36.85 68.69 43.25 58.65 40.18 58.65 35.23 66.4"/><polygon class="cls-1" points="44.49 58.65 44.49 60.83 44.49 62.58 44.49 64.76 44.49 66.51 44.49 68.69 47.56 68.69 58.97 68.69 58.97 66.51 47.56 66.51 47.56 64.76 57.78 64.76 57.78 62.58 47.56 62.58 47.56 60.83 58.97 60.83 58.97 58.65 47.56 58.65 44.49 58.65"/><path class="cls-1" d="M91.54,58.8h-10.65c-1.75,0-3.17,1.42-3.17,3.17v3.93c0,1.75,1.42,3.17,3.17,3.17h10.65c1.75,0,3.17-1.42,3.17-3.17v-3.93c0-1.75-1.42-3.17-3.17-3.17Zm.03,6.82c0,.55-.44,.99-.99,.99h-8.74c-.55,0-.99-.44-.99-.99v-3.85c0-.55,.44-.99,.99-.99h8.74c.55,0,.99,.44,.99,.99v3.85Z"/></g></g><g id="grid"><rect class="cls-2" width="4.92" height="4.92"/><rect class="cls-2" x="94.94" width="5.06" height="5.06"/></g></svg>