<?xml version="1.0" encoding="UTF-8"?><svg id="v-2" xmlns="http://www.w3.org/2000/svg" viewBox="0 0 143.39 60.25"><defs><style>.cls-1{fill:#f0f6e8;}</style></defs><g><polygon class="cls-1" points="96.7 17 98.4 17 98.4 25.14 102.11 25.14 102.11 13.3 102.04 13.3 92.43 13.3 90.98 17.38 95.07 17.38 88.45 24.89 90.65 18.59 86.55 18.59 88.38 13.3 84.86 13.3 84.86 25.14 96.7 25.14 96.7 17"/><path class="cls-1" d="M77.89,19.97c.62,.09,1.47,.38,2.33,1.19v-2.53s-1.08-.18-2.33,.48v-2.1h5.33v-3.71h-9.04v11.84h3.71v-5.17Z"/><path class="cls-1" d="M78.96,27.65h-4.78v19.3h4.5c5.19,0,7.02-3.56,7.02-10.09,0-6.06-1.95-9.22-6.74-9.22h0Zm-.34,16.83h-1.42v-14.31h1.44c2.96,0,3.95,2.06,3.95,6.73,0,5.28-.99,7.57-3.98,7.57h0Z"/><polygon class="cls-1" points="91.47 38.14 97.76 38.14 97.76 35.52 91.47 35.52 91.47 30.29 98.05 30.29 98.05 27.65 88.51 27.65 88.51 46.95 98.12 46.95 98.5 44.36 91.47 44.36 91.47 38.14"/><path class="cls-1" d="M109.64,27.65l-1.88,8.57c-.58,2.59-1.36,5.69-1.6,7.55h-.06c-.23-1.96-.84-4.99-1.43-7.6l-1.9-8.52h-3.23l4.79,19.3h3.52l4.9-19.3h-3.12Z"/><path class="cls-1" d="M107.42,21.43v-1.46h0c.62,.09,1.47,.38,2.33,1.19v-2.53s-1.08-.18-2.33,.48v-2.1h5.33v-3.71h-9.04v11.84h9.06v-3.71h-5.36Z"/></g><g><path class="cls-1" d="M57.44,18.65c.15,.36,.31,.8,.44,1.32,.42,1.63,.69,4.45-.31,8.71,1.08,.58,2.05,1.24,2.83,1.93,.19,.09,.58,.26,.77,.36,.3,.14,.58,.29,.87,.43,.31-1.32,.82-3.89,.61-4.98-.68-3.52-2.92-6.04-5.21-7.76h0Z"/><path class="cls-1" d="M47.01,25.19c.15-.01,.38-.13,.6-.99,.13-.55,.03-1.06-.13-1.23-.43-.44-1.81-.84-3.68-1.09-1.72-.24-3.25-.25-3.76-.13-.15,.72-.57,1.72-.77,2.21,.17,.01,.38,.02,.6,.02,.64,.02,1.6,.06,2.78,.21,1.46,.2,2.5,.51,3.26,.73,.5,.15,.89,.28,1.11,.26h0Zm-6.4-2.15c-.15-.01-.28-.14-.26-.3,0-.15,.14-.28,.3-.28,.15,.01,.28,.14,.26,.3s-.14,.28-.3,.28Zm1.71,.07c-.15-.01-.28-.14-.28-.3,.01-.15,.14-.28,.3-.26,.15,0,.28,.13,.26,.29,0,.15-.13,.28-.29,.28h0Zm1.7,.24c-.15-.01-.28-.14-.28-.3,.01-.15,.14-.28,.3-.26,.15,0,.28,.13,.26,.29,0,.15-.13,.29-.29,.28h0Zm1.42,.14c.01-.15,.14-.28,.3-.28,.15,.01,.28,.14,.26,.3,0,.15-.13,.28-.29,.28-.15-.01-.28-.14-.28-.3Z"/><path class="cls-1" d="M66.97,33.78l-.02-.02c-.89-.77-1.94-1.49-3.27-2.22,.32-1.43,.84-4.06,.57-5.45-.96-5-4.63-8.15-7.65-9.95-.03-.55-.3-1.39-1.58-1.86-.85-.31-1.5-.11-1.91,.14-2.6-1.04-5.01-1.54-6.29-1.56-3.33-.09-8.37,1.2-9.97,2.56-1.47,1.23-2.89,5.2-3.33,6.53-.53,.73-1.38,1.99-1.52,2.71-.2,1.04,.2,2.12,1.03,2.8-.18,.8-.33,1.64-.44,2.53-.02,.05-.06,.11-.09,.17-.09,.15-.17,.31-.24,.46-1.12,2.12-2.23,5.33-1.26,8.58v.02c.57,1.7,1.87,3.33,3.74,4.71,1.57,1.15,3.47,2.09,5.36,2.64,1.84,.53,3.75,.81,5.63,.81,1.31,0,2.62-.13,3.89-.4,1.86-.18,3.48-.58,4.85-1.23,1.77-.53,3.23-1.75,4.25-3.54,.56,.01,1.11-.06,1.63-.22,1.01-.32,2.38-1.13,3.36-3.13,.95,.12,1.75,.11,2.49-.03,1.24-.22,2.44-1.11,2.32-2.56h0c-.12-1.12-.84-1.88-1.52-2.51h0Zm-14.17-1.68c-.01,.18-.1,.42-.14,.58-.09,.34-.34,1.27-.45,1.63-.12,.4-.32,1.28-.51,1.66-.48,.95-1.6,1.55-2.7,1.43-.84-.06-1.77-.57-1.9-1.42,.46,.32,.89,.63,1.43,.81,1.01,.31,2.05-.12,2.53-.94-.26,.14-.57,.21-.89,.18-.09-.01-.17-.02-.25-.05-.38-.1-.7-.33-.91-.66-.2-.33-.26-.72-.15-1.08l.52-1.9c.11-.37,.34-.66,.7-.85,.34-.19,.75-.24,1.13-.14,.4,.11,.72,.34,.92,.68,.01,.01,.01,.03,.02,.05,.06-.33,.02-.68-.1-1-.49-1.32-2.3-1.81-3.41-.88-.33,.26-.58,.63-.74,1.04l-.1,.26c-.12,.33-.45,1.24-.57,1.58-.01-.38,.03-.75,.09-1.13,.07-.38,.13-.76,.26-1.12,.63-1.7,2.92-2.19,4.32-.99,.66,.56,1.03,1.44,.91,2.29h0Zm-15.43,1.49c-.07-.01-.15-.02-.22-.05-.37-.1-.66-.33-.85-.65-.18-.32-.22-.7-.13-1.06l.5-1.87c.1-.36,.33-.65,.65-.84,.32-.19,.7-.24,1.06-.14,.36,.11,.66,.33,.84,.65,.01,.02,.02,.03,.03,.06,.05-.33,.02-.66-.1-.97-.45-1.31-2.13-1.77-3.17-.87-.31,.28-.54,.63-.69,1.03l-.1,.26c-.12,.32-.42,1.21-.53,1.56,0-.37,.03-.74,.09-1.11,.06-.38,.12-.75,.24-1.11,.6-1.67,2.74-2.17,4.05-.99,.62,.55,.94,1.42,.83,2.23-.02,.18-.1,.41-.13,.58-.1,.33-.34,1.24-.43,1.58-.13,.4-.32,1.27-.5,1.63-.45,.94-1.5,1.52-2.52,1.42-.78-.06-1.66-.55-1.77-1.38,.43,.32,.83,.62,1.33,.78,.94,.3,1.91-.13,2.37-.94-.25,.14-.53,.21-.83,.19h-.01Zm5.35,4.21l-2.6-.51-1.64-.63,2.92-2.83-1,3.12,2.32,.85h0Zm-1.26-3.92c.64,1.01,1.24,2.63,1.29,3.83h-.01s-1.28-3.83-1.28-3.83h0Zm-4.03,3.53l.92,.18c-.22,1.15,.66,2.19,2.18,2.52,.99,.21,2.11,.03,2.85-.46,.28-.18,.63-.49,.72-.93l.92,.18c-.12,.6-.51,1.13-1.12,1.54-.69,.45-1.59,.69-2.51,.69-.36,0-.72-.03-1.06-.11-2-.44-3.21-1.95-2.89-3.6h0Zm5.12-12.52c-1.14-.15-2.05-.19-2.71-.2-.84-.03-1.16-.05-1.31-.32-.07-.12-.07-.26,0-.4,.07-.17,.66-1.55,.84-2.38,.05-.19,.15-.33,.32-.43-.24-.17-.72-.41-1.66-.58,0,0,.84-.69,1.94-.52-.14-.45-1.54-3.16-2.14-3.21,0,0,3.29-.93,4.64,1.52,.1-.99,.57-1.8,.57-1.8-.05,.84,1.05,2.17,1.6,2.77,1.75,.48,2.63,1.6,3.02,2.94,.11,.07,.2,.14,.29,.21,.42,.43,.45,1.27,.31,1.88-.1,.4-.36,1.44-1.23,1.5h-.07c-.32,0-.7-.12-1.27-.29-.74-.21-1.75-.51-3.15-.7h0Zm23.4,13.36c-.84,.15-1.69,.12-2.53,0-.06-.01-.12-.02-.18-.03-.88,2.08-2.18,2.89-3.16,3.2-.5,.15-.95,.2-1.32,.2-.18,0-.33-.01-.46-.02-.92,1.76-2.4,3.17-4.43,3.65,2.46-1.72,3.75-3.78,4.66-6.61,.3-.88,.53-1.8,.82-2.72,.06,.49,.06,.96,.05,1.45-.03,1.16-.29,2.35-.74,3.45,.99,.03,3.01-.32,4.08-3.51,.48-1.39,.44-2.62-.09-3.63-.3-.57-.72-1.01-1.14-1.35-.26-.14-.51-.28-.77-.41-.15-.07-.42-.2-.62-.3-.36,2.63-1.49,4.95-1.97,4.91-.24-.01,.14-2.99,.14-2.99-1.58-1.64-1.55-3.47-1.45-4.21-2.46-1.42-5.14-2.45-7.84-3.34,2.66,.29,5.72,1.23,8.23,2.52,.96-4.11,.7-6.83,.3-8.41-.21-.87-.5-1.49-.73-1.89-.54-.37-1.09-.7-1.6-.99-3.46-1.9-7.01-2.68-8.42-2.71-2.93-.07-7.58,1.07-8.9,2.19-1.08,.89-2.46,4.61-2.9,5.96l-.02,.07-.03,.06c-.52,.7-1.28,1.86-1.36,2.23-.02,.12-.02,.24-.01,.36,.48-.43,1.71-1.25,4.15-1.25,0,.01-1.08,.15-2.27,.94-.72,2.09-1.31,4.22-1.76,6.39-.12,.55-.36,1.64-.46,2.19-.05-.4-.07-.8-.09-1.21-.7,1.7-1.11,3.56-.81,5.39,.05,.3,.12,.61,.2,.92,.29,.89,.83,1.68,1.45,2.39,2.64,2.92,6.55,4.46,10.42,4.85,1.81,.17,3.64,.1,5.45-.12,.82-.1,1.64-.22,2.48-.36-.62,.25-1.26,.45-1.91,.62-3.29,.87-6.83,.76-10.1-.19-3.34-.96-7.48-3.46-8.65-6.93-.82-2.72-.09-5.64,1.21-8.09,.12-.24,.25-.49,.37-.73,.12-.97,.29-1.97,.52-2.93-.82-.49-1.28-1.49-1.11-2.41,.14-.69,1.18-2.13,1.47-2.54,.26-.78,1.74-5.13,3.15-6.31,1.49-1.25,6.38-2.49,9.53-2.4,1.15,.02,3.63,.51,6.33,1.63,.29-.24,.83-.55,1.64-.25,1.23,.43,1.23,1.26,1.16,1.62,3.02,1.72,6.7,4.78,7.64,9.66,.29,1.47-.46,4.72-.66,5.6,1.25,.66,2.45,1.42,3.54,2.35,.61,.57,1.25,1.24,1.35,2.13,.09,1.11-.88,1.75-1.83,1.91h0Zm-5.34-2.78l-.13-.15s.07,.01,.17,.05c.07-.28,.21-.48,.38-.58,.18-.12,.42-.18,.73-.05,.94,.34,.55,1.46,.55,1.46,0,0-.06-.85-.46-.94,.01,.34-.13,.8-.21,1.32-.12,.74-.5,1.6-1.04,1.71,.06,.06,.18,.09,.32,.13,.22,.06,.46-.12,.53-.17-.06,.12-.36,.55-.97,.41-.33-.09-.43-.32-.43-.56,0-.28,.12-.53,.12-.53-.12,0-.21-.02-.21-.02l.26-.12s.65-.21,.77-.81c.11-.61-.37-1.14-.37-1.14h0Zm-7.14-10.13c-.27,.37-.4,.56-.64,.95,.54-.38,.86-.56,1.5-.91-.3-.09-.45-.13-.73-.22,.18-.24,.28-.36,.46-.6,.68,.22,1.04,.31,1.64,.52h.01c-.19,.81-.3,1.16-.56,1.98-.25-.09-.38-.14-.64-.22,.17-.55,.26-.81,.41-1.34-.11-.03-.17-.05-.29-.09-.17,.53-.25,.78-.42,1.33-.84-.26-1.21-.36-1.96-.59,.17-.82,.25-1.2,.46-2.03,.25,.08,.37,.12,.62,.21-.23,.32-.34,.48-.55,.8,.28,.09,.41,.13,.69,.22h0Zm3.26,1.07c-.03,.17-.06,.25-.1,.43-.11-.19-.25-.29-.34-.34-.02,.1-.03,.15-.06,.25,.36,.13,.54,.2,.92,.32-.06,.25-.09,.38-.16,.65-.64-.19-.94-.33-1.56-.56,.25-.83,.35-1.19,.53-1.99,.57,.2,.84,.32,1.43,.58-.03,.24-.05,.36-.1,.6-.36-.14-.54-.21-.88-.33-.03,.14-.05,.21-.08,.35,.23-.03,.41,.06,.41,.06h0Zm-4.46-1.75c-.37-.11-.56-.17-.95-.26-.03,.15-.04,.22-.07,.37,.25-.06,.43,.02,.43,.02-.03,.18-.05,.26-.08,.44-.13-.18-.27-.26-.38-.31-.06,.36-.09,.54-.15,.91-.27-.06-.41-.08-.71-.13,.18-.85,.22-1.26,.44-2.11,.65,.13,.97,.22,1.62,.42-.06,.26-.09,.39-.15,.65h0Z"/></g></svg>