<?xml version="1.0" encoding="UTF-8"?><svg id="instagram" xmlns="http://www.w3.org/2000/svg" viewBox="0 0 100 100"><defs><style>.cls-1{fill:#fff;}</style></defs><path class="cls-1" d="M72.01,0H27.99C12.53,0,0,12.53,0,27.99v44.02c0,15.46,12.53,27.99,27.99,27.99h44.02c15.46,0,27.99-12.53,27.99-27.99V27.99C100,12.53,87.47,0,72.01,0Zm19,72.01c0,10.48-8.53,19-19,19H27.99c-10.48,0-19-8.53-19-19V27.99c0-10.48,8.53-19,19-19h44.02c10.48,0,19,8.53,19,19v44.02Z"/><circle class="cls-1" cx="76.95" cy="23.3" r="6.52"/><path class="cls-1" d="M50.08,23.92c-14.54,0-26.33,11.79-26.33,26.33s11.79,26.33,26.33,26.33,26.33-11.79,26.33-26.33-11.79-26.33-26.33-26.33Zm0,43.09c-9.24,0-16.76-7.52-16.76-16.76s7.52-16.76,16.76-16.76,16.76,7.52,16.76,16.76-7.52,16.76-16.76,16.76Z"/></svg>