<?xml version="1.0" encoding="utf-8"?>
<!-- Generator: Adobe Illustrator 26.5.3, SVG Export Plug-In . SVG Version: 6.00 Build 0)  -->
<svg version="1.1" id="grey_scale" xmlns="http://www.w3.org/2000/svg" xmlns:xlink="http://www.w3.org/1999/xlink" x="0px" y="0px"
	 viewBox="0 0 68.8 27.6" style="enable-background:new 0 0 68.8 27.6;" xml:space="preserve">
<style type="text/css">
	.st0{fill:#FFFFFF;}
</style>
<g>
	<path class="st0" d="M44.3,19.4v1.8h0.4c2,0,3.9,0,5.9,0c0.5,0,0.6,0.1,0.6,0.6c0,0.1,0,0.2,0,0.4c0,0.2-0.2,0.4-0.4,0.4
		c-2.5,0-4.9,0-7.4,0c-0.2,0-0.4-0.1-0.4-0.3c0-0.2-0.1-0.4-0.1-0.5c0-1.8,0-3.6,0-5.5c0-0.1,0-0.2,0-0.3c0.1-0.4,0.2-0.5,0.6-0.5
		c2.4,0,4.8,0,7.1,0c0.4,0,0.5,0.1,0.6,0.6c0,0.8,0,0.9-0.8,0.9c-1.9,0-3.8,0-5.7,0c-0.1,0-0.2,0-0.4,0v1c0.1,0,0.2,0,0.4,0
		c2,0,4,0,6,0c0.5,0,0.6,0.1,0.6,0.6c0,0.1,0,0.1,0,0.2c0,0.6-0.1,0.7-0.7,0.7c-2,0-3.9,0-5.9,0C44.5,19.4,44.4,19.4,44.3,19.4
		L44.3,19.4z"/>
	<path class="st0" d="M68.8,19c0,1,0,2,0,3c0,0.5-0.1,0.5-0.6,0.6c-0.7,0.1-1.1-0.2-1.6-0.6c-1.3-1.3-2.6-2.5-3.9-3.7
		c-0.1-0.1-0.1-0.1-0.2-0.2C62.2,18,62.1,18,62,18.3c0,0.2,0,0.4,0,0.5c0,1,0,2.1,0,3.1c0,0.5-0.1,0.6-0.6,0.6c-0.8,0-0.9,0-0.9-0.9
		c0-1.9,0-3.7,0-5.6c0-0.5,0.1-0.6,0.6-0.6c0.7-0.1,1.1,0.2,1.6,0.6c1.3,1.2,2.6,2.5,3.9,3.7c0.1,0.1,0.1,0.1,0.2,0.2
		c0.3,0.2,0.4,0.1,0.5-0.2c0-0.2,0.1-0.4,0.1-0.6c0-1,0-2.1,0-3.1c0-0.5,0.1-0.6,0.6-0.6c0.8,0,0.8,0,0.8,0.8
		C68.8,17.2,68.8,18.1,68.8,19L68.8,19z"/>
	<path class="st0" d="M30.9,22.6c-0.6,0-1.3,0-1.9,0c-2,0.1-3.9-1.6-3.6-4.1c0.2-1.6,1.7-3.1,3.5-3.1c1.4,0,2.8,0,4.2,0
		c0.5,0,0.6,0.1,0.6,0.6c0,0.8,0,0.8-0.8,0.8c-1.1,0-2.2,0-3.3,0c-0.6,0-1.2,0-1.7,0.4c-0.8,0.6-1.1,1.4-0.9,2.2
		c0.2,0.8,1,1.5,1.9,1.6c1.4,0,2.7,0,4.1,0c0.6,0,0.7,0.1,0.7,0.7c0,0.1,0,0.2,0,0.2c0,0.4-0.1,0.5-0.5,0.5
		C32.4,22.6,31.6,22.6,30.9,22.6L30.9,22.6z"/>
	<path class="st0" d="M56,15.5c0.6-0.2,0.9,0.2,1.1,0.8c0.9,1.9,1.9,3.8,2.8,5.8c0.2,0.4,0.1,0.5-0.3,0.5c-0.2,0-0.3,0-0.4,0
		c-0.5,0.1-0.8-0.2-1-0.6c-0.6-1.3-1.3-2.6-2-4c-0.2-0.4-0.5-0.5-0.8,0c-0.4,0.8-0.8,1.7-1.3,2.5c-0.3,0.5-0.5,1.1-0.8,1.6
		c-0.1,0.3-0.4,0.5-0.7,0.4c-0.2,0-0.4,0-0.6,0c-0.4,0-0.5-0.2-0.4-0.5c0.2-0.4,0.3-0.7,0.5-1.1c0.8-1.6,1.5-3.1,2.3-4.7
		C55,15.5,55,15.5,56,15.5z"/>
	<path class="st0" d="M39.6,22.6c-0.7,0-1.3,0-2,0c-1.8,0.1-3.5-1.5-3.5-3.4c0-1,0-2.1,0-3.1c0-0.4,0.1-0.5,0.5-0.5
		c0.9,0,0.9,0,0.9,0.9c0,0.9,0,1.9,0,2.8c0,1,1,1.9,2,1.9c1.4,0,2.8,0,4.1,0c0.6,0,0.7,0.1,0.7,0.7c0,0.1,0,0.2,0,0.3
		c0,0.3-0.2,0.5-0.5,0.5C41.2,22.6,40.4,22.6,39.6,22.6L39.6,22.6z"/>
</g>
<g>
	<path class="st0" d="M41.3,7c1,0,2,0,2.9,0c0.4,0,0.5,0.1,0.6,0.6c0,0.1,0,0.2,0,0.3c0,0.4-0.2,0.5-0.5,0.5c-1.7,0-3.4,0-5.1,0
		c-0.2,0-0.4,0-0.7,0.1c-0.2,0-0.4,0.2-0.4,0.4s0.1,0.4,0.4,0.4c0.2,0.1,0.5,0.1,0.8,0.1c1.1,0,2.2,0,3.3,0c1.3,0,2.3,1,2.3,2.4
		c0,1.4-1,2.3-2.4,2.3c-1.8,0-3.5,0-5.3,0c-0.5,0-0.6-0.1-0.6-0.6c0-0.1,0-0.2,0-0.3c0-0.4,0.1-0.5,0.5-0.5c1.7,0,3.5,0,5.2,0
		c0.2,0,0.4,0,0.5-0.1c0.3-0.2,0.5-0.5,0.5-0.8c0-0.4-0.4-0.7-0.8-0.8c-0.2,0-0.3,0-0.5,0c-1.2,0-2.4,0-3.5,0
		c-1.7,0-2.3-1.6-1.8-2.8c0.3-0.7,1-1.1,1.7-1.1C39.3,7,40.3,7,41.3,7L41.3,7z"/>
	<path class="st0" d="M28.7,7c0.6,0,1.2,0,1.9,0c2-0.1,3.9,1.5,3.6,4c-0.2,1.8-1.7,3.1-3.4,3.1c-1.4,0-2.8,0-4.2,0
		c-0.5,0-0.6-0.1-0.6-0.6c0-1.1,0-2.3,0-3.4c0-0.5,0.1-0.6,0.6-0.6c0.1,0,0.2,0,0.2,0c0.5,0,0.6,0.1,0.6,0.6c0,0.6,0,1.2,0,1.8
		c0,0.7,0.1,0.8,0.8,0.8c0.9,0,1.8,0,2.6,0c1-0.1,1.9-1,1.9-2c0-0.9-0.7-1.9-1.7-2.1c-0.3-0.1-0.5-0.1-0.8-0.1c-1.2,0-2.5,0-3.7,0
		c-0.5,0-0.6-0.1-0.6-0.6c0-0.1,0-0.2,0-0.3C25.9,7.2,26,7,26.4,7C27.1,7,27.9,7,28.7,7L28.7,7z"/>
	<path class="st0" d="M55.7,7c0.6-0.1,0.9,0.2,1.2,0.7c0.9,1.9,1.9,3.9,2.8,5.8c0.2,0.4,0.1,0.6-0.4,0.6c-0.7,0.1-1.2-0.2-1.5-0.9
		c-0.5-1.2-1.2-2.4-1.7-3.5c-0.1-0.2-0.2-0.5-0.5-0.5c-0.2,0-0.4,0.3-0.5,0.5c-0.5,1.1-1.1,2.2-1.6,3.2c-0.1,0.2-0.2,0.5-0.4,0.8
		s-0.3,0.4-0.6,0.4c-0.2,0-0.4,0-0.5,0c-0.5,0-0.6-0.2-0.4-0.6c0.4-0.9,0.8-1.7,1.2-2.6c0.5-1.1,1.1-2.1,1.6-3.2
		C54.7,7.2,55,6.9,55.7,7z"/>
	<path class="st0" d="M49.4,7c1.2,0,2.3,0,3.5,0c0.5,0,0.6,0.1,0.6,0.6c0,0.8,0,0.9-0.9,0.9c-0.6,0-1.2,0-1.7,0
		c-0.7,0-0.8,0.2-0.8,0.8c0,1.4,0,2.8,0,4.2c0,0.2,0,0.6-0.3,0.6c-0.3,0.1-0.7,0-1-0.1c-0.1,0-0.2-0.3-0.2-0.4c0-1.3,0-2.7,0-4
		c0-0.1,0-0.2,0-0.3c0-0.7-0.2-0.8-0.8-0.8c-0.7,0-1.3,0-2,0c-0.4,0-0.6-0.1-0.6-0.6c0-0.1,0-0.2,0-0.3c0-0.4,0.1-0.6,0.5-0.6
		C47,7,48.2,7,49.4,7L49.4,7z"/>
	<path class="st0" d="M36,10.6c0,1,0,2,0,3c0,0.4-0.1,0.5-0.5,0.6c-0.1,0-0.2,0-0.4,0c-0.3,0-0.5-0.2-0.5-0.5c0-2.1,0-4.1,0-6.2
		c0-0.3,0.2-0.5,0.5-0.5C36,7,36,7,36,7.9C36,8.8,36,9.7,36,10.6L36,10.6z"/>
</g>
<g>
	<polygon class="st0" points="16.5,0.1 2.4,0.1 4.5,3.8 11.8,3.8 3.7,18 3.8,10.7 0,7.1 0,21.8 0.8,23.1 2.3,25.5 3.7,25.5 
		17.3,1.5 	"/>
	<polygon class="st0" points="21.7,20.5 21.7,5.8 19.4,2.1 17.9,2.1 4.3,26.2 5.2,27.5 19.4,27.5 17.3,23.9 10,23.9 18,9.7 
		17.9,17.3 	"/>
</g>
</svg>
