<?xml version="1.0" encoding="UTF-8"?><svg id="color" xmlns="http://www.w3.org/2000/svg" viewBox="0 0 68.76 27.64"><defs><style>.cls-1{fill:#d6d6d4;}.cls-2{fill:#116194;}.cls-3{fill:#b2b2b2;}.cls-4{fill:#022056;}.cls-5{fill:#8dd8f8;}</style></defs><g><polygon class="cls-2" points="2.44 0 4.5 3.69 11.89 3.69 13.99 0 2.44 0"/><polygon class="cls-5" points="13.99 0 16.61 0 17.43 1.37 3.79 25.6 2.31 25.6 .81 23.18 13.99 0"/><polygon class="cls-4" points=".1 7.07 3.78 10.34 3.69 18.11 .81 23.18 0 21.92 .1 7.07"/><polygon class="cls-3" points="18.05 2 19.53 2 21.05 4.44 8.04 27.64 5.24 27.64 4.37 26.29 18.05 2"/><polygon class="cls-1" points="21.05 4.44 21.84 5.75 21.84 20.55 18.04 17.28 18.09 9.72 21.05 4.44"/><polygon class="cls-1" points="10.07 24.02 17.49 24.02 19.6 27.64 8.04 27.64 10.07 24.02"/></g><g><path class="cls-3" d="M44.27,19.37v1.79h.38c1.97,0,3.93,0,5.9,0,.54,0,.64,.1,.64,.65,0,.13,0,.25,0,.38-.03,.25-.16,.4-.43,.4-2.46,0-4.92,0-7.38,0-.22,0-.37-.08-.43-.29-.05-.17-.09-.35-.09-.52,0-1.82,0-3.64,0-5.46,0-.11,0-.23,.03-.34,.1-.42,.2-.49,.63-.49,2.38,0,4.75,0,7.13,0,.44,0,.55,.11,.56,.56,.01,.81-.03,.86-.83,.86-1.9,0-3.81,0-5.71,0-.11,0-.23,0-.36,0v1.02c.12,0,.24,.02,.36,.02,1.99,0,3.97,0,5.96,0,.47,0,.58,.11,.58,.57,0,.06,0,.13,0,.19,0,.56-.1,.66-.65,.66-1.97,0-3.93,0-5.9,0-.11,0-.23,0-.36,0Z"/><path class="cls-3" d="M68.76,19.02c0,1,0,2,0,3,0,.47-.11,.54-.58,.58-.65,.06-1.13-.16-1.59-.63-1.27-1.26-2.59-2.46-3.89-3.69-.07-.06-.14-.13-.22-.18-.26-.15-.43-.08-.49,.2-.04,.17-.05,.35-.05,.53,0,1.05,0,2.1,0,3.15,0,.49-.11,.59-.59,.59-.84,0-.86-.02-.86-.86,0-1.87,0-3.74,0-5.61,0-.51,.11-.59,.63-.63,.65-.06,1.13,.18,1.59,.63,1.27,1.25,2.57,2.45,3.86,3.67,.07,.06,.14,.13,.22,.17,.27,.16,.44,.09,.5-.22,.04-.18,.06-.37,.06-.56,0-1.03,0-2.06,0-3.09,0-.5,.09-.59,.58-.6,.82,0,.83,.01,.83,.82,0,.9,0,1.81,0,2.71Z"/><path class="cls-3" d="M30.86,22.58c-.63,0-1.26-.03-1.89,0-1.95,.11-3.85-1.58-3.57-4.06,.19-1.65,1.7-3.1,3.47-3.06,1.4,.03,2.8,0,4.19,0,.5,0,.59,.1,.59,.58,0,.82-.02,.84-.85,.84-1.09,0-2.19-.02-3.28,0-.59,.01-1.2,.01-1.72,.4-.77,.57-1.1,1.4-.88,2.25,.22,.82,1.03,1.53,1.93,1.56,1.36,.05,2.73,.03,4.1,.04,.61,0,.7,.08,.7,.68,0,.08,0,.17,0,.25,0,.36-.14,.49-.49,.49-.77,0-1.53,0-2.3,0Z"/><path class="cls-3" d="M55.95,15.48c.58-.16,.87,.23,1.14,.79,.92,1.93,1.88,3.84,2.83,5.76,.19,.39,.09,.55-.33,.55-.15,0-.3-.02-.44,0-.49,.07-.75-.2-.95-.6-.64-1.32-1.3-2.63-1.95-3.95-.22-.44-.55-.46-.79-.02-.44,.83-.85,1.69-1.27,2.53-.27,.54-.53,1.07-.79,1.61-.14,.29-.36,.45-.7,.43-.19-.01-.38,0-.57,0-.42,0-.54-.17-.37-.55,.16-.36,.35-.72,.52-1.07,.78-1.57,1.55-3.14,2.33-4.71,.38-.77,.39-.77,1.34-.77Z"/><path class="cls-3" d="M39.61,22.58c-.66,0-1.32-.02-1.99,0-1.8,.06-3.47-1.48-3.47-3.41,0-1.05,0-2.1,0-3.15,0-.42,.13-.54,.55-.54,.87,0,.9,.03,.91,.89,0,.94-.01,1.87,.04,2.8,.05,1.02,.95,1.9,1.98,1.94,1.38,.04,2.75,.03,4.13,.04,.59,0,.68,.09,.68,.67,0,.09,0,.19,0,.28-.01,.33-.15,.47-.49,.47-.78,0-1.56,0-2.33,0Z"/></g><g><path class="cls-5" d="M41.32,7c.98,0,1.96,0,2.93,0,.43,0,.55,.13,.56,.57,0,.12,0,.23,0,.35-.01,.39-.15,.52-.54,.53-1.69,0-3.39,0-5.08,0-.22,0-.44,.02-.66,.05-.24,.03-.41,.17-.43,.43-.02,.26,.14,.4,.36,.45,.25,.06,.52,.08,.78,.08,1.1,0,2.21,0,3.31,0,1.35,.02,2.3,1.02,2.26,2.37-.04,1.36-1,2.28-2.37,2.28-1.76,0-3.51,0-5.27,0-.51,0-.62-.12-.62-.63,0-.09,0-.19,0-.28,0-.41,.12-.52,.53-.53,1.73-.01,3.47-.02,5.2-.04,.17,0,.36-.04,.51-.11,.35-.17,.55-.53,.51-.84-.05-.35-.37-.68-.76-.75-.16-.03-.33-.04-.5-.04-1.18,0-2.36,0-3.53,0-1.7-.01-2.31-1.55-1.84-2.77,.26-.66,.96-1.12,1.68-1.13,.99,0,1.98,0,2.97,0Z"/><path class="cls-5" d="M28.66,7c.62,0,1.24,.03,1.86,0,1.96-.1,3.88,1.53,3.6,4.03-.19,1.76-1.67,3.09-3.44,3.09-1.4,0-2.8,0-4.2,0-.47,0-.62-.15-.62-.63,0-1.14,0-2.27,0-3.41,0-.49,.13-.62,.61-.62,.08,0,.17,0,.25,0,.47,0,.59,.12,.59,.6,0,.59,0,1.18,0,1.77,0,.66,.13,.82,.78,.83,.88,.01,1.77,.02,2.65-.03,1-.05,1.88-1,1.93-2,.05-.95-.74-1.93-1.73-2.11-.26-.05-.52-.07-.78-.07-1.23,0-2.46,0-3.69,0-.46,0-.6-.14-.6-.6,0-.12,0-.23,0-.35,.02-.34,.17-.49,.52-.49,.76,0,1.51,0,2.27,0Z"/><path class="cls-5" d="M55.67,7.03c.62-.14,.94,.15,1.2,.69,.93,1.94,1.89,3.86,2.84,5.79,.21,.42,.08,.57-.38,.62-.74,.08-1.15-.19-1.45-.89-.52-1.2-1.15-2.36-1.74-3.53-.1-.21-.2-.53-.48-.46-.19,.04-.39,.27-.49,.47-.55,1.07-1.07,2.16-1.6,3.25-.12,.25-.25,.51-.38,.76-.13,.25-.35,.39-.63,.39-.18,0-.36,0-.54,0-.5,0-.62-.17-.41-.61,.41-.85,.82-1.7,1.24-2.55,.53-1.07,1.09-2.13,1.59-3.21,.26-.57,.59-.89,1.23-.72Z"/><path class="cls-5" d="M49.44,7c1.18,0,2.35,0,3.53,0,.46,0,.58,.12,.58,.57,0,.85-.02,.87-.86,.87-.58,0-1.16,0-1.73,0-.65,0-.8,.16-.81,.8,0,1.4,0,2.8,0,4.19,0,.24,.03,.56-.26,.61-.33,.06-.69,0-1.03-.06-.08-.02-.16-.28-.16-.43-.01-1.34,0-2.67,0-4.01,0-.09,0-.19,0-.28,0-.66-.16-.82-.82-.83-.67,0-1.35,0-2.02,0-.42,0-.56-.15-.57-.57,0-.11,0-.21,0-.32,0-.41,.14-.55,.55-.55,1.2,0,2.4,0,3.6,0Z"/><path class="cls-5" d="M36.02,10.58c0,1,0,2,0,2.99,0,.41-.13,.54-.55,.55-.13,0-.25,0-.38,0-.3-.01-.47-.17-.48-.47,0-2.06,0-4.12,0-6.18,0-.33,.15-.47,.49-.47,.9-.02,.91,0,.91,.9,0,.89,0,1.79,0,2.68Z"/></g></svg>