<?xml version="1.0" encoding="UTF-8"?><svg id="products" xmlns="http://www.w3.org/2000/svg" viewBox="0 0 100 100"><defs><style>.cls-1{fill:#fff;}.cls-2{fill:#6d9ae2;}.cls-3{fill:#74a0f7;}.cls-4{fill:#f4f3ce;}.cls-5{fill:none;stroke:#212121;stroke-linecap:round;stroke-linejoin:round;stroke-width:1.5px;}.cls-6{fill:#eded8e;}.cls-7{fill:#c1b37a;}.cls-8{fill:#e8ddaf;}</style></defs><path class="cls-3" d="M26.38,24.59h15.02c3.13,0,5.67,2.54,5.67,5.67v2.88H26.38v-8.55h0Z"/><rect class="cls-2" x="22.41" y="24.59" width="3.98" height="3.98"/><path class="cls-2" d="M26.38,33.14h3.85v3.09c0,1.41-1.14,2.55-2.55,2.55h-1.3v-5.64h0Z"/><rect class="cls-1" x="34.72" y="33.14" width="8" height="5.64"/><path class="cls-6" d="M40.46,76.96h-14.93c-1.4,0-2.54-1.14-2.54-2.54v-24.24c0-1.4,1.14-2.54,2.54-2.54h3.85c1.4,0,2.54-1.14,2.54-2.54v-3.77c0-1.4,1.14-2.54,2.54-2.54h8.71c1.4,0,2.54,1.14,2.54,2.54v20.48"/><path class="cls-4" d="M40.5,74.13h-12.33c-.57,0-1.03-.53-1.03-1.18v-20.06c0-.65,.46-1.18,1.03-1.18h5.9c.57,0,1.03-.53,1.03-1.18v-4.4c0-.65,.46-1.18,1.03-1.18h5.15c.57,0,1.03,.53,1.03,1.18v15.54"/><path class="cls-7" d="M41.42,61.95h30.33c1.02,0,1.84,.83,1.84,1.84v6.08c0,.54-.44,.98-.98,.98H40.55c-.54,0-.98-.44-.98-.98v-6.08c0-1.02,.83-1.84,1.84-1.84Z"/><polyline class="cls-8" points="72.46 70.85 72.46 77.41 40.71 77.41 40.71 70.85"/><path class="cls-5" d="M28.38,23.59h15.02c3.13,0,5.67,2.54,5.67,5.67v2.88H28.38v-8.55h0Z"/><rect class="cls-5" x="24.41" y="23.59" width="3.98" height="3.98"/><path class="cls-5" d="M28.38,32.14h3.85v3.09c0,1.41-1.14,2.55-2.55,2.55h-1.3v-5.64h0Z"/><rect class="cls-5" x="36.72" y="32.14" width="8" height="5.64"/><path class="cls-5" d="M42.46,75.96h-14.93c-1.4,0-2.54-1.14-2.54-2.54v-24.24c0-1.4,1.14-2.54,2.54-2.54h3.85c1.4,0,2.54-1.14,2.54-2.54v-3.77c0-1.4,1.14-2.54,2.54-2.54h8.71c1.4,0,2.54,1.14,2.54,2.54v20.48"/><path class="cls-5" d="M42.5,73.13h-12.33c-.57,0-1.03-.53-1.03-1.18v-20.06c0-.65,.46-1.18,1.03-1.18h5.9c.57,0,1.03-.53,1.03-1.18v-4.4c0-.65,.46-1.18,1.03-1.18h5.15c.57,0,1.03,.53,1.03,1.18v15.54"/><path class="cls-5" d="M43.42,60.95h30.33c1.02,0,1.84,.83,1.84,1.84v6.08c0,.54-.44,.98-.98,.98H42.55c-.54,0-.98-.44-.98-.98v-6.08c0-1.02,.83-1.84,1.84-1.84Z"/><polyline class="cls-5" points="74.46 69.85 74.46 76.41 42.71 76.41 42.71 69.85"/><line class="cls-5" x1="45.76" y1="76.41" x2="45.76" y2="73.13"/><line class="cls-5" x1="49.39" y1="76.41" x2="49.39" y2="73.13"/><line class="cls-5" x1="53.03" y1="76.41" x2="53.03" y2="73.13"/><line class="cls-5" x1="56.66" y1="76.41" x2="56.66" y2="73.13"/><line class="cls-5" x1="60.29" y1="76.41" x2="60.29" y2="73.13"/><line class="cls-5" x1="63.93" y1="76.41" x2="63.93" y2="73.13"/><line class="cls-5" x1="67.56" y1="76.41" x2="67.56" y2="73.13"/><line class="cls-5" x1="71.2" y1="76.41" x2="71.2" y2="73.13"/></svg>