<?xml version="1.0" encoding="UTF-8"?><svg id="office" xmlns="http://www.w3.org/2000/svg" viewBox="0 0 100 100"><defs><style>.cls-1{fill:#fff;}.cls-2{fill:none;stroke:#212121;stroke-linecap:round;stroke-linejoin:round;stroke-width:1.5px;}.cls-3{fill:#8ebcd6;}.cls-4{fill:#d4f2ff;}</style></defs><path class="cls-3" d="M22.38,16.43h22.11c1.99,0,3.61,1.62,3.61,3.61v56.53H18.77V20.04c0-1.99,1.62-3.61,3.61-3.61Z"/><path class="cls-3" d="M47.83,42.12h26.15c1.99,0,3.61,1.62,3.61,3.61v30.85h-29.76V42.12h0Z"/><circle class="cls-1" cx="40.91" cy="23.37" r="2.97"/><circle class="cls-1" cx="25.95" cy="23.37" r="2.97"/><circle class="cls-1" cx="40.91" cy="34.72" r="2.97"/><circle class="cls-1" cx="25.95" cy="34.72" r="2.97"/><circle class="cls-1" cx="40.91" cy="46.08" r="2.97"/><circle class="cls-1" cx="25.95" cy="46.08" r="2.97"/><circle class="cls-1" cx="40.91" cy="57.43" r="2.97"/><circle class="cls-1" cx="25.95" cy="57.43" r="2.97"/><rect class="cls-1" x="50.79" y="47.46" width="22.61" height="5.88" rx="2.94" ry="2.94"/><rect class="cls-1" x="50.79" y="57.37" width="22.61" height="5.88" rx="2.94" ry="2.94"/><path class="cls-4" d="M30.29,68.12h5.49c.31,0,.57,.25,.57,.57v6.8h-6.62v-6.8c0-.31,.25-.57,.57-.57Z"/><path class="cls-4" d="M59.35,68.12h5.49c.31,0,.57,.25,.57,.57v6.8h-6.62v-6.8c0-.31,.25-.57,.57-.57Z"/><line class="cls-2" x1="13.27" y1="75.62" x2="86.73" y2="75.62"/><g><path class="cls-2" d="M50,75.62V19.47c0-2.2-1.79-3.99-3.99-3.99H24.66c-2.2,0-3.99,1.79-3.99,3.99v8.62"/><line class="cls-2" x1="20.67" y1="35.3" x2="20.67" y2="75.62"/><line class="cls-2" x1="79.33" y1="75.62" x2="79.33" y2="68.91"/><path class="cls-2" d="M79.33,61.97v-16.55c0-2.2-1.79-3.99-3.99-3.99h-25.34v34.19"/></g><g><circle class="cls-2" cx="27.86" cy="22.42" r="2.97"/><circle class="cls-2" cx="42.81" cy="22.42" r="2.97"/></g><g><circle class="cls-2" cx="27.86" cy="33.77" r="2.97"/><circle class="cls-2" cx="42.81" cy="33.77" r="2.97"/></g><g><circle class="cls-2" cx="27.86" cy="45.12" r="2.97"/><circle class="cls-2" cx="42.81" cy="45.12" r="2.97"/></g><g><circle class="cls-2" cx="27.86" cy="56.48" r="2.97"/><circle class="cls-2" cx="42.81" cy="56.48" r="2.97"/></g><rect class="cls-2" x="52.7" y="45.55" width="22.61" height="5.88" rx="2.94" ry="2.94"/><rect class="cls-2" x="52.7" y="55.46" width="22.61" height="5.88" rx="2.94" ry="2.94"/><polyline class="cls-2" points="38.85 75.62 38.85 66.84 31.82 66.84 31.82 75.62"/><polyline class="cls-2" points="67.52 75.62 67.52 66.84 60.49 66.84 60.49 75.62"/></svg>