<?xml version="1.0" encoding="UTF-8"?><svg id="heigh" xmlns="http://www.w3.org/2000/svg" xmlns:xlink="http://www.w3.org/1999/xlink" viewBox="0 0 100 100"><defs><style>.cls-1{fill:#82e0b8;}.cls-2{fill:#7ad4f4;}.cls-3{stroke:#212121;stroke-linecap:round;stroke-linejoin:round;stroke-width:1.5px;}.cls-3,.cls-4{fill:none;}.cls-5{fill:#fff;opacity:.72;}.cls-6{clip-path:url(#clippath);}.cls-7{fill:#bbedf9;}.cls-8{fill:#78ffc8;}</style><clipPath id="clippath"><rect class="cls-4" x="22.8" y="22.33" width="54.41" height="53.09"/></clipPath></defs><rect class="cls-2" x="20.8" y="24.33" width="54.41" height="53.09" rx="2.6" ry="2.6"/><g class="cls-6"><g><polygon class="cls-7" points="59.88 52.82 64.83 52.82 48.94 21.05 33.06 21.05 44.98 44.89 40.03 44.89 55.91 76.66 71.8 76.66 59.88 52.82"/><polygon class="cls-5" points="45.64 21.88 45.64 40.54 65.95 51.46 65.95 22.33 45.64 21.88"/><polygon class="cls-7" points="27.33 65.79 32.28 65.79 16.4 34.02 .51 34.02 12.43 57.86 7.48 57.86 23.36 89.63 39.25 89.63 27.33 65.79"/></g></g><rect class="cls-1" x="38" y="52.61" width="25.66" height="5.13" transform="translate(29.45 -16.74) rotate(26.09)"/><rect class="cls-8" x="41.52" y="47.46" width="23.67" height="5.13" transform="translate(27.44 -18.37) rotate(26.09)"/><path class="cls-3" d="M22.8,25.36c0-1.68,1.36-3.04,3.04-3.04h48.34c1.68,0,3.04,1.36,3.04,3.04v19.48"/><path class="cls-3" d="M77.2,58.97v13.41c0,1.68-1.36,3.04-3.04,3.04H25.83c-1.68,0-3.04-1.36-3.04-3.04V32.26"/><rect class="cls-3" x="39.17" y="51.44" width="25.66" height="5.13" transform="translate(29.06 -17.37) rotate(26.09)"/><rect class="cls-3" x="42.69" y="46.29" width="23.67" height="5.13" transform="translate(27.05 -19) rotate(26.09)"/><line class="cls-3" x1="50.87" y1="56.31" x2="40.41" y2="77.67"/></svg>