<?xml version="1.0" encoding="UTF-8"?><svg id="carpet" xmlns="http://www.w3.org/2000/svg" viewBox="0 0 100 100"><defs><style>.cls-1{stroke-width:1.5px;}.cls-1,.cls-2{fill:none;stroke:#212121;stroke-linecap:round;stroke-linejoin:round;}.cls-3{fill:#ffe98d;}.cls-4{fill:#dd9e9e;}</style></defs><path class="cls-4" d="M30.87,39.96c0-3.12-2.53-5.64-5.64-5.64s-5.64,2.53-5.64,5.64v24.09c0,3.12,2.53,5.64,5.64,5.64h46.41v-29.73H30.87Z"/><polyline class="cls-3" points="30.87 55.74 40.75 61.87 54.2 53.52 40.75 45.17 30.87 51.3"/><rect class="cls-3" x="63.02" y="39.96" width="4.58" height="29.48"/><path class="cls-1" d="M32.87,37.96c0-3.12-2.53-5.64-5.64-5.64s-5.64,2.53-5.64,5.64v24.09c0,3.12,2.53,5.64,5.64,5.64s5.64-2.53,5.64-5.64v-24.09h40.76v29.73H27.22"/><line class="cls-1" x1="69.6" y1="37.96" x2="69.6" y2="66.83"/><line class="cls-1" x1="65.31" y1="37.96" x2="65.31" y2="66.83"/><polyline class="cls-1" points="32.87 53.74 42.75 59.87 56.2 51.52 42.75 43.17 32.87 49.3"/><line class="cls-1" x1="73.63" y1="37.96" x2="78.42" y2="37.96"/><line class="cls-1" x1="73.63" y1="41.67" x2="78.42" y2="41.67"/><line class="cls-1" x1="73.63" y1="45.39" x2="78.42" y2="45.39"/><line class="cls-1" x1="73.63" y1="49.11" x2="78.42" y2="49.11"/><line class="cls-1" x1="73.63" y1="52.82" x2="78.42" y2="52.82"/><line class="cls-1" x1="73.63" y1="56.54" x2="78.42" y2="56.54"/><line class="cls-1" x1="73.63" y1="60.26" x2="78.42" y2="60.26"/><line class="cls-1" x1="73.63" y1="63.97" x2="78.42" y2="63.97"/><line class="cls-1" x1="73.63" y1="67.69" x2="78.42" y2="67.69"/><path class="cls-2" d="M28.63,67.43c-2.65,.17-4.9-1.84-5.03-4.49-.1-2.12,1.53-3.95,3.65-4.08,1.69-.11,3.13,1.18,3.22,2.87,.07,1.36-.98,2.53-2.33,2.61-1.08,.07-2.01-.75-2.06-1.84-.04-.87,.63-1.62,1.49-1.67"/><path class="cls-1" d="M32.87,62.04c0-3.12-2.53-5.64-5.64-5.64s-5.64,2.53-5.64,5.64"/></svg>