<?xml version="1.0" encoding="UTF-8"?><svg id="room" xmlns="http://www.w3.org/2000/svg" viewBox="0 0 100 100"><defs><style>.cls-1{fill:#d8d6ce;}.cls-2{fill:#ebfff6;}.cls-3{stroke-width:1.5px;}.cls-3,.cls-4{fill:none;stroke:#212121;stroke-linecap:round;stroke-linejoin:round;}.cls-5{fill:#c1b37a;}.cls-6{fill:#b7ab76;}.cls-7{fill:#83ebfc;}</style></defs><path class="cls-2" d="M38.22,57.36h42.57c1.6,0,2.9,1.3,2.9,2.9v7.01H35.31v-7.01c0-1.6,1.3-2.9,2.9-2.9Z"/><g><polyline class="cls-6" points="35.31 71.34 35.31 76.41 37.08 76.41 40.16 71.34"/><polyline class="cls-6" points="83.68 71.34 83.68 76.41 81.92 76.41 78.84 71.34"/></g><polyline class="cls-5" points="84.74 67.28 84.74 71.34 34.26 71.34 34.26 67.28"/><path class="cls-1" d="M78.19,57.36v-11.32c0-1.26-1.3-2.27-2.9-2.27h-31.58c-1.6,0-2.9,1.02-2.9,2.27v11.32"/><g><rect class="cls-2" x="41.59" y="49.43" width="13" height="7.93" rx="2.2" ry="2.2"/><rect class="cls-2" x="64.4" y="49.43" width="13" height="7.93" rx="2.2" ry="2.2"/></g><g><rect class="cls-5" x="13.22" y="56.32" width="17.06" height="20.09"/><polygon class="cls-7" points="26.39 42.57 17.12 42.57 15.39 49.78 28.12 49.78 26.39 42.57"/></g><polyline class="cls-5" points="37.74 57.36 37.74 40.5 40.81 40.5 40.81 57.36"/><polyline class="cls-5" points="78.19 57.36 78.19 40.5 81.26 40.5 81.26 57.36"/><path class="cls-3" d="M40.6,56.17h42.57c1.6,0,2.9,1.3,2.9,2.9v7.01H37.7v-7.01c0-1.6,1.3-2.9,2.9-2.9Z"/><g><polyline class="cls-3" points="37.7 70.15 37.7 75.22 39.46 75.22 42.55 70.15"/><polyline class="cls-3" points="86.07 70.15 86.07 75.22 84.31 75.22 81.22 70.15"/></g><polyline class="cls-3" points="87.13 66.09 87.13 70.15 36.65 70.15 36.65 66.09"/><path class="cls-3" d="M80.58,56.17v-11.32c0-1.26-1.3-2.27-2.9-2.27h-31.58c-1.6,0-2.9,1.02-2.9,2.27v11.32"/><g><rect class="cls-3" x="43.98" y="48.24" width="13" height="7.93" rx="2.2" ry="2.2"/><rect class="cls-3" x="66.79" y="48.24" width="13" height="7.93" rx="2.2" ry="2.2"/></g><g><rect class="cls-3" x="15.61" y="55.13" width="17.06" height="20.09"/><polygon class="cls-3" points="28.78 41.38 19.51 41.38 17.78 48.59 30.51 48.59 28.78 41.38"/><line class="cls-3" x1="15.82" y1="62.92" x2="32.47" y2="62.92"/><line class="cls-3" x1="20.65" y1="58.75" x2="27.64" y2="58.75"/><line class="cls-3" x1="24.14" y1="49.11" x2="24.14" y2="54.5"/><line class="cls-4" x1="20.65" y1="48.59" x2="20.65" y2="51.3"/></g><polyline class="cls-3" points="40.13 56.17 40.13 39.3 43.19 39.3 43.19 56.17"/><polyline class="cls-3" points="80.58 56.17 80.58 39.3 83.65 39.3 83.65 56.17"/><line class="cls-3" x1="13.27" y1="75.62" x2="86.73" y2="75.62"/></svg>