<?xml version="1.0" encoding="UTF-8"?><svg id="dining-room" xmlns="http://www.w3.org/2000/svg" viewBox="0 0 100 100"><defs><style>.cls-1{fill:#fff;}.cls-2{fill:#d8d6ce;}.cls-3{fill:#fffc99;}.cls-4{stroke-width:1.5px;}.cls-4,.cls-5{fill:none;stroke:#212121;stroke-linecap:round;stroke-linejoin:round;}.cls-6{fill:#c1b37a;}.cls-7{fill:#fcc8fc;}.cls-8{fill:#83ebfc;}.cls-9{fill:#ffe878;}</style></defs><path class="cls-2" d="M16.56,57.54v-13.59c0-1.44-1.15-2.61-2.58-2.61h-1.5v20.88c0,1.36,1.09,2.46,2.43,2.46h14.6v-2.18c0-1.04-.83-1.88-1.85-1.88h-8.07c-1.68,0-3.04-1.38-3.04-3.08Z"/><path class="cls-2" d="M79.44,57.54v-13.59c0-1.44,1.15-2.61,2.58-2.61h1.5v20.88c0,1.36-1.09,2.46-2.43,2.46h-14.6v-2.18c0-1.04,.83-1.88,1.85-1.88h8.07c1.68,0,3.04-1.38,3.04-3.08Z"/><g><polyline class="cls-6" points="61.86 56.82 61.86 59.63 34.14 59.63 34.14 56.82"/><rect class="cls-6" x="30.98" y="53.49" width="34.04" height="3.33"/><g><polyline class="cls-6" points="38.19 59.63 38.19 75.86 35.92 75.86 35.92 59.63"/><polyline class="cls-6" points="60.08 59.63 60.08 75.86 57.81 75.86 57.81 59.63"/></g></g><path class="cls-7" d="M40.07,47.27h15.87c0,3.43-2.79,6.22-6.22,6.22h-3.43c-3.43,0-6.22-2.79-6.22-6.22h0Z"/><path class="cls-9" d="M49.03,47.27c-.28-.42-.45-.91-.45-1.43,0-1.53,1.4-2.78,3.13-2.78s3.13,1.24,3.13,2.78c0,.48-.14,.93-.38,1.32"/><path class="cls-3" d="M44.17,47.27c-1.96-.97-2.37-2.48-2.38-3.66,0-.63,.8-1.02,1.36-.64,2.15,1.43,5.43,1.82,5.43,1.82,0,0,.23,2.12,.34,2.3s-4.75,.18-4.75,.18Z"/><path class="cls-8" d="M47.15,24.34h3.83c2.05,0,3.71,1.66,3.71,3.71h-11.25c0-2.05,1.66-3.71,3.71-3.71Z"/><path class="cls-1" d="M50.9,28.14c0,1.02-.82,1.84-1.84,1.84s-1.84-.82-1.84-1.84"/><g><g><path class="cls-4" d="M18.56,56.54v-13.59c0-1.44-1.15-2.61-2.58-2.61h-1.5v20.88c0,1.36,1.09,2.46,2.43,2.46h14.6v-2.18c0-1.04-.83-1.88-1.85-1.88h-8.07c-1.68,0-3.04-1.38-3.04-3.08Z"/><line class="cls-4" x1="18.5" y1="63.68" x2="14.96" y2="74.86"/><line class="cls-4" x1="27.97" y1="63.68" x2="31.51" y2="74.86"/></g><g><path class="cls-4" d="M81.44,56.54v-13.59c0-1.44,1.15-2.61,2.58-2.61h1.5v20.88c0,1.36-1.09,2.46-2.43,2.46h-14.6v-2.18c0-1.04,.83-1.88,1.85-1.88h8.07c1.68,0,3.04-1.38,3.04-3.08Z"/><line class="cls-4" x1="81.5" y1="63.68" x2="85.04" y2="74.86"/><line class="cls-4" x1="72.03" y1="63.68" x2="68.49" y2="74.86"/></g></g><g><polyline class="cls-4" points="63.86 55.82 63.86 58.63 36.14 58.63 36.14 55.82"/><rect class="cls-4" x="32.98" y="52.49" width="34.04" height="3.33"/><g><polyline class="cls-4" points="40.19 58.63 40.19 74.86 37.92 74.86 37.92 58.63"/><polyline class="cls-4" points="62.08 58.63 62.08 74.86 59.81 74.86 59.81 58.63"/></g></g><g><path class="cls-4" d="M42.07,46.27h15.87c0,3.43-2.79,6.22-6.22,6.22h-3.43c-3.43,0-6.22-2.79-6.22-6.22h0Z"/><path class="cls-4" d="M51.03,46.27c-.28-.42-.45-.91-.45-1.43,0-1.53,1.4-2.78,3.13-2.78s3.13,1.24,3.13,2.78c0,.48-.14,.93-.38,1.32"/><path class="cls-4" d="M50.58,43.79s-3.27-.39-5.43-1.82c-.57-.38-1.36,.02-1.36,.64,0,1.18,.42,2.69,2.38,3.66"/><path class="cls-5" d="M45.59,43.68s1.6,1.76,4.99,2.41"/></g><line class="cls-4" x1="51.07" y1="17.14" x2="51.07" y2="22.91"/><path class="cls-4" d="M49.15,23.34h3.83c2.05,0,3.71,1.66,3.71,3.71h-11.25c0-2.05,1.66-3.71,3.71-3.71Z"/><path class="cls-4" d="M52.9,27.14c0,1.02-.82,1.84-1.84,1.84s-1.84-.82-1.84-1.84"/><line class="cls-4" x1="13.27" y1="75.62" x2="86.73" y2="75.62"/></svg>