<?xml version="1.0" encoding="UTF-8"?><svg id="garden" xmlns="http://www.w3.org/2000/svg" viewBox="0 0 100 100"><defs><style>.cls-1{fill:#82e0b8;}.cls-2{stroke-width:1.5px;}.cls-2,.cls-3{fill:none;stroke:#212121;stroke-linecap:round;stroke-linejoin:round;}.cls-4{fill:#c1b37a;}</style></defs><polygon class="cls-4" points="58.78 78.33 37.41 78.33 33.87 56.7 62.32 56.7 58.78 78.33"/><path class="cls-1" d="M45.14,42.97c11.95,1.02,10.06-11.81,8-14.16-6.02-.08-14.86,7.4-8,14.16Z"/><path class="cls-1" d="M59.07,50.38c12.22,2.61,9.22-11.83,6.85-13.26-5.09,1.12-14.49,8.32-6.85,13.26Z"/><path class="cls-1" d="M34.66,49.03c8.33-4.92-.46-15.14-3.18-15.69-4.41,2.78-6.09,16.6,3.18,15.69Z"/><polygon class="cls-2" points="60.78 77.33 39.41 77.33 35.87 55.7 64.32 55.7 60.78 77.33"/><line class="cls-3" x1="37.15" y1="61.13" x2="63.48" y2="61.13"/><path class="cls-2" d="M48.71,55.7c0-3.3-16.98-4.27-15.36-17.13"/><path class="cls-2" d="M50.9,55.7c.81-5.48,16.01-5.08,15.12-12.27"/><path class="cls-2" d="M49.6,55.7s-.58-3.48-1.86-7.75c-1.94-6.47,1.34-11.8,2.57-13.34"/><path class="cls-2" d="M47.14,41.97c11.95,1.02,10.06-11.81,8-14.16-6.02-.08-14.86,7.4-8,14.16Z"/><path class="cls-2" d="M61.07,49.38c12.22,2.61,9.22-11.83,6.85-13.26-5.09,1.12-14.49,8.32-6.85,13.26Z"/><path class="cls-2" d="M36.66,48.03c8.33-4.92-.46-15.14-3.18-15.69-4.41,2.78-6.09,16.6,3.18,15.69Z"/></svg>