<?xml version="1.0" encoding="UTF-8"?><svg id="sanitizer" xmlns="http://www.w3.org/2000/svg" viewBox="0 0 100 100"><defs><style>.cls-1{fill:#fff;}.cls-2{fill:#6d9ae2;}.cls-3{stroke-dasharray:0 0 3 1;}.cls-3,.cls-4,.cls-5,.cls-6{fill:none;stroke:#212121;}.cls-3,.cls-4,.cls-6{stroke-miterlimit:10;}.cls-7{fill:#74a0f7;}.cls-5{stroke-linecap:round;stroke-linejoin:round;stroke-width:1.5px;}.cls-6{stroke-dasharray:0 0 1.93 .64;}.cls-8{fill:#8ee4ef;}.cls-9{fill:#d17895;}</style></defs><path class="cls-7" d="M37.01,24.13h15.02c3.13,0,5.67,2.54,5.67,5.67v2.88h-20.69v-8.55h0Z"/><rect class="cls-2" x="33.04" y="24.13" width="3.98" height="3.98"/><path class="cls-2" d="M37.01,32.68h3.85v3.09c0,1.41-1.14,2.55-2.55,2.55h-1.3v-5.64h0Z"/><rect class="cls-1" x="45.35" y="32.68" width="8" height="5.64"/><path class="cls-8" d="M62.96,71.38v-15.23c0-1.18-.32-2.33-.93-3.34l-8.7-14.49h-8s-8.7,14.49-8.7,14.49c-.61,1.01-.93,2.16-.93,3.34v15.23c0,3.59,2.91,6.49,6.49,6.49h14.25c3.59,0,6.49-2.91,6.49-6.49Z"/><rect class="cls-1" x="35.81" y="55.17" width="26.72" height="14.51"/><path class="cls-5" d="M39.01,23.13h15.02c3.13,0,5.67,2.54,5.67,5.67v2.88h-20.69v-8.55h0Z"/><rect class="cls-5" x="35.04" y="23.13" width="3.98" height="3.98"/><path class="cls-5" d="M39.01,31.68h3.85v3.09c0,1.41-1.14,2.55-2.55,2.55h-1.3v-5.64h0Z"/><rect class="cls-5" x="47.35" y="31.68" width="8" height="5.64"/><path class="cls-5" d="M64.96,70.38v-15.23c0-1.18-.32-2.33-.93-3.34l-8.7-14.49h-8s-8.7,14.49-8.7,14.49c-.61,1.01-.93,2.16-.93,3.34v15.23c0,3.59,2.91,6.49,6.49,6.49h14.25c3.59,0,6.49-2.91,6.49-6.49Z"/><line class="cls-5" x1="38.17" y1="54.17" x2="64.52" y2="54.17"/><line class="cls-5" x1="64.52" y1="68.68" x2="38.17" y2="68.68"/><path class="cls-9" d="M51.81,58.88v-1.91c0-.2-.15-.35-.34-.35h-3.02c-.19,0-.34,.16-.34,.35v1.91c0,.2-.15,.35-.34,.35h-1.85c-.19,0-.34,.16-.34,.35v3.12c0,.2,.15,.35,.34,.35h1.85c.19,0,.34,.16,.34,.35v1.91c0,.2,.15,.35,.34,.35h3.02c.19,0,.34-.16,.34-.35v-1.91c0-.2,.15-.35,.34-.35h1.85c.19,0,.34-.16,.34-.35v-3.12c0-.2-.15-.35-.34-.35h-1.85c-.19,0-.34-.16-.34-.35Z"/><g><g><line class="cls-4" x1="32.98" y1="22" x2="31.96" y2="20.91"/><line class="cls-6" x1="31.52" y1="20.44" x2="29.98" y2="18.79"/><line class="cls-4" x1="29.76" y1="18.56" x2="28.73" y2="17.46"/></g><g><line class="cls-4" x1="28.73" y1="31.64" x2="29.76" y2="30.55"/><line class="cls-6" x1="30.2" y1="30.08" x2="31.74" y2="28.43"/><line class="cls-4" x1="31.96" y1="28.2" x2="32.98" y2="27.1"/></g><line class="cls-3" x1="32.81" y1="24.87" x2="25.28" y2="24.87"/></g></svg>