<svg xmlns="http://www.w3.org/2000/svg" version="1.1" xmlns:xlink="http://www.w3.org/1999/xlink" xmlns:svgjs="http://svgjs.com/svgjs" width="100" height="100"><svg id="SvgjsSvg1000" xmlns="http://www.w3.org/2000/svg" viewBox="0 0 100 100"><defs><style>.cls-1{fill:#d6d6d4;}.cls-2{fill:#116194;}.cls-3{fill:#b2b2b2;}.cls-4{fill:#022056;}.cls-5{fill:#8dd8f8;}</style></defs><polygon class="cls-2" points="22.11 4.58 28.89 16.71 53.19 16.71 60.09 4.58 22.11 4.58"></polygon><polygon class="cls-5" points="60.09 4.58 68.71 4.58 71.38 9.09 26.55 88.73 21.69 88.73 16.76 80.78 60.09 4.58"></polygon><polygon class="cls-4" points="14.42 27.83 26.52 38.56 26.24 64.1 16.76 80.78 14.1 76.64 14.42 27.83"></polygon><polygon class="cls-3" points="73.43 11.14 78.29 11.14 83.3 19.17 40.52 95.42 31.31 95.42 28.47 90.99 73.43 11.14"></polygon><polygon class="cls-1" points="83.3 19.17 85.9 23.48 85.9 72.13 73.39 61.38 73.57 36.52 83.3 19.17"></polygon><polygon class="cls-1" points="47.19 83.53 71.59 83.53 78.54 95.42 40.52 95.42 47.19 83.53"></polygon></svg><style>@media (prefers-color-scheme: light) { :root { filter: none; } }
</style></svg>